<svg width="33" height="39" viewBox="0 0 33 39" fill="none" xmlns="http://www.w3.org/2000/svg">
<g clip-path="url(#clip0_483_9229)">
<path d="M32.1082 13.4378C32.014 13.2757 31.9159 13.113 31.8164 12.9535C31.5377 12.5082 31.2353 12.072 30.917 11.6569C29.4056 9.68169 27.4403 8.03786 25.2345 6.90332C22.9239 5.71541 20.4275 5.09214 17.8145 5.05261C17.6438 5.04997 17.5042 4.90963 17.5042 4.73965V2.36581C17.5042 1.52117 16.817 0.833984 15.9723 0.833984C15.1277 0.833984 14.4405 1.52117 14.4405 2.36581V5.08225C14.4405 5.23049 14.3344 5.35897 14.1888 5.38862C13.3099 5.56717 12.4402 5.81819 11.6028 6.1351C11.5666 6.14893 11.5297 6.15552 11.4922 6.15552C11.3202 6.15552 11.1799 6.01519 11.1799 5.84257V2.36581C11.1799 1.52117 10.4927 0.833984 9.64803 0.833984C8.80338 0.833984 8.1162 1.52117 8.1162 2.36581V7.64584C8.1162 7.83295 8.02396 8.00953 7.86847 8.11955C5.71864 9.63689 3.93052 11.6642 2.69716 13.982C1.4236 16.375 0.74564 19.0822 0.736416 21.8111C0.729169 24.0618 1.1706 26.2524 2.04819 28.3226C2.89415 30.3176 4.10775 32.1156 5.65408 33.6671C7.21885 35.2372 9.04123 36.4719 11.0711 37.3363C13.1716 38.231 15.3945 38.685 17.6781 38.685H30.2035C30.7576 38.685 31.2083 38.2343 31.2083 37.6802V29.299C31.2083 28.8589 30.9856 28.457 30.612 28.2231L29.911 27.7849L29.8734 27.7619L27.2545 26.1246L27.2057 26.0943L23.895 24.0255C23.6829 23.8931 23.5807 23.6408 23.6414 23.3983C23.7659 22.9009 23.8291 22.3863 23.8291 21.8685C23.8291 21.3506 23.7659 20.8354 23.6414 20.3386C23.5807 20.0961 23.6829 19.8438 23.895 19.7114L27.2057 17.6426L27.2545 17.6123L29.8734 15.975L29.911 15.952L31.7683 14.7911C32.2308 14.5018 32.3797 13.9082 32.1076 13.4391L32.1082 13.4378ZM28.0366 13.2698C28.0122 13.4378 27.9153 13.5854 27.7717 13.675L25.5804 15.0447L22.5865 16.9159C22.4113 17.0252 22.209 17.0832 22.0028 17.0832C21.7636 17.0832 21.5264 17.0035 21.3354 16.8592C20.2397 16.0304 18.9319 15.5922 17.5536 15.5922H17.5193C15.8748 15.6008 14.3206 16.2485 13.1426 17.4153C11.9645 18.5821 11.3024 20.1304 11.2787 21.7742C11.2543 23.4688 11.8954 25.0665 13.0839 26.2722C14.2725 27.4786 15.8603 28.1427 17.5536 28.1427C18.9345 28.1427 20.2443 27.7026 21.3413 26.8711C21.5317 26.7268 21.759 26.6504 21.9995 26.6504C22.207 26.6504 22.41 26.7084 22.5865 26.8191L25.5804 28.6902L27.8119 30.085C28.0201 30.2154 28.1446 30.4401 28.1446 30.6858V35.0448C28.1446 35.3624 27.8857 35.6213 27.5681 35.6213H17.6755C15.8241 35.6213 14.0195 35.2556 12.3118 34.5349C10.6613 33.8385 9.17563 32.8436 7.89549 31.5773C6.61271 30.309 5.60532 28.8365 4.90035 27.1999C4.16837 25.5014 3.79809 23.7027 3.80007 21.854C3.80205 20.0059 4.16442 18.2118 4.87729 16.5232C5.56579 14.8919 6.55077 13.4259 7.80588 12.1656C7.84014 12.1306 7.8856 12.1115 7.9337 12.1115C8.0345 12.1115 8.1162 12.1932 8.1162 12.2934V13.9609C8.1162 14.8056 8.80338 15.4928 9.64803 15.4928C10.4927 15.4928 11.1799 14.8056 11.1799 13.9609V10.0322C11.1799 9.81346 11.3064 9.61053 11.5027 9.51434C13.3956 8.58536 15.4321 8.11428 17.5542 8.11428C19.6764 8.11428 21.5133 8.54056 23.3291 9.38191C25.0836 10.1943 26.6213 11.3466 27.9008 12.806C28.0122 12.9331 28.0622 13.1024 28.0379 13.2704L28.0366 13.2698ZM20.7635 21.9785C20.7437 22.5438 20.5757 23.0939 20.2779 23.5703C19.9795 24.0479 19.5591 24.4399 19.0623 24.7041C18.6012 24.9499 18.08 25.0797 17.5542 25.0797C15.7832 25.0797 14.3423 23.6388 14.3423 21.8678C14.3423 20.0968 15.7832 18.6559 17.5542 18.6559C18.08 18.6559 18.6012 18.7857 19.0623 19.0314C19.5591 19.2963 19.9795 19.6883 20.2779 20.1653C20.5764 20.6417 20.7444 21.1918 20.7635 21.7551V21.9785Z" fill="#16063E"/>
<path d="M27.2777 17.6646C27.8529 18.9935 28.1447 20.408 28.1447 21.8687C28.1447 23.3294 27.8529 24.7439 27.2777 26.0728L27.2546 26.1255L29.8736 27.7628L29.8927 27.7232C30.7657 25.887 31.2084 23.9171 31.2084 21.8687C31.2084 19.8203 30.7657 17.8504 29.8927 16.0141L29.8736 15.9746L27.2546 17.6119L27.2777 17.6646Z" fill="#10CE7C"/>
</g>
<defs>
<clipPath id="clip0_483_9229">
<rect width="31.5076" height="37.851" fill="white" transform="translate(0.736328 0.833984)"/>
</clipPath>
</defs>
</svg>
