<svg width="151" height="28" viewBox="0 0 151 28" fill="none" xmlns="http://www.w3.org/2000/svg">
<g clip-path="url(#clip0_483_9237)">
<path d="M47.0315 26.6612V6.73895H41.3938V0.896484H58.9918V6.74033H53.354V26.6625H47.0329L47.0315 26.6612Z" fill="#130C03"/>
<path d="M0.836914 13.8821C0.836914 5.88551 6.95331 0.417969 14.6759 0.417969C19.3231 0.417969 23.5261 2.29674 26.2253 6.32961L20.6554 9.23355C19.1515 7.18322 17.2036 6.09027 14.7437 6.09027C10.4037 6.09027 7.36282 9.47289 7.36282 13.9153C7.36282 18.3576 10.6777 21.6725 14.539 21.6725C17.7168 21.6725 20.0065 19.7591 20.416 17.2301V17.1955H15.0177V12.3436H27.4898V13.4366C27.4898 21.8426 22.4664 27.1054 14.4712 27.1054C6.91872 27.1054 0.836914 21.6725 0.836914 13.8821Z" fill="#130C03"/>
<path d="M31.8257 26.6612V0.896484H38.1468V26.6612H31.8257Z" fill="#130C03"/>
<path d="M114.708 26.6612V0.896484H121.029V26.6612H114.708Z" fill="#130C03"/>
<path d="M144.552 0.896484H150.738V26.6612H145.612L132.696 10.4301L132.798 26.6612H126.579V0.896484H131.842L144.758 17.0252L144.554 0.896484H144.552Z" fill="#130C03"/>
<path d="M74.3069 21.2616C70.3778 21.2616 67.0629 18.1861 67.0629 13.7783C67.0629 9.60986 70.2408 6.29502 74.376 6.29502C76.4125 6.29502 78.1903 7.06562 79.4839 8.3412C80.1078 6.34898 81.079 4.48542 82.3698 2.8197C80.1092 1.31032 77.3588 0.451172 74.4092 0.451172C66.8236 0.451172 60.5356 6.12347 60.5356 13.7437C60.5356 21.7403 66.8568 27.1041 74.3069 27.1041C77.2814 27.1041 80.0525 26.2712 82.3256 24.7909C81.05 23.1265 80.0885 21.2519 79.4728 19.2348C78.1599 20.5048 76.3558 21.2616 74.3069 21.2616Z" fill="#130C03"/>
<path d="M96.9657 0.451172C92.2051 0.451172 87.9564 2.6855 85.4509 6.23276C83.965 8.33843 83.092 10.9062 83.092 13.7437C83.092 16.5812 83.9623 19.3123 85.4371 21.4152C87.937 24.9804 92.1774 27.1041 96.8633 27.1041C104.484 27.1041 110.771 21.6365 110.771 13.8115C110.771 5.9865 104.518 0.451172 96.9657 0.451172ZM96.8633 21.2616C92.9342 21.2616 89.6193 18.1861 89.6193 13.7783C89.6193 9.60986 92.7972 6.29502 96.9325 6.29502C101.068 6.29502 104.246 9.57527 104.246 13.8129C104.246 18.0505 101.068 21.2616 96.8647 21.2616H96.8633Z" fill="#130C03"/>
</g>
<defs>
<clipPath id="clip0_483_9237">
<rect width="149.899" height="26.6875" fill="white" transform="translate(0.836914 0.416016)"/>
</clipPath>
</defs>
</svg>
