<svg width="312" height="293" viewBox="0 0 312 293" fill="none" xmlns="http://www.w3.org/2000/svg">
<path d="M148.174 45.4036C148.174 43.1054 148.314 41.1062 148.1 39.135C148.016 38.3783 147.268 37.4908 146.577 37.033C138.262 31.4931 135.011 19.7687 139.439 10.9497C144.363 1.1218 156.246 -2.85795 165.569 2.19615C175.575 7.62394 179.405 20.3106 173.538 29.6994C171.885 32.3339 169.101 34.2491 166.896 36.5566C166.373 37.1078 165.794 37.8645 165.747 38.5558C165.597 40.8072 165.691 43.068 165.691 45.2915C168.55 45.2915 171.418 45.2541 174.276 45.2915C185.552 45.4596 196.884 44.5161 208.039 47.0011C219.838 49.6262 230.684 54.5028 240.344 61.6496C250.863 69.4222 258.897 79.4651 264.493 91.3202C266.792 96.1875 268.595 101.298 270.753 106.641C273.976 107.482 277.937 108.454 281.86 109.575C299.825 114.704 311.615 130.352 311.989 149.027C312.409 169.813 300.956 184.265 282.907 190.646C278.553 192.187 273.994 193.122 269.566 194.448C268.894 194.654 268.081 195.364 267.875 196.018C264.204 207.976 257.337 217.925 248.369 226.389C240.979 233.368 232.44 238.842 222.818 242.121C218.885 243.466 217.558 245.578 216.297 249.24C212.252 260.936 206.824 271.923 196.268 279.34C184.515 287.599 171.408 292.662 157.049 292.597C129.938 292.485 108.078 276.313 99.3803 252.5C97.3624 246.988 94.7746 243.859 89.0199 241.533C69.0557 233.461 54.9117 218.962 46.401 199.119C45.5789 197.195 44.654 196.074 42.4119 195.635C31.7805 193.542 22.6719 188.46 14.2733 181.631C0.372232 170.327 -4.09332 147.719 5.26751 130.884C10.4431 121.579 17.3562 114.367 27.7354 111.116C32.3971 109.659 37.1709 108.575 41.87 107.211C42.524 107.024 43.3461 106.249 43.4676 105.614C45.7564 94.2256 51.4271 84.4725 58.6112 75.6535C73.5866 57.2588 93.6255 48.1502 116.785 45.6652C124.585 44.8244 132.545 45.4503 140.439 45.4036C142.803 45.3942 145.166 45.4036 148.184 45.4036H148.174ZM155.779 64.8166C155.779 64.8166 155.779 64.7512 155.779 64.7138C146.138 64.7138 136.487 64.5924 126.846 64.7605C120.559 64.8726 114.094 64.5737 108.012 65.8816C79.304 72.0567 61.5726 94.6367 58.5271 123.709C57.1818 136.555 57.9199 149.634 58.0039 162.601C58.06 170.579 59.1997 178.426 61.4605 186.152C68.7007 210.872 94.2048 230.369 120.017 230.472C142.018 230.556 164.028 230.528 186.029 230.425C194.156 230.387 202.275 230.331 210.15 227.491C220.184 223.876 229.414 219.065 236.766 211.208C248.743 198.428 253.825 182.827 254.404 165.702C254.824 153.268 254.423 140.806 254.423 128.362C254.423 114.713 250.564 102.307 242.567 91.2081C230.198 74.0746 213.635 64.91 192.325 64.8259C180.143 64.7792 167.952 64.8259 155.77 64.8259L155.779 64.8166ZM119.625 249.959C123.306 263.253 139.365 274.081 158.311 274.501C176.976 274.912 191.587 262.02 195.52 249.959H119.625ZM39.3477 125.634C26.7077 129.941 17.6085 139.227 19.4489 153.417C20.9063 164.637 30.6875 175.848 39.3477 175.699V125.634ZM273.565 175.54C289.727 169.411 294.519 161.031 293.062 146.289C292.127 136.835 282.589 128.764 273.565 126.138V175.54ZM163.103 20.1798C163.234 16.3682 160.59 13.5469 156.741 13.3974C153.555 13.2759 150.192 16.116 150.015 19.0868C149.819 22.3005 153.256 25.9719 156.526 26.056C160.356 26.1588 162.972 23.8232 163.103 20.1891V20.1798Z" fill="black"/>
<path d="M118.887 158.687C118.774 165.478 117.168 168.262 112.982 168.421C111.628 168.477 109.993 167.889 108.919 167.038C107.779 166.132 106.873 164.675 106.377 163.274C105.901 161.928 106.097 160.349 106.022 159.219C102.762 158.061 99.7352 157.042 96.755 155.884C95.7181 155.482 94.7185 154.828 93.8683 154.1C86.488 147.794 88.9544 143.3 95.0828 138.068C95.6153 137.62 96.9793 137.685 97.7173 138.031C99.539 138.872 101.295 139.899 102.93 141.049C106.639 143.646 110.759 144.337 115.159 144.085C117.13 143.973 118.56 143.225 118.887 141.123C119.204 139.04 118.401 137.293 116.411 136.723C113.487 135.882 110.441 135.499 107.452 134.855C102.603 133.808 97.6239 133.173 94.1579 128.866C85.6939 118.347 88.6647 103.811 100.697 97.6823C102.145 96.9443 103.808 96.6173 105.752 95.982C105.397 91.4137 105.378 86.1728 112.114 86.2008C116.57 86.2195 118.55 89.9563 118.298 96.2997C122.941 97.1124 127.472 98.5511 130.732 102.195C132.227 103.867 133.488 106.062 134.002 108.22C134.6 110.724 133.376 113.041 131.003 114.414C128.397 115.928 125.66 116.703 122.81 115.059C121.605 114.358 120.503 113.471 119.363 112.648C115.916 110.163 112.048 110.098 108.349 111.49C106.957 112.013 105.565 113.938 105.191 115.47C104.696 117.534 106.424 118.702 108.433 119.188C112.506 120.169 116.57 121.234 120.652 122.187C135.712 125.69 138.552 140.806 131.368 151.175C128.332 155.548 124.464 158.574 118.905 158.668L118.887 158.687Z" fill="black"/>
<path d="M208.609 96.0372C211.58 97.0835 214.457 97.7281 216.933 99.0921C219.082 100.279 221.062 102.054 222.622 103.978C225.416 107.407 225.173 110.041 222.37 113.414C220.137 116.104 216.027 117.076 212.879 115.534C211.72 114.964 210.562 114.226 209.655 113.32C206.666 110.331 203.144 110.153 199.426 111.265C197.417 111.863 195.726 113.105 195.745 115.497C195.764 117.786 197.081 119.243 199.295 119.785C202.77 120.644 206.255 121.438 209.74 122.27C216.755 123.933 222.622 127.072 224.528 134.704C226.677 143.346 223.846 150.474 217.045 155.874C214.906 157.574 211.926 158.219 208.889 159.536C208.927 159.844 209.03 160.75 209.142 161.666C209.59 165.524 207.385 168.373 203.779 168.579C199.566 168.822 196.707 166.374 196.651 162.46C196.595 158.77 196.595 158.742 192.344 158.078C188.514 157.471 185.104 155.976 182.395 153.202C177.827 148.521 178.798 142.626 184.497 139.385C186.842 138.049 188.841 138.591 190.766 140.151C194.745 143.364 199.183 145.018 204.396 144.439C207.114 144.14 209.048 142.879 209.226 140.851C209.413 138.815 207.88 136.984 205.199 136.451C201.771 135.779 198.295 135.396 194.867 134.742C184.123 132.677 178.499 124.241 180.097 112.479C181.246 104.034 186.898 99.6152 194.484 97.233C196.091 96.7285 196.913 96.4669 196.371 94.4864C195.67 91.908 196.035 89.4603 198.538 87.7414C200.808 86.1812 202.995 86.2279 205.433 87.3957C208.161 88.6943 208.945 90.8523 208.787 93.6082C208.74 94.4677 208.656 95.3272 208.6 96.0372H208.609Z" fill="black"/>
<path d="M157.478 204.235C144.287 204.235 133.497 199.023 125.024 189.064C123.594 187.382 122.417 185.28 121.754 183.169C120.54 179.329 122.408 175.583 125.967 173.687C129.536 171.79 132.189 172.388 135.253 175.798C135.721 176.321 136.178 176.854 136.589 177.414C144.063 187.756 157.796 190.409 169.016 184.729C172.762 182.833 176.144 179.507 178.648 176.069C181.637 171.958 185.925 172.239 188.999 173.92C192.334 175.733 193.745 179.937 192.016 183.739C188.681 191.063 182.88 196.042 175.873 199.648C170.118 202.619 163.962 204.207 157.488 204.235H157.478Z" fill="black"/>
<path d="M226.601 190.661C219.893 190.558 215.036 186.177 215.064 180.263C215.092 174.49 220.22 169.968 226.526 170.155C231.833 170.304 236.784 175.573 236.672 180.945C236.56 186.233 231.879 190.745 226.601 190.661Z" fill="black"/>
<path d="M87.9724 191.398C82.3485 191.566 77.4532 187.11 77.2943 181.673C77.1355 176.32 82.2924 171.135 87.8883 171.023C93.1106 170.92 98.5851 176.058 98.7439 181.197C98.9214 186.83 94.3064 191.202 87.9724 191.389V191.398Z" fill="black"/>
</svg>
