<svg width="24" height="27" viewBox="0 0 24 27" fill="none" xmlns="http://www.w3.org/2000/svg">
<path d="M23.5 26C23.5 26.1326 23.4473 26.2598 23.3536 26.3536C23.2598 26.4473 23.1326 26.5 23 26.5H1C0.867392 26.5 0.740215 26.4473 0.646447 26.3536C0.552679 26.2598 0.5 26.1326 0.5 26C0.5 25.8674 0.552679 25.7402 0.646447 25.6464C0.740215 25.5527 0.867392 25.5 1 25.5H23C23.1326 25.5 23.2598 25.5527 23.3536 25.6464C23.4473 25.7402 23.5 25.8674 23.5 26ZM23.5 16V21C23.5 21.3978 23.342 21.7794 23.0607 22.0607C22.7794 22.342 22.3978 22.5 22 22.5H2C1.60218 22.5 1.22064 22.342 0.93934 22.0607C0.658035 21.7794 0.5 21.3978 0.5 21V16C0.5 15.6022 0.658035 15.2206 0.93934 14.9393C1.22064 14.658 1.60218 14.5 2 14.5H9.67125L7.57875 4.73375C7.46935 4.22352 7.47543 3.69528 7.59654 3.1877C7.71765 2.68012 7.95073 2.20604 8.27871 1.80017C8.60669 1.39429 9.02128 1.06689 9.49213 0.841933C9.96298 0.616973 10.4782 0.500145 11 0.5H13C13.5219 0.499959 14.0373 0.61665 14.5083 0.841529C14.9793 1.06641 15.394 1.39378 15.7221 1.79968C16.0503 2.20558 16.2835 2.67972 16.4046 3.18739C16.5258 3.69507 16.5319 4.22341 16.4225 4.73375L14.3288 14.5H22C22.3978 14.5 22.7794 14.658 23.0607 14.9393C23.342 15.2206 23.5 15.6022 23.5 16ZM10.6938 14.5H13.3062L15.4438 4.52375C15.5218 4.15932 15.5174 3.78205 15.4309 3.41954C15.3444 3.05702 15.1779 2.71844 14.9436 2.42858C14.7093 2.13871 14.4132 1.90489 14.0769 1.74422C13.7407 1.58356 13.3727 1.50012 13 1.5H11C10.6272 1.49993 10.2591 1.58323 9.92265 1.74382C9.58621 1.9044 9.28994 2.1382 9.05553 2.42809C8.82113 2.71798 8.65452 3.05663 8.56792 3.41923C8.48131 3.78184 8.4769 4.15922 8.555 4.52375L10.6938 14.5ZM22.5 16C22.5 15.8674 22.4473 15.7402 22.3536 15.6464C22.2598 15.5527 22.1326 15.5 22 15.5H2C1.86739 15.5 1.74021 15.5527 1.64645 15.6464C1.55268 15.7402 1.5 15.8674 1.5 16V21C1.5 21.1326 1.55268 21.2598 1.64645 21.3536C1.74021 21.4473 1.86739 21.5 2 21.5H22C22.1326 21.5 22.2598 21.4473 22.3536 21.3536C22.4473 21.2598 22.5 21.1326 22.5 21V16Z" fill="#343330"/>
</svg>
