<svg width="33" height="33" viewBox="0 0 33 33" fill="none" xmlns="http://www.w3.org/2000/svg">
<path d="M24.7639 23.513C24.9506 23.7005 25.0553 23.9542 25.0553 24.2187C25.0553 24.4832 24.9506 24.7369 24.7639 24.9243C24.6277 25.058 21.4077 28.2168 16.0552 28.2168C11.3814 28.2168 7.98893 25.4168 6.05518 23.2355V26.2168C6.05518 26.482 5.94982 26.7364 5.76228 26.9239C5.57475 27.1114 5.32039 27.2168 5.05518 27.2168C4.78996 27.2168 4.53561 27.1114 4.34807 26.9239C4.16053 26.7364 4.05518 26.482 4.05518 26.2168V20.2168C4.05518 19.9516 4.16053 19.6972 4.34807 19.5097C4.53561 19.3222 4.78996 19.2168 5.05518 19.2168H11.0552C11.3204 19.2168 11.5747 19.3222 11.7623 19.5097C11.9498 19.6972 12.0552 19.9516 12.0552 20.2168C12.0552 20.482 11.9498 20.7364 11.7623 20.9239C11.5747 21.1114 11.3204 21.2168 11.0552 21.2168H6.98518C8.52518 23.1355 11.6802 26.2168 16.0552 26.2168C20.5552 26.2168 23.3227 23.5343 23.3502 23.5068C23.5385 23.3202 23.7932 23.2161 24.0583 23.2173C24.3234 23.2184 24.5772 23.3248 24.7639 23.513ZM27.0552 5.2168C26.79 5.2168 26.5356 5.32215 26.3481 5.50969C26.1605 5.69723 26.0552 5.95158 26.0552 6.2168V9.19805C24.1214 7.0168 20.7289 4.2168 16.0552 4.2168C10.7027 4.2168 7.48268 7.37555 7.34768 7.5093C7.1597 7.69661 7.05384 7.95092 7.05337 8.21628C7.0529 8.48164 7.15787 8.73633 7.34518 8.9243C7.53249 9.11227 7.78679 9.21813 8.05216 9.2186C8.31752 9.21907 8.5722 9.11411 8.76018 8.9268C8.78768 8.8993 11.5552 6.2168 16.0552 6.2168C20.4302 6.2168 23.5852 9.29805 25.1252 11.2168H21.0552C20.79 11.2168 20.5356 11.3222 20.3481 11.5097C20.1605 11.6972 20.0552 11.9516 20.0552 12.2168C20.0552 12.482 20.1605 12.7364 20.3481 12.9239C20.5356 13.1114 20.79 13.2168 21.0552 13.2168H27.0552C27.3204 13.2168 27.5747 13.1114 27.7623 12.9239C27.9498 12.7364 28.0552 12.482 28.0552 12.2168V6.2168C28.0552 5.95158 27.9498 5.69723 27.7623 5.50969C27.5747 5.32215 27.3204 5.2168 27.0552 5.2168Z" fill="#343330"/>
</svg>
