<svg width="20" height="19" viewBox="0 0 20 19" fill="none" xmlns="http://www.w3.org/2000/svg">
<path d="M14.9383 4.91087V12.405C14.9383 12.5197 14.8927 12.6296 14.8117 12.7107C14.7306 12.7918 14.6206 12.8373 14.5059 12.8373C14.3913 12.8373 14.2813 12.7918 14.2002 12.7107C14.1191 12.6296 14.0736 12.5197 14.0736 12.405V5.95428L5.58794 14.4399C5.50598 14.5163 5.39757 14.5579 5.28557 14.5559C5.17356 14.5539 5.06669 14.5085 4.98747 14.4293C4.90826 14.3501 4.86288 14.2432 4.86091 14.1312C4.85893 14.0192 4.90051 13.9108 4.97688 13.8289L13.4625 5.34322H7.01182C6.89715 5.34322 6.78718 5.29767 6.7061 5.21659C6.62502 5.13551 6.57947 5.02554 6.57947 4.91087C6.57947 4.7962 6.62502 4.68623 6.7061 4.60515C6.78718 4.52407 6.89715 4.47852 7.01182 4.47852H14.5059C14.6206 4.47852 14.7306 4.52407 14.8117 4.60515C14.8927 4.68623 14.9383 4.7962 14.9383 4.91087Z" fill="#636C76"/>
</svg>
