<svg width="100%" viewBox="0 0 2060 464" fill="none" xmlns="http://www.w3.org/2000/svg"><path d="M185.827 154.355C158.422 154.355 136.089 162.729 119.449 179.217V69.832H49.2393V394.154H116.493V370.93C133.061 388.646 156.342 397.615 185.827 397.615C253.811 397.615 301.287 347.594 301.287 275.985C301.287 204.377 253.811 154.355 185.827 154.355ZM174.405 213.868C207.795 213.868 230.238 238.841 230.238 275.985C230.238 313.129 207.795 338.103 174.405 338.103C141.016 338.103 118.573 313.129 118.573 275.985C118.573 238.841 141.016 213.868 174.405 213.868Z" fill="black"></path><path d="M425.32 69.832H355.11V394.154H425.32V69.832Z" fill="black"></path><path d="M1027.65 307.289C1016.48 327.722 999.88 338.106 978.314 338.106C943.902 338.106 920.803 313.132 920.803 275.988C920.803 238.844 943.902 213.871 978.314 213.871C999.333 213.871 1016.41 224.515 1027.65 244.687L1028.67 246.511L1083.37 216.55L1082.57 214.727C1065.89 176.354 1028.05 154.358 978.715 154.358C903.981 154.358 849.754 205.497 849.754 275.988C849.754 346.48 903.981 397.618 978.715 397.618C1027.76 397.618 1065.64 375.771 1082.57 337.697L1083.37 335.873L1028.64 305.428L1027.61 307.289H1027.65Z" fill="black"></path><path d="M1376.51 157.817H1291.96L1198.54 248.109V69.832H1128.33V394.154H1198.54V333.823L1227.95 304.197L1299 394.154H1384.28L1279.55 258.455L1376.51 157.817Z" fill="black"></path><path d="M1537.33 123.728C1546.75 123.728 1555.76 126.482 1562.77 131.543L1565.03 133.181L1583.86 80.2192L1582.51 79.2887C1570.87 71.1006 1552.07 66.4111 1530.98 66.4111C1474.57 66.4111 1440.92 99.4612 1440.92 154.842V163.03H1405.82V219.081H1440.92V394.194H1511.13V219.081H1567.8V163.03H1509.45V155.252C1509.45 134.074 1518.58 123.765 1537.37 123.765L1537.33 123.728Z" fill="black"></path><path d="M1775.4 274.686C1775.4 313.058 1757.04 335.055 1725.07 335.055C1695.88 335.055 1681.1 316.929 1681.1 281.162V157.82H1610.89V291.1C1610.89 358.8 1647.13 397.619 1710.26 397.619C1737.3 397.619 1761.42 387.83 1778.75 369.891V394.158H1845.57V157.82H1775.36V274.686H1775.4Z" fill="black"></path><path d="M1972.9 69.832H1902.69V394.154H1972.9V69.832Z" fill="black"></path><path d="M648.614 219.25C648.622 222.902 648.629 226.554 648.629 230.214C651.147 231.82 653.657 233.433 656.167 235.047L700.687 263.587V259.478C700.687 239.785 700.687 220.084 700.71 200.391L648.517 168.892L648.614 219.242V219.25Z" fill="black"></path><path d="M570.073 183.176L599.66 165.686C612.128 158.319 624.603 150.944 637.071 143.569C637.935 143.057 638.807 142.798 639.679 142.798C640.55 142.798 641.445 143.065 642.316 143.592C649.802 148.142 657.302 152.668 664.809 157.201L676.879 164.49C687.716 171.031 698.553 177.571 709.382 184.128C722.767 176.013 736.166 167.914 749.566 159.815L767.069 149.236L691.511 103.041C674.166 92.4313 656.828 81.8055 639.498 71.1797C629.578 77.2797 619.651 83.3639 609.723 89.4482L512.296 149.189L522.246 155.037C538.193 164.419 554.141 173.801 570.08 183.191L570.073 183.176Z" fill="black"></path><path d="M629.712 329.192L629.502 329.05L586.658 301.478C579.142 296.638 571.635 291.797 564.112 286.972C562.429 285.894 561.497 284.186 561.504 282.163C561.504 279.951 561.504 277.732 561.474 275.512L560.805 215.779C560.745 210.183 560.685 204.587 560.64 198.991C559.129 198.117 557.619 197.227 556.116 196.338L502.848 165.027V248.869C502.848 272.686 502.848 296.512 502.833 320.329C514.662 327.452 526.483 334.591 538.305 341.738L630.539 397.472V394.639C630.539 387.776 630.531 380.983 630.539 374.19C630.561 364.792 630.592 355.394 630.622 345.989L630.674 330.719C630.674 330.42 630.689 330.113 630.712 329.798C630.449 329.656 630.193 329.515 629.953 329.357C629.93 329.341 629.727 329.2 629.705 329.192H629.712Z" fill="black"></path><path d="M579.256 199.156C579.008 199.297 578.745 199.439 578.475 199.573C578.497 199.84 578.512 200.108 578.52 200.368L579.166 262.95L584.562 259.51C599.968 249.695 615.382 239.888 630.803 230.088C630.78 222.084 630.773 214.079 630.773 206.074L630.75 168.734L579.264 199.156H579.256Z" fill="black"></path><path d="M692.194 280.013L665.869 263.122C657.113 257.51 648.358 251.89 639.61 246.263C626.211 254.811 612.804 263.351 599.397 271.891L586.981 279.793L597.42 286.507C611.458 295.535 625.497 304.571 639.52 313.622C653.356 304.783 667.199 295.952 681.049 287.121L692.194 280.013Z" fill="black"></path><path d="M776.042 165.357L774.2 166.467C755.615 177.699 737.03 188.931 718.438 200.139C718.453 216.416 718.46 232.686 718.46 248.955L718.475 282.162C718.475 284.099 717.641 285.657 716.063 286.657C713.275 288.404 710.509 290.175 707.743 291.946L698.868 297.613C682.071 308.333 665.282 319.046 648.478 329.75C648.463 334.709 648.441 339.668 648.411 344.626L648.23 397.472L685.761 374.78C715.86 356.582 745.951 338.393 776.057 320.218C776.042 270.096 776.042 219.982 776.042 169.86V165.365V165.357Z" fill="black"></path></svg>