<svg width="891" height="891" viewBox="0 0 891 891" fill="none" xmlns="http://www.w3.org/2000/svg">
<path d="M468.38 408.846C468.399 417.573 468.416 426.301 468.416 435.047C474.433 438.885 480.431 442.739 486.43 446.596L592.82 514.799V504.98C592.82 457.919 592.82 410.839 592.875 363.778L468.148 288.505L468.38 408.827V408.846Z" fill="black"/>
<path d="M280.69 322.639L351.394 280.843C381.189 263.238 411.001 245.614 440.796 227.99C442.861 226.766 444.945 226.147 447.028 226.147C449.11 226.147 451.249 226.786 453.33 228.045C471.22 238.918 489.142 249.734 507.082 260.567L535.926 277.985C561.823 293.616 587.721 309.245 613.599 324.915C645.585 305.522 677.605 286.168 709.627 266.813L751.454 241.532L570.892 131.139C529.443 105.785 488.01 80.3927 446.596 55C422.89 69.5773 399.167 84.1168 375.442 98.6565L142.619 241.42L166.397 255.395C204.506 277.816 242.617 300.236 280.707 322.675L280.69 322.639Z" fill="black"/>
<path d="M423.205 671.576L422.703 671.237L320.318 605.348C302.357 593.782 284.417 582.213 266.439 570.683C262.418 568.106 260.19 564.025 260.207 559.19C260.207 553.904 260.207 548.602 260.135 543.296L258.537 400.552C258.393 387.179 258.25 373.806 258.142 360.433C254.532 358.344 250.923 356.217 247.331 354.093L120.036 279.269V479.627C120.036 536.543 120.036 593.481 120 650.396C148.268 667.418 176.517 684.479 204.768 701.558L425.181 834.746V827.976C425.181 811.576 425.162 795.342 425.181 779.109C425.234 756.65 425.308 734.192 425.38 711.717L425.504 675.226C425.504 674.511 425.54 673.777 425.595 673.025C424.966 672.685 424.354 672.348 423.781 671.971C423.726 671.933 423.241 671.596 423.188 671.576H423.205Z" fill="black"/>
<path d="M302.63 360.827C302.037 361.164 301.409 361.503 300.764 361.824C300.816 362.462 300.852 363.102 300.871 363.724L302.415 513.277L315.31 505.056C352.126 481.601 388.961 458.165 425.813 434.746C425.758 415.619 425.741 396.489 425.741 377.359L425.686 288.127L302.649 360.827H302.63Z" fill="black"/>
<path d="M572.521 554.052L509.612 513.688C488.687 500.277 467.765 486.846 446.86 473.4C414.84 493.827 382.801 514.235 350.762 534.643L321.092 553.527L346.038 569.571C379.585 591.146 413.134 612.739 446.645 634.369C479.709 613.246 512.79 592.142 545.888 571.039L572.521 554.052Z" fill="black"/>
<path d="M772.896 280.057L768.494 282.709C724.081 309.551 679.668 336.392 635.238 363.176C635.274 402.073 635.291 440.954 635.291 479.832L635.327 559.188C635.327 563.817 633.334 567.54 629.563 569.93C622.9 574.104 616.29 578.337 609.68 582.569L588.471 596.111C548.331 621.729 508.211 647.33 468.054 672.91C468.018 684.76 467.965 696.611 467.894 708.459L467.461 834.746L557.149 780.519C629.078 737.031 700.987 693.564 772.931 650.131C772.896 530.353 772.896 410.595 772.896 290.818V280.076V280.057Z" fill="black"/>
</svg>
