<svg width="16" height="17" viewBox="0 0 16 17" fill="none" xmlns="http://www.w3.org/2000/svg">
<path fill-rule="evenodd" clip-rule="evenodd" d="M9.59064 8.74577C9.49874 8.48575 9.32847 8.26063 9.10329 8.10141C8.8781 7.9422 8.60909 7.85673 8.33331 7.85677V7.52344H7.66664V7.85677C7.31302 7.85677 6.97388 7.99725 6.72383 8.2473C6.47379 8.49734 6.33331 8.83648 6.33331 9.1901C6.33331 9.54373 6.47379 9.88286 6.72383 10.1329C6.97388 10.383 7.31302 10.5234 7.66664 10.5234V11.8568C7.37664 11.8568 7.12964 11.6718 7.03764 11.4124C7.02399 11.37 7.00197 11.3307 6.97289 11.297C6.9438 11.2632 6.90823 11.2356 6.8683 11.2158C6.82836 11.196 6.78486 11.1845 6.74037 11.1818C6.69588 11.1791 6.65131 11.1854 6.60928 11.2002C6.56726 11.2151 6.52864 11.2382 6.49571 11.2682C6.46278 11.2983 6.4362 11.3346 6.41756 11.3751C6.39891 11.4156 6.38858 11.4594 6.38716 11.5039C6.38574 11.5485 6.39328 11.5929 6.40931 11.6344C6.50121 11.8945 6.67149 12.1196 6.89667 12.2788C7.12185 12.438 7.39086 12.5235 7.66664 12.5234V12.8568H8.33331V12.5234C8.68693 12.5234 9.02607 12.383 9.27612 12.1329C9.52617 11.8829 9.66664 11.5437 9.66664 11.1901C9.66664 10.8365 9.52617 10.4973 9.27612 10.2473C9.02607 9.99725 8.68693 9.85677 8.33331 9.85677V8.52344C8.47118 8.5234 8.60567 8.56611 8.71826 8.64569C8.83085 8.72527 8.916 8.83779 8.96198 8.96777C8.99142 9.05114 9.05277 9.11939 9.13253 9.15753C9.17203 9.17641 9.21486 9.18733 9.25857 9.18965C9.30229 9.19198 9.34603 9.18568 9.38731 9.1711C9.42859 9.15653 9.46659 9.13396 9.49915 9.1047C9.53171 9.07543 9.55818 9.04005 9.57707 9.00055C9.59595 8.96105 9.60686 8.91823 9.60919 8.87451C9.61152 8.8308 9.60522 8.78705 9.59064 8.74577ZM7.66664 8.52344C7.48983 8.52344 7.32026 8.59368 7.19524 8.7187C7.07021 8.84372 6.99998 9.01329 6.99998 9.1901C6.99998 9.36692 7.07021 9.53648 7.19524 9.66151C7.32026 9.78653 7.48983 9.85677 7.66664 9.85677V8.52344ZM8.33331 11.8568C8.51012 11.8568 8.67969 11.7865 8.80471 11.6615C8.92974 11.5365 8.99998 11.3669 8.99998 11.1901C8.99998 11.0133 8.92974 10.8437 8.80471 10.7187C8.67969 10.5937 8.51012 10.5234 8.33331 10.5234V11.8568Z" fill="white"/>
<path fill-rule="evenodd" clip-rule="evenodd" d="M4.38433 3.3971C5.20233 2.99677 6.54433 2.52344 8.01299 2.52344C9.45099 2.52344 10.7577 2.9771 11.5713 3.3721L11.6173 3.39444C11.8627 3.51577 12.0607 3.63044 12.2 3.72344L10.9687 5.52344C13.8073 8.42544 16 14.5224 8.01299 14.5224C0.025993 14.5224 2.15966 8.53611 5.02299 5.52344L3.79966 3.72344C3.89399 3.66177 4.01366 3.5901 4.15633 3.5141C4.22699 3.4761 4.30299 3.43688 4.38433 3.3971ZM10.1773 5.49977L11.163 4.05877C10.2463 4.12477 9.15566 4.3401 8.10566 4.6441C7.35566 4.86077 6.52233 4.82777 5.75066 4.68544C5.55619 4.64943 5.36307 4.60652 5.17166 4.55677L5.81166 5.4991C7.18333 5.98744 8.80533 5.98744 10.1773 5.49977ZM5.42666 6.06677C7.03166 6.68677 8.96066 6.68677 10.5657 6.0661C11.2354 6.77248 11.7959 7.57501 12.2283 8.4471C12.679 9.36644 12.9243 10.2854 12.8843 11.0774C12.8457 11.8418 12.545 12.4948 11.8583 12.9801C11.1427 13.4858 9.93899 13.8558 8.01266 13.8558C6.08433 13.8558 4.87499 13.4921 4.15266 12.9921C3.46099 12.5131 3.15733 11.8688 3.11433 11.1148C3.06933 10.3314 3.30933 9.4171 3.75833 8.49144C4.18666 7.60877 4.78433 6.7591 5.42666 6.06677ZM5.04333 3.82877C5.30999 3.9081 5.58866 3.9771 5.87133 4.02944C6.58799 4.16144 7.30666 4.18077 7.91999 4.0031C8.63471 3.79481 9.36166 3.63105 10.0967 3.51277C9.48333 3.3281 8.76599 3.1901 8.01266 3.1901C6.86433 3.1901 5.79333 3.51044 5.04333 3.82877Z" fill="white"/>
</svg>
