<svg width="12" height="12" viewBox="0 0 12 12" fill="none" xmlns="http://www.w3.org/2000/svg">
<path fill-rule="evenodd" clip-rule="evenodd" d="M7.37469 6.1753C7.2953 5.95068 7.1482 5.7562 6.95368 5.61866C6.75915 5.48112 6.52676 5.40729 6.28852 5.40732V5.11937H5.71261V5.40732C5.40713 5.40732 5.11416 5.52868 4.89815 5.74469C4.68214 5.96069 4.56079 6.25366 4.56079 6.55915C4.56079 6.86463 4.68214 7.1576 4.89815 7.37361C5.11416 7.58961 5.40713 7.71097 5.71261 7.71097V8.86279C5.46209 8.86279 5.24872 8.70297 5.16924 8.47894C5.15745 8.44229 5.13843 8.40838 5.1133 8.3792C5.08817 8.35003 5.05745 8.32619 5.02295 8.3091C4.98845 8.29201 4.95087 8.28201 4.91244 8.2797C4.874 8.27738 4.8355 8.2828 4.79919 8.29562C4.76289 8.30845 4.72953 8.32843 4.70108 8.35437C4.67263 8.38032 4.64968 8.4117 4.63357 8.44668C4.61746 8.48165 4.60854 8.51949 4.60731 8.55798C4.60609 8.59646 4.61259 8.6348 4.62644 8.67072C4.70584 8.89534 4.85293 9.08982 5.04746 9.22736C5.24198 9.3649 5.47437 9.43874 5.71261 9.4387V9.72665H6.28852V9.4387C6.594 9.4387 6.88697 9.31735 7.10298 9.10134C7.31899 8.88533 7.44034 8.59236 7.44034 8.28688C7.44034 7.9814 7.31899 7.68843 7.10298 7.47242C6.88697 7.25641 6.594 7.13506 6.28852 7.13506V5.98324C6.40762 5.98321 6.52381 6.0201 6.62107 6.08885C6.71833 6.15759 6.79189 6.2548 6.83161 6.36708C6.85704 6.4391 6.91004 6.49806 6.97894 6.531C7.01306 6.54731 7.05006 6.55675 7.08782 6.55876C7.12559 6.56077 7.16338 6.55532 7.19904 6.54273C7.2347 6.53014 7.26753 6.51065 7.29565 6.48537C7.32378 6.46009 7.34665 6.42952 7.36296 6.3954C7.37927 6.36128 7.3887 6.32428 7.39071 6.28652C7.39273 6.24875 7.38728 6.21096 7.37469 6.1753ZM5.71261 5.98324C5.55987 5.98324 5.41339 6.04391 5.30538 6.15192C5.19738 6.25992 5.1367 6.4064 5.1367 6.55915C5.1367 6.71189 5.19738 6.85837 5.30538 6.96638C5.41339 7.07438 5.55987 7.13506 5.71261 7.13506V5.98324ZM6.28852 8.86279C6.44126 8.86279 6.58775 8.80211 6.69575 8.69411C6.80376 8.5861 6.86443 8.43962 6.86443 8.28688C6.86443 8.13414 6.80376 7.98765 6.69575 7.87965C6.58775 7.77164 6.44126 7.71097 6.28852 7.71097V8.86279Z" fill="#04A46E"/>
<path fill-rule="evenodd" clip-rule="evenodd" d="M2.87725 1.55473C3.58389 1.2089 4.7432 0.800003 6.01193 0.800003C7.25417 0.800003 8.38295 1.19191 9.08585 1.53314L9.12559 1.55243C9.33753 1.65725 9.50857 1.7563 9.62894 1.83664L8.56523 3.3916C11.0175 5.89854 12.9116 11.1655 6.01193 11.1655C-0.887766 11.1655 0.955436 5.99414 3.42897 3.3916L2.37218 1.83664C2.45367 1.78337 2.55704 1.72146 2.68029 1.65581C2.74133 1.62298 2.80699 1.5891 2.87725 1.55473ZM7.88162 3.37116L8.73311 2.12633C7.94123 2.18334 6.99904 2.36936 6.09198 2.63197C5.44408 2.81915 4.72419 2.79064 4.05758 2.66768C3.88959 2.63658 3.72275 2.5995 3.5574 2.55653L4.11027 3.37058C5.29521 3.79243 6.6964 3.79243 7.88162 3.37116ZM3.77768 3.86097C5.16419 4.39656 6.83059 4.39656 8.21709 3.86039C8.79569 4.4706 9.27982 5.16389 9.65341 5.91726C10.0427 6.71144 10.2547 7.50533 10.2201 8.18951C10.1867 8.84979 9.92697 9.4139 9.33378 9.83316C8.71554 10.27 7.67573 10.5896 6.01164 10.5896C4.34582 10.5896 3.30112 10.2755 2.67712 9.84353C2.07961 9.42973 1.81729 8.87312 1.78014 8.22176C1.74127 7.54507 1.94859 6.75521 2.33647 5.95555C2.70649 5.19305 3.2228 4.45905 3.77768 3.86097ZM3.44654 1.92764C3.6769 1.99617 3.91763 2.05578 4.16182 2.10098C4.78092 2.21502 5.40175 2.23172 5.93159 2.07824C6.54901 1.89829 7.177 1.75683 7.81194 1.65465C7.2821 1.49513 6.66242 1.37591 6.01164 1.37591C5.01964 1.37591 4.09444 1.65264 3.44654 1.92764Z" fill="#04A46E"/>
</svg>
