<svg width="14" height="14" viewBox="0 0 14 14" fill="none" xmlns="http://www.w3.org/2000/svg">
<path d="M7 1.53125C5.91839 1.53125 4.86106 1.85199 3.96173 2.4529C3.0624 3.05381 2.36145 3.90792 1.94754 4.9072C1.53362 5.90648 1.42532 7.00607 1.63633 8.0669C1.84735 9.12773 2.36819 10.1022 3.13301 10.867C3.89783 11.6318 4.87227 12.1527 5.9331 12.3637C6.99394 12.5747 8.09352 12.4664 9.0928 12.0525C10.0921 11.6385 10.9462 10.9376 11.5471 10.0383C12.148 9.13894 12.4688 8.08162 12.4688 7C12.4672 5.55009 11.8905 4.16001 10.8652 3.13477C9.83999 2.10952 8.44992 1.53284 7 1.53125ZM12.0313 7C12.0321 8.25862 11.5595 9.47151 10.7073 10.3977L3.60227 3.29273C4.32206 2.63364 5.218 2.19813 6.18093 2.03925C7.14387 1.88036 8.13223 2.00498 9.0256 2.3979C9.91897 2.79082 10.6788 3.43509 11.2124 4.25222C11.7461 5.06934 12.0306 6.02404 12.0313 7ZM1.96875 7C1.96791 5.74138 2.44054 4.52849 3.29274 3.60227L10.3977 10.7073C9.67795 11.3664 8.78201 11.8019 7.81907 11.9608C6.85613 12.1196 5.86777 11.995 4.9744 11.6021C4.08104 11.2092 3.32123 10.5649 2.78757 9.74778C2.2539 8.93066 1.96941 7.97596 1.96875 7Z" fill="#343330"/>
</svg>
