<svg width="24" height="26" viewBox="0 0 24 26" fill="none" xmlns="http://www.w3.org/2000/svg">
<path d="M23 4.5H17.5V3C17.5 2.33696 17.2366 1.70107 16.7678 1.23223C16.2989 0.763392 15.663 0.5 15 0.5H9C8.33696 0.5 7.70107 0.763392 7.23223 1.23223C6.76339 1.70107 6.5 2.33696 6.5 3V4.5H1C0.867392 4.5 0.740215 4.55268 0.646447 4.64645C0.552679 4.74021 0.5 4.86739 0.5 5C0.5 5.13261 0.552679 5.25979 0.646447 5.35355C0.740215 5.44732 0.867392 5.5 1 5.5H2.5V24C2.5 24.3978 2.65804 24.7794 2.93934 25.0607C3.22064 25.342 3.60218 25.5 4 25.5H20C20.3978 25.5 20.7794 25.342 21.0607 25.0607C21.342 24.7794 21.5 24.3978 21.5 24V5.5H23C23.1326 5.5 23.2598 5.44732 23.3536 5.35355C23.4473 5.25979 23.5 5.13261 23.5 5C23.5 4.86739 23.4473 4.74021 23.3536 4.64645C23.2598 4.55268 23.1326 4.5 23 4.5ZM7.5 3C7.5 2.60218 7.65804 2.22064 7.93934 1.93934C8.22064 1.65804 8.60218 1.5 9 1.5H15C15.3978 1.5 15.7794 1.65804 16.0607 1.93934C16.342 2.22064 16.5 2.60218 16.5 3V4.5H7.5V3ZM20.5 24C20.5 24.1326 20.4473 24.2598 20.3536 24.3536C20.2598 24.4473 20.1326 24.5 20 24.5H4C3.86739 24.5 3.74021 24.4473 3.64645 24.3536C3.55268 24.2598 3.5 24.1326 3.5 24V5.5H20.5V24ZM9.5 11V19C9.5 19.1326 9.44732 19.2598 9.35355 19.3536C9.25979 19.4473 9.13261 19.5 9 19.5C8.86739 19.5 8.74021 19.4473 8.64645 19.3536C8.55268 19.2598 8.5 19.1326 8.5 19V11C8.5 10.8674 8.55268 10.7402 8.64645 10.6464C8.74021 10.5527 8.86739 10.5 9 10.5C9.13261 10.5 9.25979 10.5527 9.35355 10.6464C9.44732 10.7402 9.5 10.8674 9.5 11ZM15.5 11V19C15.5 19.1326 15.4473 19.2598 15.3536 19.3536C15.2598 19.4473 15.1326 19.5 15 19.5C14.8674 19.5 14.7402 19.4473 14.6464 19.3536C14.5527 19.2598 14.5 19.1326 14.5 19V11C14.5 10.8674 14.5527 10.7402 14.6464 10.6464C14.7402 10.5527 14.8674 10.5 15 10.5C15.1326 10.5 15.2598 10.5527 15.3536 10.6464C15.4473 10.7402 15.5 10.8674 15.5 11Z" fill="#343330"/>
</svg>
