<svg width="12" height="12" viewBox="0 0 12 12" fill="none" xmlns="http://www.w3.org/2000/svg">
<path d="M10.765 3.64031L4.76503 9.64031C4.73021 9.67517 4.68885 9.70283 4.64332 9.72171C4.5978 9.74058 4.549 9.75029 4.49972 9.75029C4.45044 9.75029 4.40164 9.74058 4.35612 9.72171C4.31059 9.70283 4.26923 9.67517 4.23441 9.64031L1.60941 7.01531C1.53904 6.94494 1.49951 6.84951 1.49951 6.74999C1.49951 6.65048 1.53904 6.55505 1.60941 6.48468C1.67977 6.41432 1.77521 6.37479 1.87472 6.37479C1.97423 6.37479 2.06967 6.41432 2.14003 6.48468L4.49972 8.84484L10.2344 3.10968C10.3048 3.03932 10.4002 2.99979 10.4997 2.99979C10.5992 2.99979 10.6947 3.03932 10.765 3.10968C10.8354 3.18005 10.8749 3.27548 10.8749 3.37499C10.8749 3.47451 10.8354 3.56994 10.765 3.64031Z" fill="#04A46E"/>
</svg>
