<svg width="25" height="18" viewBox="0 0 25 18" fill="none" xmlns="http://www.w3.org/2000/svg">
<path d="M24.354 1.35378L8.35403 17.3538C8.30759 17.4003 8.25245 17.4372 8.19175 17.4623C8.13105 17.4875 8.06599 17.5004 8.00028 17.5004C7.93457 17.5004 7.86951 17.4875 7.80881 17.4623C7.74811 17.4372 7.69296 17.4003 7.64653 17.3538L0.646528 10.3538C0.552707 10.26 0.5 10.1327 0.5 10C0.5 9.86735 0.552708 9.7401 0.646528 9.64628C0.740349 9.55246 0.867596 9.49976 1.00028 9.49976C1.13296 9.49976 1.26021 9.55246 1.35403 9.64628L8.00028 16.2925L23.6465 0.646284C23.7403 0.552464 23.8676 0.499756 24.0003 0.499756C24.133 0.499756 24.2602 0.552464 24.354 0.646284C24.4478 0.740104 24.5006 0.867352 24.5006 1.00003C24.5006 1.13272 24.4478 1.25996 24.354 1.35378Z" fill="#343330"/>
</svg>
