<svg width="75" height="75" viewBox="0 0 75 75" fill="none" xmlns="http://www.w3.org/2000/svg">
<g clip-path="url(#clip0_483_9271)">
<path d="M51.472 54.1096H67.6552C66.2963 36.1763 58.5753 25.0374 48.6718 18.4488L53.1809 8.60712C53.3172 8.29483 53.3738 7.95359 53.3458 7.614C53.3177 7.27441 53.2058 6.9471 53.0201 6.6614C52.8344 6.37571 52.5807 6.14057 52.2818 5.97707C51.9828 5.81357 51.648 5.72683 51.3072 5.72461H23.0793C22.7385 5.72683 22.4037 5.81357 22.1047 5.97707C21.8057 6.14057 21.552 6.37571 21.3663 6.6614C21.1806 6.9471 21.0688 7.27441 21.0407 7.614C21.0126 7.95359 21.0693 8.29483 21.2056 8.60712L23.6763 13.9603H44.5128L42.6597 18.0782H38.8507C40.0127 21.2066 40.8678 24.4407 41.4038 27.7346C41.7475 29.7784 41.9676 31.8411 42.0626 33.9114L38.8095 36.1968C38.8187 33.5337 38.5983 30.8747 38.1507 28.2494C37.5825 24.7551 36.601 21.3408 35.227 18.0782H33.168C31.2664 20.4779 29.5589 23.0254 28.0619 25.6963C26.8542 27.9869 25.8284 30.3688 24.9941 32.8202L22.1733 30.9466C22.9985 28.5777 24.0105 26.2782 25.2 24.0697C26.4042 22 27.724 19.9996 29.1531 18.0782H25.55L25.7147 18.4282C14.8023 25.6963 6.50483 38.4617 6.50483 59.7716C6.477 60.2196 6.53822 60.6686 6.68493 61.0928C6.83165 61.5169 7.06095 61.9078 7.3596 62.2428C7.65826 62.5779 8.02033 62.8504 8.42492 63.0447C8.8295 63.239 9.26857 63.3512 9.71676 63.3748H26.1882C25.481 62.6387 24.9926 61.7202 24.7779 60.7222C24.5632 59.7242 24.6306 58.6861 24.9726 57.7243C25.3146 56.7625 25.9177 55.9149 26.7142 55.2764C27.5107 54.638 28.4693 54.2339 29.4825 54.1096C28.9894 53.2733 28.7266 52.3214 28.7207 51.3506C28.7207 49.8762 29.3064 48.4622 30.349 47.4197C31.3915 46.3772 32.8055 45.7915 34.2799 45.7915H46.6335C48.1078 45.7915 49.5218 46.3772 50.5644 47.4197C51.6069 48.4622 52.1926 49.8762 52.1926 51.3506C52.2032 52.3181 51.9543 53.2708 51.472 54.1096Z" fill="black"/>
<path d="M44.6983 59.2582C44.6983 58.7121 44.4814 58.1884 44.0952 57.8023C43.7091 57.4161 43.1854 57.1992 42.6393 57.1992H30.2857C29.7397 57.1992 29.216 57.4161 28.8299 57.8023C28.4437 58.1884 28.2268 58.7121 28.2268 59.2582C28.2268 59.8042 28.4437 60.3279 28.8299 60.714C29.216 61.1002 29.7397 61.3171 30.2857 61.3171H42.6393C43.1854 61.3171 43.7091 61.1002 44.0952 60.714C44.4814 60.3279 44.6983 59.8042 44.6983 59.2582Z" fill="black"/>
<path d="M46.6335 48.9648H34.2799C33.7338 48.9648 33.2101 49.1818 32.824 49.5679C32.4379 49.954 32.2209 50.4777 32.2209 51.0238C32.2209 51.5698 32.4379 52.0935 32.824 52.4797C33.2101 52.8658 33.7338 53.0827 34.2799 53.0827H46.6335C47.1796 53.0827 47.7033 52.8658 48.0894 52.4797C48.4755 52.0935 48.6924 51.5698 48.6924 51.0238C48.6924 50.4777 48.4755 49.954 48.0894 49.5679C47.7033 49.1818 47.1796 48.9648 46.6335 48.9648Z" fill="black"/>
<path d="M45.5217 65.4336H33.1681C32.622 65.4336 32.0983 65.6505 31.7122 66.0366C31.3261 66.4228 31.1091 66.9465 31.1091 67.4925C31.1091 68.0386 31.3261 68.5623 31.7122 68.9484C32.0983 69.3345 32.622 69.5515 33.1681 69.5515H45.5217C46.0677 69.5515 46.5914 69.3345 46.9776 68.9484C47.3637 68.5623 47.5806 68.0386 47.5806 67.4925C47.5806 66.9465 47.3637 66.4228 46.9776 66.0366C46.5914 65.6505 46.0677 65.4336 45.5217 65.4336Z" fill="black"/>
<path d="M67.5518 65.4336H53.1393C52.5932 65.4336 52.0695 65.6505 51.6834 66.0366C51.2972 66.4228 51.0803 66.9465 51.0803 67.4925C51.0803 68.0386 51.2972 68.5623 51.6834 68.9484C52.0695 69.3345 52.5932 69.5515 53.1393 69.5515H67.5518C68.0979 69.5515 68.6216 69.3345 69.0077 68.9484C69.3938 68.5623 69.6107 68.0386 69.6107 67.4925C69.6107 66.9465 69.3938 66.4228 69.0077 66.0366C68.6216 65.6505 68.0979 65.4336 67.5518 65.4336Z" fill="black"/>
<path d="M69.6109 57.1992H55.1983C54.6523 57.1992 54.1286 57.4161 53.7425 57.8023C53.3563 58.1884 53.1394 58.7121 53.1394 59.2582C53.1394 59.8042 53.3563 60.3279 53.7425 60.714C54.1286 61.1002 54.6523 61.3171 55.1983 61.3171H69.6109C70.1569 61.3171 70.6806 61.1002 71.0668 60.714C71.4529 60.3279 71.6698 59.8042 71.6698 59.2582C71.6698 58.7121 71.4529 58.1884 71.0668 57.8023C70.6806 57.4161 70.1569 57.1992 69.6109 57.1992Z" fill="black"/>
</g>
<defs>
<clipPath id="clip0_483_9271">
<rect width="74.1217" height="74.1217" fill="white" transform="translate(0.225098 0.578125)"/>
</clipPath>
</defs>
</svg>
