<svg width="12" height="12" viewBox="0 0 12 12" fill="none" xmlns="http://www.w3.org/2000/svg">
<path d="M11.4301 3.57139C11.3455 3.49763 11.2409 3.45068 11.1296 3.43649C11.0182 3.4223 10.9052 3.44152 10.8048 3.4917L8.45121 4.66358L6.48621 1.39967C6.4357 1.31592 6.36441 1.24664 6.27924 1.19855C6.19407 1.15045 6.09793 1.12518 6.00012 1.12518C5.90231 1.12518 5.80617 1.15045 5.721 1.19855C5.63583 1.24664 5.56454 1.31592 5.51403 1.39967L3.54903 4.66499L1.19637 3.49311C1.09622 3.44337 0.983605 3.42432 0.872665 3.43835C0.761725 3.45238 0.657399 3.49886 0.572779 3.57196C0.48816 3.64507 0.427017 3.74153 0.397022 3.84926C0.367028 3.95699 0.369519 4.07117 0.404183 4.17749L2.13856 9.49124C2.156 9.54462 2.1852 9.5934 2.22402 9.63399C2.26283 9.67457 2.31027 9.70592 2.36282 9.72572C2.41538 9.74552 2.47171 9.75326 2.52765 9.74837C2.5836 9.74349 2.63773 9.7261 2.68606 9.69749C2.69778 9.69046 3.89637 8.99999 6.00012 8.99999C8.10387 8.99999 9.30246 9.69045 9.31324 9.69702C9.36159 9.7259 9.41582 9.74353 9.4719 9.74859C9.52799 9.75364 9.58449 9.74601 9.63723 9.72624C9.68996 9.70647 9.73756 9.67508 9.7765 9.6344C9.81544 9.59371 9.84471 9.54478 9.86215 9.49124L11.5965 4.17889C11.6322 4.07255 11.6354 3.958 11.6058 3.84982C11.5761 3.74164 11.515 3.64472 11.4301 3.57139ZM9.28137 8.85139C8.71887 8.6128 7.59762 8.24999 6.00012 8.24999C4.40262 8.24999 3.28137 8.6128 2.71887 8.85139L1.25215 4.35936L3.36481 5.41264C3.49269 5.47571 3.63954 5.48859 3.77645 5.44877C3.91336 5.40895 4.03039 5.3193 4.1045 5.19749L6.00012 2.04655L7.89575 5.19655C7.96991 5.31816 8.08686 5.40766 8.22363 5.44747C8.3604 5.48728 8.50712 5.47452 8.63496 5.4117L10.7481 4.35936L9.28137 8.85139ZM8.24403 7.35139C8.22872 7.43814 8.18336 7.51674 8.11591 7.57339C8.04846 7.63004 7.96321 7.66114 7.87512 7.66124C7.85313 7.66121 7.83117 7.65932 7.80949 7.65561C6.61169 7.44999 5.38761 7.44999 4.18981 7.65561C4.09184 7.67289 3.99103 7.65055 3.90954 7.5935C3.82805 7.53644 3.77256 7.44936 3.75528 7.35139C3.738 7.25343 3.76034 7.15261 3.81739 7.07112C3.87444 6.98963 3.96153 6.93414 4.0595 6.91686C5.34352 6.69624 6.65578 6.69624 7.93981 6.91686C8.03758 6.93403 8.12456 6.98926 8.18167 7.07045C8.23878 7.15164 8.26138 7.25217 8.2445 7.34999L8.24403 7.35139Z" fill="#F22E76"/>
</svg>
