<svg width="25" height="25" viewBox="0 0 25 25" fill="none" xmlns="http://www.w3.org/2000/svg">
<path d="M24.0613 6.52499L18.475 0.938741C18.3356 0.798902 18.1701 0.687946 17.9877 0.612238C17.8054 0.53653 17.6099 0.497559 17.4125 0.497559C17.2151 0.497559 17.0196 0.53653 16.8373 0.612238C16.6549 0.687946 16.4894 0.798902 16.35 0.938741L0.93875 16.3537C0.657823 16.635 0.500019 17.0162 0.5 17.4137V23C0.5 23.3978 0.658035 23.7793 0.93934 24.0606C1.22064 24.342 1.60218 24.5 2 24.5H23C23.1326 24.5 23.2598 24.4473 23.3536 24.3535C23.4473 24.2598 23.5 24.1326 23.5 24C23.5 23.8674 23.4473 23.7402 23.3536 23.6464C23.2598 23.5527 23.1326 23.5 23 23.5H9.2075L24.0613 8.64624C24.3425 8.36494 24.5006 7.98342 24.5006 7.58562C24.5006 7.18781 24.3425 6.80629 24.0613 6.52499ZM7.7925 23.5H2C1.86739 23.5 1.74021 23.4473 1.64645 23.3535C1.55268 23.2598 1.5 23.1326 1.5 23V17.4137C1.50023 17.2815 1.55281 17.1548 1.64625 17.0612L13 5.70749L19.2938 12L7.7925 23.5ZM23.3538 7.93874L20 11.2925L13.7075 4.99999L17.0613 1.64624C17.1077 1.59975 17.1628 1.56287 17.2235 1.53771C17.2842 1.51255 17.3493 1.4996 17.415 1.4996C17.4807 1.4996 17.5458 1.51255 17.6065 1.53771C17.6672 1.56287 17.7223 1.59975 17.7687 1.64624L23.3538 7.23249C23.4473 7.32622 23.4998 7.45322 23.4998 7.58562C23.4998 7.71801 23.4473 7.84501 23.3538 7.93874Z" fill="#343330"/>
</svg>
