<svg width="72" height="46" viewBox="0 0 72 46" fill="none" xmlns="http://www.w3.org/2000/svg">
<path d="M71.783 0.848498L69.7061 0.826172L69.5274 16.4585C69.5051 19.049 69.2595 21.8181 69.5051 24.3639C69.5721 24.9445 69.5498 25.5028 69.5274 26.0835C69.4381 30.0139 70.0411 34.3909 66.8923 37.3387C65.6194 38.5446 63.8552 39.4602 62.1133 39.7059C60.5054 39.9069 58.7188 39.7282 57.0886 39.7059L47.7762 39.5942L9.70045 39.1476C9.76745 39.8399 9.85677 40.5322 9.76744 41.2245L23.4569 41.3138L48.1782 41.6041L57.8032 41.7381C59.3664 41.7604 61.1753 41.9614 62.7386 41.7158C64.9048 41.3585 67.0039 40.1079 68.5448 38.5893C72.0286 35.1502 71.4256 30.5945 71.448 26.1058L71.4703 24.2969L71.783 0.848498Z" fill="black"/>
<circle cx="4.31094" cy="4.31094" r="3.44875" transform="matrix(-1 0 0 1 9.17871 35.7129)" fill="#D9D9D9" stroke="black" stroke-width="1.72438"/>
</svg>
