<svg width="72" height="46" viewBox="0 0 72 46" fill="none" xmlns="http://www.w3.org/2000/svg">
<path d="M0.666016 0.883655L2.74287 0.861328L2.92154 16.4936C2.94387 19.0841 3.18952 21.8532 2.94387 24.3991C2.87687 24.9797 2.89921 25.538 2.92154 26.1186C3.01087 30.049 2.4079 34.4261 5.55669 37.3739C6.82961 38.5798 8.59381 39.4954 10.3357 39.7411C11.9436 39.942 13.7301 39.7634 15.3604 39.7411L24.6727 39.6294L62.7485 39.1828C62.6815 39.875 62.5922 40.5673 62.6815 41.2596L48.9921 41.3489L24.2708 41.6393L14.6458 41.7732C13.0825 41.7956 11.2736 41.9966 9.71041 41.7509C7.54422 41.3936 5.44503 40.143 3.90413 38.6245C0.420365 35.1854 1.02333 30.6297 1.00099 26.141L0.978667 24.3321L0.666016 0.883655Z" fill="black"/>
<circle cx="67.5812" cy="40.057" r="3.44875" fill="#D9D9D9" stroke="black" stroke-width="1.72438"/>
</svg>
