<svg width="249" height="250" viewBox="0 0 249 250" fill="none" xmlns="http://www.w3.org/2000/svg">
<rect width="249" height="250" fill="#F5F5F5"/>
<rect width="249" height="249" transform="translate(0 0.556641)" fill="white"/>
<circle cx="35.3498" cy="122.125" r="3.44875" stroke="black" stroke-width="1.72438"/>
<circle cx="35.6945" cy="131.782" r="3.44875" stroke="black" stroke-width="1.72438"/>
<rect x="38.4688" y="120.838" width="41.7196" height="2.16725" fill="black"/>
<rect x="39.0105" y="130.59" width="42.2614" height="2.16725" fill="black"/>
<path d="M176.109 153.575L207.038 153.195V155.228L176.154 155.495L176.109 153.575Z" fill="black"/>
<path d="M170.28 166.861C170.928 167.129 171.441 167.531 171.955 168C172.223 168.224 172.58 168.67 172.915 168.76C173.474 168.894 174.501 168.737 175.104 168.737L181.312 168.626L207.15 168.246L207.172 170.434L178.945 170.658C178.163 170.658 172.178 170.859 171.977 170.747C171.508 170.501 170.928 169.764 170.526 169.385L168.829 167.978C169.342 167.643 169.789 167.263 170.28 166.861Z" fill="black"/>
<circle cx="213.995" cy="169.373" r="3.44875" stroke="black" stroke-width="1.72438"/>
<circle cx="213.65" cy="153.854" r="3.44875" stroke="black" stroke-width="1.72438"/>
<path d="M126.89 163.488L127.515 220.278H125.46L124.947 164.851L126.89 163.488Z" fill="black"/>
<path d="M144.666 169.86L146.743 169.838L146.922 185.47C146.944 188.061 147.19 190.83 146.944 193.376C146.877 193.956 146.899 194.515 146.922 195.095C147.011 199.026 146.408 203.403 149.557 206.35C150.83 207.556 152.594 208.472 154.336 208.718C155.944 208.919 157.73 208.74 159.36 208.718L168.673 208.606L206.749 208.159C206.682 208.852 206.592 209.544 206.682 210.236L192.992 210.326L168.271 210.616L158.646 210.75C157.083 210.772 155.274 210.973 153.71 210.727C151.544 210.37 149.445 209.12 147.904 207.601C144.42 204.162 145.023 199.606 145.001 195.118L144.979 193.309L144.666 169.86Z" fill="black"/>
<circle cx="211.581" cy="209.034" r="3.44875" stroke="black" stroke-width="1.72438"/>
<path d="M107.783 168.825L105.706 168.803L105.527 184.435C105.505 187.026 105.259 189.795 105.505 192.34C105.572 192.921 105.55 193.479 105.527 194.06C105.438 197.99 106.041 202.367 102.892 205.315C101.619 206.521 99.8552 207.437 98.1133 207.682C96.5054 207.883 94.7188 207.705 93.0886 207.682L83.7762 207.571L45.7005 207.124C45.7674 207.816 45.8568 208.509 45.7674 209.201L59.4569 209.29L84.1782 209.581L93.8032 209.715C95.3664 209.737 97.1753 209.938 98.7386 209.692C100.905 209.335 103.004 208.084 104.545 206.566C108.029 203.127 107.426 198.571 107.448 194.082L107.47 192.273L107.783 168.825Z" fill="black"/>
<circle cx="4.31094" cy="4.31094" r="3.44875" transform="matrix(-1 0 0 1 45.1787 203.689)" stroke="black" stroke-width="1.72438"/>
<circle cx="126.397" cy="225.243" r="3.44875" stroke="black" stroke-width="1.72438"/>
<mask id="path-15-inside-1_0_1" fill="white">
<path d="M45.9812 79.7223L45.9142 73.5363L38.6117 73.6257C36.8475 73.648 35.0609 73.7597 33.319 73.4917C29.612 72.9334 26.0389 70.9235 23.7834 67.931C22.2871 65.8988 21.2599 63.5317 20.9249 61.0305C20.3666 57.0331 21.2152 52.8794 23.6717 49.6413C26.4632 45.9788 30.1703 44.304 34.6366 43.701C34.9269 39.8376 35.7755 36.5771 37.9641 33.339C40.8449 29.0736 45.6686 26.1035 50.7156 25.1656C55.9859 24.183 61.5242 25.2549 65.9235 28.3367C70.3452 31.4185 72.8464 35.8849 73.7843 41.1105C77.3798 40.4182 81.4442 41.4678 84.5036 43.366C88.1884 45.6439 90.8905 49.4179 91.8508 53.661C92.7664 57.7924 92.0071 62.0801 89.7293 65.6309C87.0718 69.7623 82.9851 72.4644 78.1167 73.0897C76.3525 73.313 74.4543 73.2237 72.6901 73.246C71.2162 73.2684 69.3403 73.0674 67.9334 73.38L68.179 89.191L68.2014 89.3473C68.3354 90.4415 69.1393 91.5581 69.9879 92.2058C70.9035 92.9204 71.9755 93.1437 73.0921 93.3C73.1367 94.037 73.159 94.8186 73.3377 95.5109L73.5834 96.2031C73.1814 96.7168 72.5338 97.0741 72.0425 97.5207C70.8812 98.5927 69.9656 99.8432 69.184 101.205L68.2014 103.416C67.5314 105.56 67.3081 107.682 67.6431 109.915C67.7771 110.585 67.9111 111.322 68.1344 111.947L57.6831 112.103C56.0082 112.126 53.775 112.416 52.1448 112.036C50.7602 111.724 49.5096 110.942 48.4824 109.96C47.4551 108.955 46.6512 107.704 46.3608 106.297C46.1599 105.337 46.2269 104.287 46.2269 103.327L46.1822 98.4587L45.9812 79.7223Z"/>
</mask>
<path d="M45.9812 79.7223L45.9142 73.5363L38.6117 73.6257C36.8475 73.648 35.0609 73.7597 33.319 73.4917C29.612 72.9334 26.0389 70.9235 23.7834 67.931C22.2871 65.8988 21.2599 63.5317 20.9249 61.0305C20.3666 57.0331 21.2152 52.8794 23.6717 49.6413C26.4632 45.9788 30.1703 44.304 34.6366 43.701C34.9269 39.8376 35.7755 36.5771 37.9641 33.339C40.8449 29.0736 45.6686 26.1035 50.7156 25.1656C55.9859 24.183 61.5242 25.2549 65.9235 28.3367C70.3452 31.4185 72.8464 35.8849 73.7843 41.1105C77.3798 40.4182 81.4442 41.4678 84.5036 43.366C88.1884 45.6439 90.8905 49.4179 91.8508 53.661C92.7664 57.7924 92.0071 62.0801 89.7293 65.6309C87.0718 69.7623 82.9851 72.4644 78.1167 73.0897C76.3525 73.313 74.4543 73.2237 72.6901 73.246C71.2162 73.2684 69.3403 73.0674 67.9334 73.38L68.179 89.191L68.2014 89.3473C68.3354 90.4415 69.1393 91.5581 69.9879 92.2058C70.9035 92.9204 71.9755 93.1437 73.0921 93.3C73.1367 94.037 73.159 94.8186 73.3377 95.5109L73.5834 96.2031C73.1814 96.7168 72.5338 97.0741 72.0425 97.5207C70.8812 98.5927 69.9656 99.8432 69.184 101.205L68.2014 103.416C67.5314 105.56 67.3081 107.682 67.6431 109.915C67.7771 110.585 67.9111 111.322 68.1344 111.947L57.6831 112.103C56.0082 112.126 53.775 112.416 52.1448 112.036C50.7602 111.724 49.5096 110.942 48.4824 109.96C47.4551 108.955 46.6512 107.704 46.3608 106.297C46.1599 105.337 46.2269 104.287 46.2269 103.327L46.1822 98.4587L45.9812 79.7223Z" stroke="black" stroke-width="3.44875" mask="url(#path-15-inside-1_0_1)"/>
<path d="M45.9109 73.3269L45.7769 55.1711L45.6652 55.1264C44.7496 54.8361 43.9457 54.3002 43.499 53.4292C43.0524 52.5806 42.9854 51.5757 43.3204 50.6824C43.633 49.7891 44.2807 49.0968 45.1516 48.7172C45.9109 48.3822 47.0275 48.4269 47.7644 48.7172C48.7024 49.0968 49.4393 49.9008 49.7743 50.8387C50.0646 51.6203 50.0423 52.536 49.6626 53.2729C49.417 53.7419 49.0373 54.1885 48.613 54.5012C48.4344 54.6351 47.6598 54.9925 47.5928 55.1711V73.3046C47.5928 73.3046 46.5362 73.3269 45.9109 73.3269Z" fill="black"/>
<path d="M56.05 73.3269L55.916 55.1711L55.8044 55.1264C54.8888 54.8361 54.0848 54.3002 53.6382 53.4292C53.1916 52.5806 53.1246 51.5757 53.4595 50.6824C53.7722 49.7891 54.4198 49.0968 55.2908 48.7172C56.05 48.3822 57.1666 48.4269 57.9036 48.7172C58.8415 49.0968 59.5785 49.9008 59.9134 50.8387C60.2038 51.6203 60.1814 52.536 59.8018 53.2729C59.5561 53.7419 59.1765 54.1885 58.7522 54.5012C58.5735 54.6351 57.7989 54.9925 57.7319 55.1711V73.3046C57.7319 73.3046 56.6753 73.3269 56.05 73.3269Z" fill="black"/>
<path d="M66.1892 73.3269L66.0552 55.1711L65.9435 55.1264C65.0279 54.8361 64.224 54.3002 63.7774 53.4292C63.3307 52.5806 63.2637 51.5757 63.5987 50.6824C63.9113 49.7891 64.559 49.0968 65.4299 48.7172C66.1892 48.3822 67.3058 48.4269 68.0427 48.7172C68.9807 49.0968 69.7176 49.9008 70.0526 50.8387C70.3429 51.6203 70.3206 52.536 69.9409 53.2729C69.6953 53.7419 69.3157 54.1885 68.8913 54.5012C68.7127 54.6351 67.9381 54.9925 67.8711 55.1711V73.3046C67.8711 73.3046 66.8145 73.3269 66.1892 73.3269Z" fill="black"/>
<mask id="path-19-inside-2_0_1" fill="white">
<path d="M206.96 79.7223L207.027 73.5363L214.329 73.6257C216.094 73.648 217.88 73.7597 219.622 73.4917C223.329 72.9334 226.902 70.9235 229.158 67.931C230.654 65.8988 231.681 63.5317 232.016 61.0305C232.575 57.0331 231.726 52.8794 229.269 49.6413C226.478 45.9788 222.771 44.304 218.305 43.701C218.014 39.8376 217.166 36.5771 214.977 33.339C212.096 29.0736 207.273 26.1035 202.226 25.1656C196.955 24.183 191.417 25.2549 187.018 28.3367C182.596 31.4185 180.095 35.8849 179.157 41.1105C175.561 40.4182 171.497 41.4678 168.438 43.366C164.753 45.6439 162.051 49.4179 161.09 53.661C160.175 57.7924 160.934 62.0801 163.212 65.6309C165.869 69.7623 169.956 72.4644 174.824 73.0897C176.589 73.313 178.487 73.2237 180.251 73.246C181.725 73.2684 183.601 73.0674 185.008 73.38L184.762 89.191L184.74 89.3473C184.606 90.4415 183.802 91.5581 182.953 92.2058C182.038 92.9204 180.966 93.1437 179.849 93.3C179.804 94.037 179.782 94.8186 179.603 95.5109L179.358 96.2031C179.76 96.7168 180.407 97.0741 180.899 97.5207C182.06 98.5927 182.976 99.8432 183.757 101.205L184.74 103.416C185.41 105.56 185.633 107.682 185.298 109.915C185.164 110.585 185.03 111.322 184.807 111.947L195.258 112.103C196.933 112.126 199.166 112.416 200.796 112.036C202.181 111.724 203.432 110.942 204.459 109.96C205.486 108.955 206.29 107.704 206.58 106.297C206.781 105.337 206.714 104.287 206.714 103.327L206.759 98.4587L206.96 79.7223Z"/>
</mask>
<path d="M206.96 79.7223L207.027 73.5363L214.329 73.6257C216.094 73.648 217.88 73.7597 219.622 73.4917C223.329 72.9334 226.902 70.9235 229.158 67.931C230.654 65.8988 231.681 63.5317 232.016 61.0305C232.575 57.0331 231.726 52.8794 229.269 49.6413C226.478 45.9788 222.771 44.304 218.305 43.701C218.014 39.8376 217.166 36.5771 214.977 33.339C212.096 29.0736 207.273 26.1035 202.226 25.1656C196.955 24.183 191.417 25.2549 187.018 28.3367C182.596 31.4185 180.095 35.8849 179.157 41.1105C175.561 40.4182 171.497 41.4678 168.438 43.366C164.753 45.6439 162.051 49.4179 161.09 53.661C160.175 57.7924 160.934 62.0801 163.212 65.6309C165.869 69.7623 169.956 72.4644 174.824 73.0897C176.589 73.313 178.487 73.2237 180.251 73.246C181.725 73.2684 183.601 73.0674 185.008 73.38L184.762 89.191L184.74 89.3473C184.606 90.4415 183.802 91.5581 182.953 92.2058C182.038 92.9204 180.966 93.1437 179.849 93.3C179.804 94.037 179.782 94.8186 179.603 95.5109L179.358 96.2031C179.76 96.7168 180.407 97.0741 180.899 97.5207C182.06 98.5927 182.976 99.8432 183.757 101.205L184.74 103.416C185.41 105.56 185.633 107.682 185.298 109.915C185.164 110.585 185.03 111.322 184.807 111.947L195.258 112.103C196.933 112.126 199.166 112.416 200.796 112.036C202.181 111.724 203.432 110.942 204.459 109.96C205.486 108.955 206.29 107.704 206.58 106.297C206.781 105.337 206.714 104.287 206.714 103.327L206.759 98.4587L206.96 79.7223Z" stroke="black" stroke-width="3.44875" mask="url(#path-19-inside-2_0_1)"/>
<path d="M207.031 73.3269L207.165 55.1711L207.276 55.1264C208.192 54.8361 208.996 54.3002 209.443 53.4292C209.889 52.5806 209.956 51.5757 209.621 50.6824C209.309 49.7891 208.661 49.0968 207.79 48.7172C207.031 48.3822 205.914 48.4269 205.177 48.7172C204.239 49.0968 203.502 49.9008 203.167 50.8387C202.877 51.6203 202.899 52.536 203.279 53.2729C203.525 53.7419 203.904 54.1885 204.329 54.5012C204.507 54.6351 205.282 54.9925 205.349 55.1711V73.3046C205.349 73.3046 206.405 73.3269 207.031 73.3269Z" fill="black"/>
<path d="M196.892 73.3269L197.026 55.1711L197.137 55.1264C198.053 54.8361 198.857 54.3002 199.303 53.4292C199.75 52.5806 199.817 51.5757 199.482 50.6824C199.169 49.7891 198.522 49.0968 197.651 48.7172C196.892 48.3822 195.775 48.4269 195.038 48.7172C194.1 49.0968 193.363 49.9008 193.028 50.8387C192.738 51.6203 192.76 52.536 193.14 53.2729C193.386 53.7419 193.765 54.1885 194.189 54.5012C194.368 54.6351 195.143 54.9925 195.21 55.1711V73.3046C195.21 73.3046 196.266 73.3269 196.892 73.3269Z" fill="black"/>
<path d="M186.752 73.3269L186.886 55.1711L186.998 55.1264C187.914 54.8361 188.718 54.3002 189.164 53.4292C189.611 52.5806 189.678 51.5757 189.343 50.6824C189.03 49.7891 188.383 49.0968 187.512 48.7172C186.752 48.3822 185.636 48.4269 184.899 48.7172C183.961 49.0968 183.224 49.9008 182.889 50.8387C182.599 51.6203 182.621 52.536 183.001 53.2729C183.246 53.7419 183.626 54.1885 184.05 54.5012C184.229 54.6351 185.004 54.9925 185.071 55.1711V73.3046C185.071 73.3046 186.127 73.3269 186.752 73.3269Z" fill="black"/>
<path d="M114.406 65.5866L115.501 65.5196C119.096 65.4302 122.245 66.5022 125.103 68.7353C125.974 69.4276 126.778 70.2539 127.56 71.0132C128.989 69.2043 130.24 67.7751 132.361 66.7255C137.006 64.4476 142.366 65.2962 146.363 68.512C146.765 68.8247 147.815 70.1869 148.217 70.2092C148.73 70.2539 149.557 70.0083 150.115 69.9413C152.102 69.7403 154.112 69.9413 156.011 70.5889C159.271 71.7055 162.04 73.6037 163.983 76.4622C164.564 77.3331 165.01 78.2934 165.479 79.2536C166.596 79.3876 167.712 79.4993 168.762 79.8566C171.911 80.9062 174.457 83.0054 175.908 85.9978C177.36 88.9457 177.382 91.8934 176.333 94.9752C178.03 96.1812 179.571 96.9851 180.888 98.66C182.876 101.183 183.791 104.243 183.389 107.436L183.367 107.682C183.054 110.161 182.094 112.26 180.308 114.002C183.077 117.218 184.886 120.813 185.02 125.123C185.198 130.662 182.697 136.334 178.231 139.661C177.471 140.22 176.712 140.756 175.908 141.224C175.573 141.425 174.613 141.76 174.39 142.006C174.39 142.028 174.546 156.276 174.568 157.929L174.591 160.653C174.591 160.698 174.613 161.122 174.591 161.144L174.323 161.256C173.407 161.658 172.335 161.792 171.509 162.395C170.169 163.333 170.102 164.829 169.052 165.923C168.494 166.482 167.779 166.861 166.998 167.018C166.015 167.196 164.921 167.129 163.938 167.152L158.199 167.219L137.989 167.42C136.537 167.487 134.974 167.174 133.679 166.482C130.91 165.008 129.48 162.641 128.609 159.715C126.399 162.239 123.071 164.539 119.699 165.142C116.461 165.745 113.133 165.276 110.163 163.847C106.992 162.328 104.245 159.514 103.084 156.164L103.017 155.986C100.94 156.857 98.774 157.504 96.4962 157.236C91.8512 156.7 88.0324 153.842 86.7372 149.242C86.6702 149.041 86.3799 147.522 86.3575 147.5C86.1789 147.366 84.9953 147.299 84.705 147.232C81.6008 146.629 78.7647 144.954 76.8218 142.475C74.9013 140.041 73.9187 136.825 74.3207 133.721L74.343 133.565C73.673 133.185 72.9808 132.895 72.3555 132.426C70.0106 130.684 68.2017 127.602 67.7998 124.721C67.2415 120.679 68.6261 117.597 71.0156 114.471C70.5019 113.421 69.899 112.372 69.564 111.255C69.028 109.513 68.9387 107.794 69.229 106.007C69.8543 102.099 72.3331 99.2183 75.4596 96.9628C75.1469 96.0472 74.879 95.0869 74.7896 94.1266C74.477 90.8885 75.7499 87.6951 77.8044 85.2386C80.06 82.5587 83.1417 81.0178 86.6255 80.7052C87.2061 79.2536 87.7198 77.8467 88.68 76.5738C91.5162 72.7774 96.3175 70.9015 100.985 71.2812C101.744 71.3482 102.459 71.5268 103.196 71.6831C103.33 71.7055 103.754 71.8618 103.866 71.8395C103.888 71.8395 104.379 71.1918 104.446 71.1025C105.183 70.1646 105.987 69.249 106.925 68.4897C109.091 66.7478 111.682 65.9885 114.406 65.5866Z" fill="black"/>
<path d="M169.257 162.623C168.94 163.322 168.646 164.157 168.104 164.722C167.539 165.308 166.861 165.489 166.047 165.511L146.45 165.624L140.076 165.692C139.059 165.714 137.906 165.827 136.889 165.669C135.443 165.444 133.906 164.676 132.866 163.638C131.623 162.397 130.741 160.772 130.335 159.08C129.882 157.162 130.108 155.086 130.108 153.122L130.018 143.554L172.76 142.99L172.783 145.36L133.725 146.082L133.838 152.31C133.838 154.228 133.657 156.395 134.132 158.29C134.403 159.351 135.013 160.389 135.827 161.134C136.46 161.72 137.364 162.33 138.2 162.51C139.014 162.691 139.896 162.645 140.732 162.645L144.348 162.623L154.587 162.555L164.374 162.375C165.821 162.352 167.946 162.081 169.257 162.623Z" fill="white"/>
<path d="M115.165 100.738C117.867 99.7777 121.061 100.492 123.584 101.676C124.053 101.899 124.656 102.167 124.88 102.658C125.036 103.016 124.947 103.351 124.768 103.686C124.634 103.954 124.254 104.244 123.964 104.289C123.584 104.356 123.115 104.11 122.78 103.931C121.396 103.038 119.609 102.413 117.957 102.591C117.398 102.658 116.661 102.837 116.125 102.748C115.768 102.703 115.456 102.413 115.255 102.145C114.92 101.698 115.076 101.229 115.165 100.738Z" fill="black"/>
<mask id="path-26-outside-3_0_1" maskUnits="userSpaceOnUse" x="132.79" y="144.424" width="41" height="19" fill="black">
<rect fill="white" x="132.79" y="144.424" width="41" height="19"/>
<path d="M168.873 162.485C167.578 161.949 165.479 162.217 164.072 162.24L154.402 162.418L144.286 162.485L140.713 162.508C139.887 162.508 139.038 162.552 138.212 162.374C137.385 162.173 136.47 161.57 135.867 161.011C135.063 160.274 134.46 159.247 134.192 158.198C133.723 156.344 133.902 154.2 133.902 152.28L133.79 146.116L172.379 145.424L172.513 160.141C170.95 160.498 169.767 161.145 168.873 162.485Z"/>
</mask>
<path d="M168.873 162.485C167.578 161.949 165.479 162.217 164.072 162.24L154.402 162.418L144.286 162.485L140.713 162.508C139.887 162.508 139.038 162.552 138.212 162.374C137.385 162.173 136.47 161.57 135.867 161.011C135.063 160.274 134.46 159.247 134.192 158.198C133.723 156.344 133.902 154.2 133.902 152.28L133.79 146.116L172.379 145.424L172.513 160.141C170.95 160.498 169.767 161.145 168.873 162.485Z" fill="white"/>
<path d="M168.873 162.485C167.578 161.949 165.479 162.217 164.072 162.24L154.402 162.418L144.286 162.485L140.713 162.508C139.887 162.508 139.038 162.552 138.212 162.374C137.385 162.173 136.47 161.57 135.867 161.011C135.063 160.274 134.46 159.247 134.192 158.198C133.723 156.344 133.902 154.2 133.902 152.28L133.79 146.116L172.379 145.424L172.513 160.141C170.95 160.498 169.767 161.145 168.873 162.485Z" stroke="white" stroke-width="0.689751" mask="url(#path-26-outside-3_0_1)"/>
<path d="M140.2 147.054C142.276 147.188 144.42 147.076 146.497 147.054L157.998 146.897L163.112 146.808C163.76 146.786 164.787 146.652 165.368 146.942C165.546 147.188 165.68 147.389 165.613 147.701C165.524 148.103 165.323 148.26 165.01 148.505L164.832 148.528C163.447 148.639 161.996 148.572 160.633 148.595L152.415 148.706L144.845 148.818C143.505 148.84 142.098 148.952 140.758 148.885C140.334 148.863 140.11 148.818 139.775 148.55C139.552 148.215 139.552 148.014 139.552 147.634C139.753 147.255 139.842 147.232 140.2 147.054Z" fill="black"/>
<path d="M140.267 149.908L164.698 149.596C165.055 149.618 165.345 149.663 165.569 149.998C165.725 150.243 165.792 150.556 165.68 150.846C165.546 151.181 165.323 151.248 165.01 151.382L147.055 151.628L142.12 151.695C141.584 151.695 140.78 151.807 140.289 151.673C140.2 151.65 139.999 151.494 139.932 151.449C139.619 151.137 139.597 150.936 139.552 150.489C139.82 150.087 139.842 150.065 140.267 149.908Z" fill="black"/>
<path d="M139.934 152.807C140.425 152.629 141.229 152.74 141.765 152.718L145.784 152.673L160.635 152.495L163.873 152.45C164.253 152.45 164.856 152.361 165.213 152.539C165.57 152.696 165.615 152.941 165.749 153.276C165.66 153.701 165.593 153.768 165.325 154.058C165.213 154.125 165.079 154.17 164.945 154.214C164.432 154.326 163.762 154.259 163.226 154.281L159.787 154.326L145.36 154.505L141.787 154.549C141.296 154.549 140.648 154.639 140.179 154.549C140.023 154.527 139.978 154.482 139.844 154.393C139.688 154.125 139.554 153.902 139.554 153.589C139.532 153.232 139.71 153.053 139.934 152.807Z" fill="black"/>
<path d="M140.11 155.613C140.78 155.501 141.517 155.546 142.209 155.546L146.095 155.501C148.172 155.479 164.742 155.077 165.278 155.412C165.636 155.635 165.792 156.06 165.837 156.462C165.703 156.774 165.591 156.841 165.301 157.02C163.961 157.243 162.442 157.132 161.08 157.154L152.616 157.243L144.353 157.333C143.058 157.355 141.651 157.489 140.356 157.355C140.2 157.333 140.066 157.288 139.932 157.221C139.641 156.908 139.597 156.774 139.552 156.35C139.708 155.926 139.708 155.881 140.11 155.613Z" fill="black"/>
<path d="M139.976 158.437L140.11 158.415C141.026 158.259 142.142 158.37 143.058 158.37L149.959 158.326L159.718 158.192C161.37 158.169 163.067 158.058 164.72 158.125C165.01 158.147 165.211 158.169 165.457 158.37C165.792 158.638 165.859 158.817 165.881 159.241C165.703 159.599 165.591 159.71 165.234 159.934C164.452 160.112 163.425 159.978 162.621 159.978L157.395 160.023L146.966 160.157L141.048 160.246C140.624 160.246 140.289 160.224 139.909 160.023C139.708 159.777 139.552 159.532 139.552 159.174C139.574 158.772 139.731 158.683 139.976 158.437Z" fill="black"/>
<path d="M175.282 96.8711C176.265 97.4294 177.225 98.01 178.096 98.747C180.084 100.422 181.267 102.789 181.468 105.38C181.714 108.484 180.463 111.074 178.498 113.352C177.136 113.642 175.483 113.687 174.121 113.397L173.898 113.352C173.25 113.218 172.692 113.017 172.089 112.749C171.285 112.28 170.548 111.789 169.833 111.208C168.203 109.824 166.997 108.372 164.92 107.635C168.605 106.518 171.017 104.643 172.603 101.047C172.938 100.266 173.094 99.1936 173.54 98.5013C173.942 97.9207 174.769 97.3401 175.282 96.8711Z" fill="white"/>
<path d="M157.595 119.159C157.707 118.801 157.908 118.511 157.707 118.154C157.506 117.752 157.082 117.461 156.724 117.193C155.429 116.233 153.821 115.518 152.258 115.072L148.998 114.357L151.476 112.079C151.99 111.566 152.504 110.94 153.084 110.516C153.531 110.159 154.29 109.936 154.826 109.757C157.015 109.02 159.471 108.573 161.771 108.707C163.335 108.797 164.652 109.154 165.947 110.047C167.913 111.409 169.253 113.352 171.486 114.402C173.138 115.161 175.104 115.362 176.912 115.206C177.247 115.183 178.118 114.893 178.409 114.96C178.498 114.982 178.989 115.608 179.079 115.697C181.669 118.667 183.076 122.866 182.786 126.796C182.473 131.218 180.53 135.193 177.158 138.096C175.707 139.369 173.942 140.307 172.156 140.977C169.23 141.915 166.908 142.004 163.893 141.513C162.977 141.2 162.017 140.91 161.168 140.418C160.097 139.793 159.203 138.9 158.265 138.051L157.327 139.324C156.389 140.351 154.737 140.619 153.419 140.686C148.395 140.999 142.544 138.788 138.837 135.461C136.09 133.004 134.504 129.811 134.326 126.104C134.236 124.541 134.46 122.977 134.817 121.459C134.951 120.878 135.107 120.23 135.509 119.784C140.11 121.191 144.911 123.759 146.385 128.739C146.608 129.521 146.675 130.369 146.898 131.151C147.278 132.535 148.104 133.92 148.998 135.014C150.36 136.711 151.878 137.515 154.045 137.739C154.893 137.828 156.099 138.007 156.769 137.404C156.992 137.203 157.015 137.225 157.037 136.912C156.68 136.332 156.121 135.93 155.608 135.505L154.871 135.684C152.079 135.997 149.936 133.451 149.042 131.061C148.551 129.722 148.395 128.292 147.903 126.93C147.546 125.947 146.943 124.965 146.295 124.139C144.978 122.464 143.437 120.967 141.539 119.985C140.913 119.65 140.02 119.36 139.507 118.913C141.092 118.667 142.588 118.198 144.062 117.551C144.911 117.171 145.693 116.68 146.541 116.345C149.4 116.68 152.571 116.791 155.027 118.444C155.697 118.891 156.278 119.494 156.925 119.985L157.595 119.159Z" fill="white"/>
<path d="M129.1 76.1918L129.078 73.4226C129.078 73.244 129.011 72.7973 129.078 72.641C129.279 72.0604 129.971 71.3234 130.395 70.8768C132.427 68.7999 135.197 67.661 138.1 67.6387C140.824 67.6387 143.66 68.6883 145.581 70.6311L147.256 72.373C148.506 72.2167 149.802 72.0157 151.074 72.038C154.022 72.0827 157.149 73.11 159.494 74.9412C162.263 77.085 164.206 80.5465 164.63 84.0302C164.786 85.3925 164.876 87.1344 164.474 88.4743C164.317 89.0102 163.982 89.5909 163.982 90.1492C163.982 90.4395 164.049 90.7075 164.295 90.8861C164.563 91.0871 165.01 91.1541 165.345 91.0871C165.657 91.0201 165.769 90.9754 165.925 90.7075C166.662 89.5462 166.774 87.2237 166.774 85.9061C166.774 85.4818 166.394 81.5067 166.439 81.4621C169.096 81.8641 171.374 83.07 172.982 85.2362C174.545 87.3577 175.305 89.7472 174.88 92.3824C174.612 93.9902 174.121 95.3971 172.781 96.4244C172.468 96.6701 171.91 96.9604 171.664 97.273C171.463 97.5187 171.463 98.1216 171.374 98.4343C170.905 100.623 169.878 102.789 168.002 104.107C165.791 105.692 162.709 106.116 160.097 106.541L155.05 107.412C155.563 105.781 157.238 100.533 156.479 99.0149C156.367 98.7916 156.211 98.7023 156.032 98.5683C155.608 98.5013 155.318 98.5013 154.96 98.7693C154.759 98.9256 154.603 99.1712 154.536 99.4169C154.335 100.087 154.38 100.958 154.335 101.65C154.223 103.526 153.799 105.558 152.906 107.233C151.99 108.93 150.271 110.449 148.819 111.722C148.06 112.392 146.563 113.687 145.514 113.642L144.844 113.553L144.241 113.598C143.973 113.665 143.817 113.732 143.705 114C143.593 114.245 143.571 114.714 143.66 114.96C143.727 115.116 144.018 115.205 144.152 115.272L144.129 115.451C141.762 116.635 139.015 116.97 136.402 116.992C135.532 116.992 134.549 117.037 133.7 116.813C132.137 116.411 130.641 114.804 129.524 113.687L129.279 90.5958C129.279 89.5015 128.988 83.8516 129.368 83.1593C129.614 82.6903 130.105 82.4447 130.574 82.3107C131.043 82.1767 131.221 82.132 131.534 81.7524C131.556 81.4397 131.601 81.2834 131.445 80.9931C131.199 80.5241 130.82 80.3901 130.351 80.2338C129.904 80.3008 129.524 80.5241 129.122 80.7251L129.1 76.1918Z" fill="white"/>
<mask id="path-35-inside-4_0_1" fill="white">
<path d="M143.237 97.5898C144.152 97.6345 144.911 97.7685 145.715 98.2598C146.72 98.9074 147.323 99.89 147.547 101.051C147.77 102.213 147.591 103.329 146.877 104.312C146.117 105.361 145.157 105.808 143.929 106.009C142.924 106.009 142.053 105.942 141.182 105.361C140.199 104.691 139.462 103.619 139.261 102.414C139.083 101.275 139.395 100.069 140.065 99.1531C140.892 98.0365 141.986 97.7908 143.237 97.5898Z"/>
</mask>
<path d="M143.237 97.5898C144.152 97.6345 144.911 97.7685 145.715 98.2598C146.72 98.9074 147.323 99.89 147.547 101.051C147.77 102.213 147.591 103.329 146.877 104.312C146.117 105.361 145.157 105.808 143.929 106.009C142.924 106.009 142.053 105.942 141.182 105.361C140.199 104.691 139.462 103.619 139.261 102.414C139.083 101.275 139.395 100.069 140.065 99.1531C140.892 98.0365 141.986 97.7908 143.237 97.5898Z" stroke="black" stroke-width="2.759" mask="url(#path-35-inside-4_0_1)"/>
<path d="M149.891 76.3527C152.214 76.1294 154.76 76.9557 156.658 78.2733C159.047 79.9482 160.499 82.2707 160.99 85.1292C161.437 87.809 160.901 90.6228 159.293 92.8336C157.484 95.3125 154.827 96.4737 151.879 96.9427C149.177 97.032 146.921 96.5407 144.733 94.8658C142.41 93.1016 141.048 90.7568 140.668 87.876C140.333 85.3301 140.936 82.5833 142.544 80.5288C144.398 78.1616 146.899 76.7547 149.891 76.3527Z" fill="black"/>
<mask id="path-37-inside-5_0_1" fill="white">
<path d="M149.556 78.8755C150.36 78.7639 151.276 78.7415 152.08 78.8755L152.236 78.8978C152.884 79.0095 153.464 79.1882 154.067 79.4115C155.966 80.1708 157.261 81.533 158.087 83.3865C158.288 83.8555 158.444 84.2798 158.556 84.7711L158.601 84.9944C159.07 87.1606 158.757 89.3938 157.551 91.2697C156.368 93.1232 154.469 94.0835 152.393 94.5525C150.226 94.8874 147.747 94.4185 145.961 93.1009C144.219 91.8056 143.236 89.8628 142.946 87.7636L142.924 87.5849C142.678 85.8654 143.102 84.0342 143.996 82.5379L144.085 82.4039L144.264 82.1136C145.514 80.2824 147.435 79.2552 149.556 78.8755Z"/>
</mask>
<path d="M149.556 78.8755C150.36 78.7639 151.276 78.7415 152.08 78.8755L152.236 78.8978C152.884 79.0095 153.464 79.1882 154.067 79.4115C155.966 80.1708 157.261 81.533 158.087 83.3865C158.288 83.8555 158.444 84.2798 158.556 84.7711L158.601 84.9944C159.07 87.1606 158.757 89.3938 157.551 91.2697C156.368 93.1232 154.469 94.0835 152.393 94.5525C150.226 94.8874 147.747 94.4185 145.961 93.1009C144.219 91.8056 143.236 89.8628 142.946 87.7636L142.924 87.5849C142.678 85.8654 143.102 84.0342 143.996 82.5379L144.085 82.4039L144.264 82.1136C145.514 80.2824 147.435 79.2552 149.556 78.8755Z" fill="white" stroke="black" stroke-width="0.689751" mask="url(#path-37-inside-5_0_1)"/>
<path fill-rule="evenodd" clip-rule="evenodd" d="M109.136 80.7703L109.135 80.7691C111.168 80.5087 112.894 80.5485 114.897 80.9094L114.897 80.9279C115.679 81.1066 116.505 81.3746 117.242 81.7096C121.932 83.8311 125.237 87.6052 127.068 92.3842L126.889 77.9801C125.304 77.2879 123.383 76.9752 121.664 77.2432C121.45 77.2761 121.224 77.3332 120.995 77.3911C120.602 77.4905 120.199 77.5923 119.832 77.5782C119.497 77.5558 119.14 77.2655 118.984 76.9975C118.827 76.7519 118.805 76.3722 118.894 76.1043C119.006 75.7693 119.319 75.5683 119.631 75.4343C120.301 75.144 121.083 75.077 121.798 75.0547C123.606 74.9877 125.036 75.1887 126.733 75.7693L126.711 73.9157C126.701 73.8495 126.704 73.7311 126.706 73.6065C126.71 73.437 126.714 73.256 126.688 73.1788C126.624 72.9846 126.148 72.5675 125.806 72.2676C125.677 72.1537 125.566 72.0567 125.505 71.9952C123.584 70.097 121.128 68.4891 118.448 67.9308C117.294 67.7041 116.159 67.7056 114.99 67.7072L114.696 67.7075L114.696 67.7086C111.316 67.6124 108.254 69.5013 106.411 71.9732C106.21 72.2188 105.965 72.5315 105.92 72.8441C106.009 72.9761 106.118 73.1255 106.236 73.2874C106.796 74.0569 107.56 75.1063 107.394 75.8813L107.353 76.0637L107.349 76.0583C107.126 76.2816 106.902 76.4826 106.634 76.6612C105.823 77.2126 105 76.1147 104.319 75.2048L104.319 75.2048L104.319 75.2047C104.007 74.788 103.724 74.4107 103.486 74.2494C103.01 73.9324 102.394 73.8087 101.809 73.6913C101.734 73.6764 101.66 73.6615 101.587 73.6464C101.564 73.6516 101.541 73.6568 101.519 73.6623L101.566 73.6277C98.3053 73.2704 95.0225 73.8063 92.4097 75.9055C91.2037 76.8658 89.9978 78.295 89.4172 79.7466C89.2944 80.0578 89.2316 80.417 89.1683 80.7792C89.059 81.4046 88.9482 82.0386 88.5239 82.4488C88.1101 82.8483 87.5049 82.8284 86.9005 82.8086C86.5589 82.7974 86.2175 82.7862 85.9111 82.8507C81.8914 83.744 78.3629 86.6918 77.3357 90.7562L77.2687 90.9795C76.8667 92.5427 77.0007 94.5303 77.6483 96.0042C77.7697 95.9707 77.8903 95.9364 78.0105 95.9023L78.0106 95.9023C78.5319 95.7541 79.0468 95.6078 79.5912 95.5352C80.2165 95.4682 80.8418 95.4012 81.4671 95.3789C81.5258 95.3789 81.6131 95.3846 81.7112 95.391C81.9489 95.4066 82.2497 95.4263 82.3603 95.3789C82.5041 95.3214 82.8422 94.8937 83.1244 94.5367C83.2806 94.3391 83.4197 94.1632 83.4993 94.0836C84.0799 93.4807 84.7052 92.9224 85.3528 92.4088C87.2287 90.9125 89.3055 89.9969 91.5834 89.2823L91.5849 89.2557C93.8395 88.5193 95.8489 88.2962 98.2153 88.5418L99.0639 87.2242C101.409 83.7851 105.094 81.5742 109.136 80.7703ZM80.1048 109.916C80.5515 110.296 80.9535 110.385 81.5118 110.474L81.5787 110.541C81.6411 110.592 81.7015 110.644 81.7601 110.699C81.7225 110.657 81.6843 110.619 81.6454 110.586L81.5118 110.474L81.5114 110.474L81.6231 110.407C81.6671 110.383 81.711 110.36 81.7546 110.337C81.9545 110.231 82.1464 110.129 82.2931 109.983C82.427 109.826 82.628 109.514 82.5834 109.29C82.5249 109.071 82.3706 108.813 82.2271 108.574C82.1516 108.447 82.079 108.326 82.0251 108.218C81.5338 107.147 81.2881 105.918 81.2881 104.735C81.2658 101.229 82.8514 97.8341 85.3302 95.3776C87.742 92.9881 91.3151 91.2462 94.6649 90.7996C95.4152 90.6924 96.1656 90.6996 96.9159 90.7067C97.1035 90.7085 97.2911 90.7103 97.4787 90.7103C97.2107 91.8269 97.0321 92.9435 96.9874 94.0824C96.9204 96.4719 97.7914 98.6381 99.0866 100.603C99.1493 100.695 99.2121 100.79 99.2754 100.885C99.5502 101.298 99.836 101.728 100.181 102.055C100.404 102.278 100.761 102.434 101.096 102.412C101.454 102.39 101.789 102.234 101.99 101.943C102.168 101.698 102.28 101.184 102.191 100.871C102.077 100.384 101.633 99.8976 101.236 99.4621C101.087 99.2984 100.944 99.1419 100.828 98.9954C100.069 98.0128 99.4439 96.8292 99.2429 95.601L99.2206 95.3776C99.0196 94.2164 99.0643 93.0775 99.3769 91.9385C100.203 88.7897 102.392 86.0876 105.206 84.502C108.22 82.8048 111.592 82.3805 114.92 83.2961L114.943 83.3908L114.942 83.3163C119.118 84.5223 122.512 87.604 124.612 91.4005C125.795 93.5667 126.845 96.0678 127.18 98.5243C127.328 99.5806 127.306 100.71 127.284 101.814C127.277 102.203 127.269 102.59 127.269 102.968L127.336 111.521L127.448 124.965L127.559 133.697C125.84 133.719 124.612 133.563 123.026 132.893L123.021 132.24L123.004 132.873C122.948 132.843 122.891 132.812 122.834 132.782C122.259 132.476 121.662 132.158 121.195 131.712C120.549 131.109 120.152 130.339 119.755 129.57C119.535 129.143 119.314 128.716 119.051 128.317C117.22 125.481 114.138 123.985 110.922 123.382C109.806 123.181 108.488 123.292 107.394 123.538C104.424 124.23 102.012 125.704 100.315 128.295C99.5109 129.523 99.0196 130.908 98.7516 132.337C98.7416 132.397 98.7305 132.459 98.7193 132.522C98.6556 132.878 98.5864 133.265 98.6623 133.587C98.707 133.855 98.9303 134.123 99.1759 134.28C99.4439 134.458 99.7566 134.525 100.069 134.414C100.471 134.257 100.851 133.922 101.029 133.52C101.153 133.212 101.167 132.863 101.182 132.51C101.193 132.225 101.205 131.937 101.275 131.667C101.789 129.501 103.709 127.513 105.652 126.553C107.372 125.682 109.672 125.436 111.548 125.861L111.771 125.905C113.893 126.397 116.036 127.692 117.198 129.568C117.455 129.981 117.661 130.416 117.868 130.852C118.074 131.287 118.281 131.723 118.538 132.136C119.476 133.721 121.351 134.95 123.093 135.463L123.101 135.495L123.16 135.507C124.634 135.886 126.22 135.953 127.738 135.864L127.85 146.941C126.293 148.119 125.09 148.744 123.161 149.124C123.161 149.126 123.161 149.128 123.16 149.13C122.312 149.13 121.552 149.063 120.748 148.818C118.56 148.192 115.992 146.093 115.567 143.748C115.499 143.353 115.529 142.825 115.561 142.277C115.612 141.401 115.665 140.474 115.322 139.952C115.143 139.662 114.808 139.483 114.473 139.461C114.004 139.438 113.736 139.617 113.424 139.907C113.157 140.346 113.183 140.817 113.21 141.307C113.215 141.391 113.219 141.475 113.223 141.56C113.223 141.783 113.224 142.006 113.225 142.229C113.23 142.9 113.234 143.575 113.2 144.262L113.178 144.441C113.058 144.361 112.938 144.284 112.818 144.209C112.916 144.282 113.013 144.351 113.111 144.417C112.753 145.824 112.016 146.896 110.721 147.633C110.087 148.001 109.36 148.144 108.641 148.286C108.575 148.299 108.509 148.312 108.443 148.325C108.378 148.339 108.306 148.352 108.231 148.366C107.944 148.417 107.606 148.478 107.394 148.638C106.993 148.963 106.712 149.505 106.432 150.045C106.212 150.469 105.994 150.892 105.719 151.206C103.106 154.288 98.5055 155.762 94.6197 154.578C92.3196 153.886 90.4437 152.188 89.3494 150.067L88.9028 149.084L88.4785 147.566C90.9127 147.275 92.6992 146.65 94.8654 145.534C95.2897 145.623 96.0043 145.757 96.4286 145.601C96.9423 145.4 97.2326 145.02 97.5006 144.551L97.4559 143.747C97.1209 143.144 96.6296 142.697 95.8927 142.764C95.0978 142.832 94.2644 143.271 93.4994 143.674L93.4993 143.674C93.2542 143.803 93.0161 143.929 92.7885 144.037C90.064 145.333 86.6026 145.735 83.7218 144.774C81.444 144.037 79.0321 142.452 77.9155 140.174C78.6527 140.556 79.3617 140.88 80.0696 141.127C79.3841 140.883 78.6968 140.568 77.983 140.198C76.7771 138.433 76.4644 136.357 76.7324 134.28C79.8589 135.218 82.829 134.905 85.7992 133.654C85.8911 133.762 85.9804 133.885 86.0706 134.009C86.2435 134.247 86.42 134.49 86.6254 134.637C86.8934 134.816 87.2061 134.816 87.4964 134.771C87.8983 134.704 88.3003 134.458 88.5236 134.101C88.6353 133.9 88.7246 133.721 88.7023 133.498C88.6675 133.132 88.4289 132.712 88.2196 132.344C88.1606 132.24 88.1038 132.14 88.0547 132.047C87.742 131.444 87.4964 130.841 87.3401 130.171L87.2954 129.97C87.0051 128.764 86.9157 127.58 87.0497 126.352L87.1614 125.459C87.943 121.327 91.3374 117.33 95.5582 116.548C96.011 116.47 96.8746 116.47 97.7983 116.469C99.2434 116.469 100.835 116.468 101.23 116.169C101.431 116.012 101.588 115.856 101.61 115.61C101.632 115.231 101.61 114.918 101.364 114.628C100.816 113.951 99.5797 114.068 98.6346 114.157C98.4249 114.177 98.2296 114.195 98.0593 114.203C97.367 114.226 96.6971 114.181 96.0048 114.114C93.8386 113.868 92.0744 112.662 90.7568 110.988C89.9305 109.916 89.2606 108.509 89.2606 107.147C89.2606 106.815 89.3079 106.499 89.3557 106.18C89.3883 105.962 89.4211 105.743 89.4392 105.516C89.4839 105.047 89.4616 104.668 89.0819 104.31C88.8809 104.109 88.5236 104.02 88.2333 104.042C87.943 104.065 87.675 104.199 87.474 104.4C86.7818 105.204 86.8487 106.812 86.9827 107.816C87.474 111.144 89.5286 113.332 92.0967 115.298L90.3995 116.347C90.3645 116.345 90.3295 116.342 90.2945 116.339L88.1666 118.357C87.8204 118.386 87.4648 118.331 87.1119 118.277C86.9186 118.247 86.7261 118.217 86.5364 118.201C86.2004 118.18 85.8748 118.163 85.5575 118.147H85.5575H85.5574C83.5547 118.043 81.8793 117.957 79.9709 116.839C79.6032 116.622 79.2634 116.377 78.9246 116.133L78.9246 116.133L78.9246 116.133L78.9245 116.133C78.4607 115.799 77.9988 115.467 77.4697 115.209L77.3357 115.142C78.2513 113.891 79.3232 112.261 79.7922 110.765L80.1048 109.916ZM92.3794 136.346C92.5977 136.476 92.8153 136.608 93.0332 136.74C93.9986 137.324 94.9695 137.913 96.0267 138.343C97.1582 138.797 98.3723 139.059 99.6179 139.197C98.3952 139.059 97.2036 138.804 96.0941 138.366C94.9156 137.887 93.8442 137.229 92.7682 136.568C92.6413 136.49 92.5143 136.412 92.387 136.334C92.3845 136.338 92.382 136.342 92.3794 136.346ZM107.902 139.043C107.955 139.07 108.019 139.119 108.09 139.183C108.038 139.119 107.992 139.076 107.952 139.059C107.939 139.053 107.922 139.047 107.902 139.043ZM78.563 118.715C80.1262 119.452 81.7341 120.122 83.4537 120.367C84.2258 120.468 85.0484 120.455 85.8551 120.443C86.1216 120.438 86.3864 120.434 86.6471 120.434C85.0615 123.583 84.2129 126.531 84.9946 130.082L85.2849 131.444C81.8904 132.717 78.6746 133.074 75.2579 131.533C74.3199 131.109 73.4937 130.528 72.7344 129.836C72.796 129.796 72.8577 129.752 72.9195 129.707C72.8448 129.753 72.7755 129.797 72.7128 129.838C70.7923 127.985 69.8543 125.618 69.765 122.96C69.698 120.727 70.5243 118.516 71.9312 116.797C72.3074 116.334 72.7587 115.899 73.2059 115.468L73.2059 115.468C73.4489 115.233 73.6908 115 73.9187 114.764C73.7382 114.452 73.5555 114.146 73.3749 113.845L73.3748 113.845C72.5502 112.468 71.7696 111.165 71.4399 109.516L71.3952 109.316C70.9486 107.038 71.5962 104.581 72.7798 102.638C74.8343 99.3108 77.5365 98.1942 81.1543 97.3456C78.7424 101.187 78.4074 105.742 80.0823 109.941L79.7697 110.789C79.3007 112.286 78.2511 113.894 77.3132 115.166C77.2705 115.181 77.227 115.195 77.1832 115.209C76.8144 115.327 76.4185 115.455 76.2189 115.814C76.0279 116.154 76.0386 116.352 76.0593 116.735L76.0626 116.797C76.5747 117.574 77.6755 118.234 78.5566 118.743L78.563 118.715ZM121.839 151.318L121.619 151.318L121.731 151.34C122.307 151.429 122.861 151.408 123.437 151.385L123.45 151.385C123.309 151.603 123.17 151.822 123.031 152.042L123.031 152.042C122.401 153.036 121.772 154.027 120.949 154.869C119.453 156.432 116.795 157.616 114.718 158.085C114.073 158.226 113.406 158.305 112.734 158.348C113.399 158.304 114.058 158.226 114.696 158.086C116.773 157.617 119.408 156.411 120.927 154.87C121.812 153.985 122.465 152.934 123.115 151.888L123.115 151.888L123.242 151.684C123.304 151.585 123.366 151.485 123.428 151.386L123.415 151.387C122.839 151.409 122.285 151.43 121.709 151.342L121.597 151.319C119.007 151.007 116.55 149.801 114.92 147.702L114.696 147.411C114.647 147.348 114.622 147.311 114.605 147.286C114.568 147.23 114.566 147.228 114.428 147.121C112.888 149.176 111.525 150.069 108.957 150.56C107.885 152.391 106.791 153.642 105.138 154.982C105.186 155.123 105.232 155.267 105.279 155.411L105.279 155.411L105.279 155.412C105.586 156.357 105.903 157.336 106.523 158.131C106.942 158.264 107.393 158.332 107.849 158.367C107.383 158.333 106.925 158.264 106.5 158.129C106.769 158.624 107.227 159.081 107.63 159.483L107.729 159.581C110.14 161.926 113.446 163.377 116.84 163.31C120.1 163.243 123.182 162.104 125.46 159.737C126.845 158.286 127.738 156.454 128.006 154.467C128.168 153.347 128.118 152.097 128.07 150.898C128.052 150.447 128.034 150.003 128.028 149.576L128.028 149.576C127.47 149.911 126.912 150.246 126.309 150.492L124.835 151.005L124.611 151.072C123.699 151.321 122.787 151.32 121.839 151.318Z" fill="white"/>
<path d="M105.964 106.32C107.193 106.029 108.979 106.208 110.163 106.588C112.016 107.168 113.691 108.553 114.562 110.295C115.232 111.657 115.344 113.109 115.366 114.583C115.366 115.029 115.433 115.61 115.254 116.034C115.076 116.414 114.83 116.503 114.495 116.682C114.182 116.771 113.825 116.726 113.557 116.548C113.378 116.436 113.177 116.213 113.11 115.989C113.043 115.744 113.11 115.275 113.088 114.985C113.066 114.024 113.088 112.885 112.775 111.992L112.708 111.858C112.552 111.478 112.396 111.121 112.173 110.786C111.458 109.759 110.319 108.91 109.091 108.665L108.934 108.642C108.041 108.464 106.121 108.888 105.495 108.218C105.25 107.95 105.138 107.57 105.227 107.213C105.317 106.722 105.607 106.565 105.964 106.32Z" fill="black"/>
<path d="M185.049 121.442L210.374 121.129C210.106 122 210.016 122.714 210.173 123.63C209.168 123.518 208.118 123.585 207.091 123.585L202.066 123.63L185.809 123.809C185.63 123.005 185.317 122.223 185.049 121.442Z" fill="black"/>
<circle cx="214.684" cy="122.469" r="3.44875" stroke="black" stroke-width="1.72438"/>
<path d="M185.496 132.681C185.742 132.435 185.786 132.145 186.01 131.899C186.121 131.787 186.077 131.81 186.255 131.81L210.284 131.475C209.994 132.323 209.838 133.038 209.86 133.931L185.049 134.154L185.496 132.681Z" fill="black"/>
<circle cx="214.595" cy="132.815" r="3.44875" stroke="black" stroke-width="1.72438"/>
<circle cx="36.8437" cy="151.899" r="3.44875" stroke="black" stroke-width="1.72438"/>
<rect x="40.094" y="150.816" width="42.4197" height="2.16725" fill="black"/>
<circle cx="37.0431" cy="164.842" r="3.44875" stroke="black" stroke-width="1.72438"/>
<rect x="40.0942" y="163.641" width="56.3486" height="2.16725" fill="black"/>
</svg>
