<svg width="30" height="22" viewBox="0 0 30 22" fill="none" xmlns="http://www.w3.org/2000/svg">
<path d="M21.5 6.63875V5.5C21.5 2.69625 16.8875 0.5 11 0.5C5.1125 0.5 0.5 2.69625 0.5 5.5V10.5C0.5 12.8925 3.8575 14.84 8.5 15.3612V16.5C8.5 19.3038 13.1125 21.5 19 21.5C24.8875 21.5 29.5 19.3038 29.5 16.5V11.5C29.5 9.14 26.2337 7.17125 21.5 6.63875ZM28.5 11.5C28.5 13.4312 24.6825 15.5 19 15.5C17.8272 15.5018 16.6563 15.4039 15.5 15.2075V15.0338C19.0763 14.245 21.5 12.5338 21.5 10.5V7.64625C25.5275 8.125 28.5 9.74125 28.5 11.5ZM12.5238 14.4487C12.0329 14.4829 11.525 14.5 11 14.5C10.3163 14.5 9.66 14.4687 9.03375 14.4137H9C8.48 14.3662 7.98 14.3013 7.5 14.2188V10.225C8.65741 10.4104 9.82785 10.5023 11 10.5C12.1722 10.5023 13.3426 10.4104 14.5 10.225V14.215C13.8576 14.3247 13.2101 14.4018 12.56 14.4463L12.5238 14.4487ZM20.5 7.665V10.5C20.5 11.86 18.605 13.2875 15.5 14.0138V10.0337C17.7037 9.5475 19.4688 8.71125 20.5 7.665ZM11 1.5C16.6825 1.5 20.5 3.56875 20.5 5.5C20.5 7.43125 16.6825 9.5 11 9.5C5.3175 9.5 1.5 7.43125 1.5 5.5C1.5 3.56875 5.3175 1.5 11 1.5ZM1.5 10.5V7.665C2.53125 8.71125 4.29625 9.5475 6.5 10.04V14.02C3.395 13.2875 1.5 11.86 1.5 10.5ZM9.5 16.5V15.45C9.98875 15.4825 10.49 15.5 11 15.5C11.51 15.5 12.0075 15.4825 12.5 15.4513C13.1529 15.6888 13.8211 15.8822 14.5 16.03V20.0138C11.395 19.2875 9.5 17.86 9.5 16.5ZM15.5 20.215V16.2213C16.6573 16.4081 17.8277 16.5013 19 16.5C20.1722 16.5023 21.3426 16.4104 22.5 16.225V20.215C20.1821 20.595 17.8179 20.595 15.5 20.215ZM28.5 16.5C28.5 17.86 26.605 19.2875 23.5 20.0138V16.0338C25.7037 15.5475 27.4688 14.7113 28.5 13.6588V16.5Z" fill="#343330"/>
</svg>
