<svg width="271" height="238" viewBox="0 0 271 238" fill="none" xmlns="http://www.w3.org/2000/svg">
<g clip-path="url(#clip0_1488_29093)">
<rect x="14.1279" y="33" width="251.371" height="172.483" rx="10.7728" fill="white"/>
<circle cx="29.1693" cy="46.6247" r="5.38638" fill="#24292F"/>
<circle cx="41.7377" cy="46.6247" r="5.38638" fill="#24292F"/>
<circle cx="54.3058" cy="46.6247" r="5.38638" fill="#24292F"/>
<rect x="14.0554" y="56.1016" width="251.365" height="1.79546" fill="#24292F"/>
<g clip-path="url(#clip1_1488_29093)">
<path d="M185.364 157.473C184.352 145.324 181.051 133.476 175.633 122.555C170.444 112.686 162.967 104.203 153.827 97.816L162.108 79.5636C162.375 79.0181 162.493 78.4118 162.451 77.806C162.408 77.2001 162.207 76.6162 161.867 76.1132C161.552 75.672 161.139 75.3109 160.659 75.0591C160.18 74.8074 159.648 74.672 159.106 74.6641H102.762C102.182 74.6626 101.611 74.8075 101.102 75.0851C100.592 75.3628 100.161 75.7644 99.8483 76.2528C99.5353 76.7411 99.3505 77.3005 99.3109 77.8792C99.2714 78.4579 99.3784 79.0372 99.622 79.5636L108.075 97.885C98.9999 104.275 91.5731 112.731 86.4071 122.555C78.9888 136.357 76.6771 153.229 76.056 164.926C75.9543 166.638 76.2084 168.353 76.8022 169.962C77.3961 171.571 78.3168 173.04 79.5064 174.276C80.7578 175.489 82.2384 176.44 83.8617 177.074C85.4849 177.708 87.2183 178.012 88.9604 177.968H110.353V171.274H88.6844C87.9035 171.272 87.1312 171.112 86.4137 170.803C85.6963 170.495 85.0486 170.045 84.5094 169.48C83.9695 168.92 83.5524 168.253 83.2851 167.522C83.0177 166.791 82.9059 166.013 82.9568 165.236C83.4398 156.231 85.3375 139.082 92.4798 125.729C97.5146 116.162 104.96 108.074 114.079 102.267H117.529C115.192 105.502 113.038 108.866 111.077 112.342C109.084 116.043 107.388 119.897 106.005 123.866L110.732 127.041C112.129 122.921 113.848 118.918 115.873 115.068C118.359 110.591 121.185 106.311 124.327 102.267H127.777C130.09 107.8 131.724 113.593 132.642 119.519C133.392 123.918 133.762 128.374 133.746 132.837L139.198 129.007C139.047 125.537 138.678 122.08 138.094 118.656C137.164 113.061 135.684 107.572 133.677 102.267H136.368L139.508 95.3662H114.528L108.144 81.5648H153.724L145.098 100.438C146.576 101.231 147.994 102.131 149.342 103.13C157.798 108.959 164.732 116.733 169.561 125.798C174.4 135.736 177.404 146.467 178.428 157.473H185.364Z" fill="black"/>
<path d="M129.462 151.733C137.378 151.733 143.794 148.977 143.794 145.58C143.794 142.183 137.378 139.426 129.462 139.426C121.546 139.426 115.13 142.183 115.13 145.58C115.13 148.977 121.546 151.733 129.462 151.733ZM129.462 161.573C123.992 161.573 119.155 160.217 116.104 158.124C115.483 158.816 115.13 159.56 115.13 160.344C115.13 163.741 121.546 166.498 129.462 166.498C137.378 166.498 143.794 163.741 143.794 160.344C143.794 159.56 143.442 158.816 142.82 158.129C139.769 160.217 134.932 161.573 129.462 161.573ZM129.462 154.19C123.992 154.19 119.155 152.835 116.104 150.741C115.483 151.433 115.13 152.177 115.13 152.962C115.13 156.359 121.546 159.116 129.462 159.116C137.378 159.116 143.794 156.359 143.794 152.962C143.794 152.177 143.442 151.433 142.82 150.747C139.769 152.835 134.932 154.19 129.462 154.19Z" fill="black"/>
<path d="M129.462 175.42C123.992 175.42 119.155 174.105 116.104 172.072C115.483 172.744 115.13 173.466 115.13 174.228C115.13 177.525 121.546 180.201 129.462 180.201C137.378 180.201 143.794 177.525 143.794 174.228C143.794 173.466 143.442 172.744 142.82 172.078C139.769 174.105 134.932 175.42 129.462 175.42ZM129.462 168.254C123.992 168.254 119.155 166.939 116.104 164.906C115.483 165.578 115.13 166.3 115.13 167.062C115.13 170.359 121.546 173.035 129.462 173.035C137.378 173.035 143.794 170.359 143.794 167.062C143.794 166.3 143.442 165.578 142.82 164.912C139.769 166.939 134.932 168.254 129.462 168.254Z" fill="black"/>
<path d="M162.904 166.065C170.82 166.065 177.236 163.309 177.236 159.912C177.236 156.515 170.82 153.758 162.904 153.758C154.988 153.758 148.572 156.515 148.572 159.912C148.572 163.309 154.988 166.065 162.904 166.065ZM162.904 175.905C157.434 175.905 152.597 174.549 149.546 172.456C148.924 173.148 148.572 173.892 148.572 174.676C148.572 178.073 154.988 180.83 162.904 180.83C170.82 180.83 177.236 178.073 177.236 174.676C177.236 173.892 176.884 173.148 176.262 172.461C173.211 174.549 168.374 175.905 162.904 175.905ZM162.904 168.522C157.434 168.522 152.597 167.167 149.546 165.073C148.924 165.765 148.572 166.509 148.572 167.294C148.572 170.691 154.988 173.448 162.904 173.448C170.82 173.448 177.236 170.691 177.236 167.294C177.236 166.509 176.884 165.765 176.262 165.079C173.211 167.167 168.374 168.522 162.904 168.522Z" fill="black"/>
</g>
<path d="M196.346 172.435C204.263 172.435 210.679 169.678 210.679 166.281C210.679 162.884 204.263 160.127 196.346 160.127C188.43 160.127 182.014 162.884 182.014 166.281C182.014 169.678 188.43 172.435 196.346 172.435ZM196.346 174.891C190.877 174.891 186.04 173.536 182.988 171.443C182.367 172.135 182.014 172.879 182.014 173.663C182.014 177.06 188.43 179.817 196.346 179.817C204.263 179.817 210.679 177.06 210.679 173.663C210.679 172.879 210.326 172.135 209.705 171.448C206.653 173.536 201.816 174.891 196.346 174.891Z" fill="black"/>
</g>
<rect x="15.0257" y="33.8977" width="249.575" height="170.688" rx="9.87504" stroke="black" stroke-width="1.79546"/>
<rect x="14.0156" y="139" width="12.6739" height="26" fill="white"/>
<path d="M27.1856 149.325C26.6972 148.841 26.192 148.343 26.0016 147.905C25.8254 147.504 25.815 146.84 25.8047 146.196C25.7852 144.999 25.7645 143.642 24.7683 142.699C23.7721 141.756 22.3394 141.736 21.0751 141.718C20.395 141.708 19.6929 141.698 19.2693 141.531C18.8081 141.351 18.2809 140.872 17.7705 140.41C16.8767 139.597 15.8611 138.676 14.5086 138.676C13.1562 138.676 12.1419 139.597 11.2468 140.41C10.7364 140.872 10.2105 141.351 9.74799 141.531C9.32698 141.698 8.62228 141.708 7.94218 141.718C6.67786 141.736 5.24513 141.756 4.24896 142.699C3.25278 143.642 3.23854 144.999 3.21263 146.196C3.20226 146.84 3.1919 147.504 3.01572 147.905C2.8253 148.342 2.32009 148.841 1.83172 149.325C0.972856 150.171 0 151.132 0 152.413C0 153.693 0.972856 154.654 1.83172 155.501C2.32009 155.985 2.8253 156.483 3.01572 156.92C3.1919 157.321 3.20226 157.986 3.21263 158.63C3.23206 159.827 3.25278 161.184 4.24896 162.127C5.24513 163.07 6.67786 163.09 7.94218 163.108C8.62228 163.118 9.32439 163.128 9.74799 163.295C10.2092 163.475 10.7364 163.953 11.2468 164.416C12.1406 165.229 13.1562 166.15 14.5086 166.15C15.8611 166.15 16.8754 165.229 17.7705 164.416C18.2809 163.953 18.8068 163.475 19.2693 163.295C19.6929 163.128 20.395 163.118 21.0751 163.108C22.3394 163.09 23.7721 163.07 24.7683 162.127C25.7645 161.184 25.7852 159.827 25.8047 158.63C25.815 157.986 25.8254 157.321 26.0016 156.92C26.192 156.484 26.6972 155.985 27.1856 155.501C28.0444 154.655 29.0173 153.693 29.0173 152.413C29.0173 151.132 28.0444 150.172 27.1856 149.325ZM25.6894 154.144C25.0689 154.757 24.4263 155.391 24.0856 156.17C23.7592 156.918 23.7449 157.773 23.732 158.601C23.719 159.459 23.7048 160.358 23.3019 160.739C22.899 161.119 21.956 161.134 21.044 161.146C20.1696 161.158 19.2667 161.172 18.4765 161.481C17.6539 161.803 16.9842 162.412 16.3365 162.999C15.6888 163.587 15.0268 164.188 14.5086 164.188C13.9905 164.188 13.3233 163.584 12.6808 162.999C12.0383 162.414 11.3634 161.803 10.5408 161.481C9.75058 161.172 8.84768 161.158 7.97328 161.146C7.06649 161.134 6.11695 161.12 5.71537 160.739C5.31379 160.357 5.29824 159.464 5.28529 158.601C5.27234 157.773 5.25809 156.918 4.93164 156.17C4.59095 155.391 3.94842 154.757 3.32792 154.144C2.70742 153.53 2.07266 152.904 2.07266 152.413C2.07266 151.922 2.71001 151.291 3.32792 150.682C3.94583 150.074 4.59095 149.435 4.93164 148.656C5.25809 147.908 5.27234 147.053 5.28529 146.225C5.29824 145.367 5.31249 144.467 5.71537 144.087C6.11824 143.707 7.0613 143.692 7.97328 143.68C8.84768 143.668 9.75058 143.654 10.5408 143.345C11.3634 143.023 12.0331 142.414 12.6808 141.827C13.3285 141.239 13.9905 140.638 14.5086 140.638C15.0268 140.638 15.6939 141.242 16.3365 141.827C16.979 142.412 17.6539 143.023 18.4765 143.345C19.2667 143.654 20.1696 143.668 21.044 143.68C21.9508 143.692 22.9003 143.706 23.3019 144.087C23.7035 144.469 23.719 145.362 23.732 146.225C23.7449 147.053 23.7592 147.908 24.0856 148.656C24.4263 149.435 25.0689 150.069 25.6894 150.682C26.3099 151.296 26.9446 151.922 26.9446 152.413C26.9446 152.904 26.3073 153.535 25.6894 154.144ZM20.4235 148.775C20.5199 148.866 20.5963 148.974 20.6484 149.093C20.7006 149.213 20.7274 149.34 20.7274 149.469C20.7274 149.598 20.7006 149.726 20.6484 149.845C20.5963 149.964 20.5199 150.072 20.4235 150.163L13.1692 157.032C13.0729 157.123 12.9586 157.196 12.8328 157.245C12.707 157.294 12.5722 157.32 12.436 157.32C12.2998 157.32 12.1649 157.294 12.0391 157.245C11.9133 157.196 11.799 157.123 11.7028 157.032L8.59378 154.088C8.39932 153.904 8.29008 153.655 8.29008 153.394C8.29008 153.134 8.39932 152.884 8.59378 152.7C8.78824 152.516 9.05198 152.412 9.32698 152.412C9.60199 152.412 9.86573 152.516 10.0602 152.7L12.436 154.951L18.9571 148.775C19.0533 148.684 19.1676 148.611 19.2934 148.562C19.4193 148.513 19.5541 148.487 19.6903 148.487C19.8265 148.487 19.9613 148.513 20.0872 148.562C20.213 148.611 20.3273 148.684 20.4235 148.775Z" fill="#343330"/>
<defs>
<clipPath id="clip0_1488_29093">
<rect x="14.1279" y="33" width="251.371" height="172.483" rx="10.7728" fill="white"/>
</clipPath>
<clipPath id="clip1_1488_29093">
<rect width="124.213" height="124.213" fill="white" transform="translate(68.9482 67.7617)"/>
</clipPath>
</defs>
</svg>
