<svg width="54" height="75" viewBox="0 0 54 75" fill="none" xmlns="http://www.w3.org/2000/svg">
<path d="M46.2824 29.8945C47.265 30.4528 48.2253 31.0335 49.0962 31.7704C51.0837 33.4453 52.2673 35.8125 52.4683 38.403C52.7139 41.5071 51.4634 44.0976 49.4982 46.3754C48.1359 46.6657 46.4834 46.7104 45.1211 46.4201L44.8978 46.3754C44.2502 46.2414 43.6919 46.0405 43.0889 45.7725C42.285 45.3035 41.548 44.8122 40.8334 44.2316C39.2032 42.847 37.9973 41.3954 35.9204 40.6585C39.6052 39.5419 42.017 37.666 43.6026 34.0706C43.9375 33.289 44.0939 32.217 44.5405 31.5248C44.9425 30.9441 45.7688 30.3635 46.2824 29.8945Z" fill="white"/>
<path d="M28.5954 52.182C28.707 51.8247 28.908 51.5344 28.707 51.1771C28.5061 50.7751 28.0817 50.4848 27.7244 50.2168C26.4292 49.2565 24.8213 48.5419 23.2581 48.0953L19.9976 47.3806L22.4765 45.1028C22.9901 44.5892 23.5037 43.9639 24.0844 43.5396C24.531 43.1823 25.2903 42.9589 25.8262 42.7803C28.0148 42.0433 30.4713 41.5967 32.7714 41.7307C34.3347 41.82 35.6522 42.1773 36.9475 43.0706C38.9127 44.4328 40.2526 46.3757 42.4858 47.4253C44.1383 48.1846 46.1035 48.3856 47.9124 48.2293C48.2474 48.2069 49.1183 47.9166 49.4087 47.9836C49.498 48.0059 49.9893 48.6312 50.0786 48.7206C52.6691 51.6907 54.076 55.8891 53.7857 59.8195C53.473 64.2412 51.5302 68.2163 48.1581 71.1194C46.7065 72.3923 44.9423 73.3302 43.1557 74.0002C40.2303 74.9381 37.9078 75.0275 34.893 74.5362C33.9774 74.2235 33.0171 73.9332 32.1685 73.4419C31.0966 72.8166 30.2033 71.9233 29.2653 71.0747L28.3274 72.3476C27.3895 73.3749 25.7369 73.6429 24.4193 73.7099C19.3947 74.0225 13.5437 71.8117 9.83664 68.4842C7.08982 66.0277 5.50426 62.8343 5.32561 59.1272C5.23628 57.564 5.4596 56.0007 5.81691 54.4822C5.9509 53.9015 6.10722 53.2539 6.50919 52.8073C11.1095 54.2142 15.9109 56.7824 17.3848 61.7624C17.6081 62.544 17.6751 63.3926 17.8984 64.1742C18.2781 65.5588 19.1044 66.9433 19.9976 68.0376C21.3599 69.7348 22.8784 70.5388 25.0446 70.7621C25.8932 70.8514 27.0991 71.0301 27.7691 70.4271C27.9924 70.2261 28.0148 70.2484 28.0371 69.9358C27.6798 69.3552 27.1215 68.9532 26.6078 68.5289L25.8709 68.7075C23.0794 69.0202 20.9356 66.4744 20.0423 64.0849C19.551 62.745 19.3947 61.3157 18.9034 59.9535C18.5461 58.9709 17.9431 57.9883 17.2955 57.162C15.9779 55.4871 14.437 53.9909 12.5388 53.0083C11.9135 52.6733 11.0202 52.383 10.5066 51.9363C12.0922 51.6907 13.5884 51.2217 15.0623 50.5741C15.9109 50.1945 16.6925 49.7032 17.5411 49.3682C20.3996 49.7032 23.5707 49.8148 26.0272 51.4674C26.6972 51.914 27.2778 52.517 27.9254 53.0083L28.5954 52.182Z" fill="white"/>
<path d="M0.0999537 9.21521L0.0776273 6.44605C0.0776273 6.2674 0.0106318 5.82076 0.0776273 5.66444C0.278614 5.08381 0.970906 4.34686 1.39521 3.90023C3.42741 1.82336 6.19656 0.684441 9.0997 0.662109C11.8242 0.662109 14.6603 1.7117 16.5809 3.65457L18.2558 5.39646C19.5063 5.24014 20.8016 5.03915 22.0745 5.06148C25.0223 5.10615 28.1488 6.13341 30.4936 7.96462C33.2627 10.1085 35.2056 13.5699 35.6299 17.0537C35.7862 18.4159 35.8756 20.1578 35.4736 21.4977C35.3173 22.0337 34.9823 22.6143 34.9823 23.1726C34.9823 23.4629 35.0493 23.7309 35.2949 23.9096C35.5629 24.1105 36.0096 24.1775 36.3445 24.1105C36.6572 24.0435 36.7688 23.9989 36.9252 23.7309C37.6621 22.5696 37.7738 20.2471 37.7738 18.9296C37.7738 18.5053 37.3941 14.5302 37.4388 14.4855C40.0963 14.8875 42.3741 16.0934 43.982 18.2596C45.5452 20.3811 46.3045 22.7706 45.8802 25.4058C45.6122 27.0137 45.1209 28.4206 43.781 29.4478C43.4684 29.6935 42.9101 29.9838 42.6644 30.2965C42.4635 30.5421 42.4635 31.1451 42.3741 31.4577C41.9052 33.6462 40.8779 35.8124 39.002 37.13C36.7912 38.7156 33.7094 39.1399 31.0966 39.5642L26.0496 40.4351C26.5632 38.8049 28.2381 33.5569 27.4788 32.0383C27.3671 31.815 27.2108 31.7257 27.0322 31.5917C26.6079 31.5247 26.3175 31.5247 25.9602 31.7927C25.7592 31.949 25.6029 32.1947 25.5359 32.4403C25.3349 33.1103 25.3796 33.9812 25.3349 34.6735C25.2233 36.5494 24.799 38.5816 23.9057 40.2565C22.9901 41.9537 21.2705 43.4722 19.819 44.7452C19.0597 45.4151 17.5635 46.7104 16.5139 46.6657L15.8439 46.5764L15.241 46.621C14.973 46.688 14.8166 46.755 14.705 47.023C14.5933 47.2687 14.571 47.7376 14.6603 47.9833C14.7273 48.1396 15.0176 48.2289 15.1516 48.2959L15.1293 48.4746C12.7621 49.6582 10.0153 49.9931 7.40247 50.0155C6.53153 50.0155 5.54893 50.0601 4.70032 49.8368C3.13709 49.4348 1.64086 47.827 0.524264 46.7104L0.278619 23.6192C0.278619 22.525 -0.0117027 16.875 0.367939 16.1827C0.613589 15.7138 1.10489 15.4681 1.57386 15.3341C2.04283 15.2001 2.22148 15.1555 2.53413 14.7758C2.55646 14.4632 2.60112 14.3069 2.4448 14.0166C2.19915 13.5476 1.81951 13.4136 1.35054 13.2573C0.903908 13.3243 0.524267 13.5476 0.122294 13.7486L0.0999537 9.21521Z" fill="white"/>
</svg>
