<svg width="57" height="97" viewBox="0 0 57 97" fill="none" xmlns="http://www.w3.org/2000/svg">
<path d="M8.10485 42.9395C8.55148 43.3191 8.95345 43.4084 9.51175 43.4977L9.57874 43.5647C10.271 44.123 10.7177 44.9716 11.2983 45.6416C13.0625 47.6515 15.653 49.1254 18.3328 49.3264L16.1666 51.3809C15.6307 51.4255 15.0724 51.2692 14.5364 51.2246C12.0799 51.0682 10.1817 51.1576 7.97085 49.8623C7.09991 49.3487 6.38529 48.6787 5.46969 48.2321L5.33569 48.1651C6.2513 46.9145 7.32323 45.2843 7.7922 43.7881L8.10485 42.9395Z" fill="white"/>
<path d="M51.0486 68.5078L51.1602 68.5301C52.6341 68.9098 54.2197 68.9768 55.7383 68.8875L55.8499 79.964C54.2867 81.1476 53.0808 81.7729 51.1379 82.1526C51.3166 80.6787 51.1826 79.0261 51.1602 77.5299L51.0486 68.5078Z" fill="white"/>
<path d="M6.56298 51.7383C8.12621 52.4752 9.73411 53.1452 11.4537 53.3908C12.4809 53.5248 13.5975 53.4578 14.6471 53.4578C13.0615 56.6066 12.2129 59.5544 12.9946 63.1052L13.2849 64.4674C9.89043 65.7403 6.67464 66.0977 3.25787 64.5568C2.31993 64.1325 1.49366 63.5518 0.734375 62.8595C1.51599 62.3459 2.31993 61.3856 2.87823 60.6264C4.97742 57.8349 5.8037 55.1104 6.56298 51.7383Z" fill="white"/>
<path d="M49.6191 84.3415C50.6464 84.3415 51.629 84.3638 52.6116 84.0958L52.8349 84.0289L54.3088 83.5152C54.9118 83.2696 55.4701 82.9346 56.0284 82.5996C56.0507 84.1628 56.2294 85.9494 56.0061 87.4903C55.7381 89.4778 54.8448 91.309 53.4602 92.7606C51.1824 95.1278 48.1006 96.2667 44.8401 96.3337C41.4457 96.4007 38.1406 94.9491 35.7287 92.6043C35.3044 92.18 34.7908 91.6887 34.5005 91.1527C35.4831 91.4653 36.6443 91.4207 37.6716 91.4207C39.3242 91.4207 41.0884 91.4654 42.7186 91.108C44.7955 90.6391 47.453 89.4555 48.9492 87.8923C49.9541 86.865 50.6687 85.6144 51.4504 84.4085C50.8697 84.4308 50.3114 84.4532 49.7308 84.3638L49.6191 84.3415Z" fill="white"/>
<path d="M29.5874 6.66992C30.235 6.80391 30.9497 6.91557 31.4856 7.27288C32.2449 7.78652 33.4508 10.4887 34.6344 9.68472C34.9024 9.50607 35.1257 9.30508 35.349 9.08176C36.1753 10.109 36.9123 12.4762 37.1356 13.7938C33.0935 14.5977 29.4088 16.8086 27.0639 20.2477L26.2153 21.5653C23.8481 21.3196 21.8383 21.5429 19.5828 22.2799L19.7614 19.5554C20.342 15.5803 23.1559 11.8509 26.0813 9.28275C27.1979 8.32248 28.4038 7.54086 29.5874 6.66992Z" fill="white"/>
<path d="M42.696 0.730997C43.969 0.730997 45.1972 0.708665 46.4478 0.954316C49.1276 1.51261 51.5841 3.1205 53.5047 5.01871C53.728 5.24202 54.5989 5.93432 54.6882 6.2023C54.7329 6.33629 54.6883 6.78292 54.7106 6.93925L54.7329 8.79278C53.0357 8.21216 51.6065 8.01117 49.7976 8.07817C49.083 8.1005 48.3013 8.16749 47.6314 8.45781C47.3187 8.5918 47.0061 8.79278 46.8944 9.12776C46.8051 9.39574 46.8274 9.77539 46.9838 10.021C47.1401 10.289 47.4974 10.5793 47.8324 10.6017C48.413 10.624 49.083 10.356 49.6636 10.2667C51.3831 9.99871 53.3037 10.3114 54.8892 11.0036L55.0679 25.4077C53.2367 20.6287 49.9316 16.8546 45.2419 14.7331C44.5049 14.3981 43.6787 14.1301 42.897 13.9514L42.696 0.730997Z" fill="white"/>
<path d="M5.91553 73.1974C8.2827 74.4256 10.3596 75.0509 13.0394 74.448L13.2627 74.4033C16.1435 73.778 18.734 71.7905 20.3196 69.334C21.5255 70.0486 22.7091 70.8302 24.0267 71.3662C27.0861 72.5944 30.7485 72.4158 34.009 72.1925C34.344 72.1701 35.6392 71.9468 35.8849 72.0585C36.2422 72.2148 37.1354 73.4654 37.4258 73.8004C38.4753 74.9839 39.8153 76.5695 41.1105 77.4404C40.7532 78.8473 40.0162 79.9193 38.721 80.6562C38.0287 81.0582 37.2248 81.1922 36.4432 81.3485C36.1305 81.4155 35.6615 81.4602 35.3936 81.6611C34.6789 82.2418 34.344 83.5147 33.7187 84.2293C31.1058 87.3111 26.5055 88.785 22.6197 87.6014C20.3196 86.9091 18.4437 85.2119 17.3494 83.0904L16.9028 82.1078L16.4785 80.5892C18.9127 80.2989 20.6992 79.6736 22.8654 78.557C23.2897 78.6464 24.0043 78.7803 24.4286 78.624C24.9423 78.423 25.2326 78.0434 25.5006 77.5744L25.4559 76.7705C25.1209 76.1675 24.6296 75.7209 23.8927 75.7879C22.8431 75.8772 21.7265 76.6142 20.7885 77.0608C18.064 78.356 14.6026 78.758 11.7218 77.7977C9.44396 77.0608 7.03212 75.4752 5.91553 73.1974Z" fill="white"/>
<path d="M42.9419 16.3398C47.1179 17.5458 50.5124 20.6276 52.6116 24.424C53.7952 26.5902 54.8448 29.0913 55.1797 31.5478C55.3807 32.9771 55.2691 34.5403 55.2691 35.9919L55.3361 44.545L55.4477 57.9887L55.5594 66.7205C53.8398 66.7428 52.6116 66.5865 51.026 65.9165L50.8027 36.9745C49.4181 36.0812 47.6316 35.4559 45.979 35.6346C45.4207 35.7015 44.6838 35.8802 44.1478 35.7909C43.7905 35.7462 43.4779 35.4559 43.2769 35.1879C42.9419 34.7413 43.0982 34.2723 43.1875 33.7587L42.9419 16.3398Z" fill="white"/>
</svg>
