<svg width="55" height="86" viewBox="0 0 55 86" fill="none" xmlns="http://www.w3.org/2000/svg">
<path d="M37.523 85.1541C36.8084 84.2385 36.4957 83.0773 36.1384 82.0053C37.791 80.6654 38.8852 79.4149 39.9572 77.5836C42.5253 77.0923 43.8876 76.1991 45.4285 74.1445C45.6295 74.3009 45.5401 74.2339 45.6965 74.4348L45.9198 74.7252C47.55 76.8244 50.0065 78.0303 52.597 78.3429L52.7087 78.3653C53.2893 78.4546 53.8476 78.4323 54.4282 78.4099C53.6689 79.6158 52.9543 80.8664 51.927 81.8937C50.4085 83.4346 47.7733 84.6405 45.6965 85.1095C44.0662 85.4668 42.302 85.4221 40.6495 85.4221C39.6669 85.4221 38.5056 85.4668 37.523 85.1541Z" fill="white"/>
<path d="M22.5833 16.3058C20.3054 17.0204 18.2286 17.936 16.3527 19.4323C15.7051 19.9459 15.0798 20.5042 14.4991 21.1071C14.2758 21.3305 13.5835 22.3131 13.3602 22.4024C13.2039 22.4694 12.6679 22.4024 12.4669 22.4024C11.8417 22.4247 11.2164 22.4917 10.5911 22.5587C9.92112 22.648 9.29583 22.849 8.6482 23.0277C8.00058 21.5538 7.86659 19.5663 8.26856 18.003L8.33555 17.7797C9.36282 13.7153 12.8913 10.7675 16.911 9.87423C17.7596 9.69558 18.8762 10.0976 19.5238 9.47226C20.1938 8.82464 20.0821 7.61872 20.4171 6.77011C20.9977 5.31854 22.2036 3.8893 23.4095 2.92903C26.0224 0.829838 29.3052 0.293878 32.5656 0.651187C31.382 1.52213 30.1761 2.30374 29.0595 3.26401C26.134 5.83217 23.3202 9.58392 22.7396 13.5367L22.5833 16.3058Z" fill="white"/>
<path d="M3.71282 56.862C1.79228 55.0084 0.854343 52.6412 0.765016 49.9838C0.69802 47.7506 1.5243 45.5397 2.93121 43.8202C3.51183 43.1056 4.27112 42.4579 4.91874 41.788C3.91381 40.0461 2.84188 38.5499 2.4399 36.54L2.39524 36.339C1.94861 34.0612 2.59623 31.6047 3.77981 29.6618C5.83434 26.3343 8.53649 25.2178 12.1543 24.3691C9.74241 28.2102 9.40744 32.7659 11.0823 36.9643L10.7697 37.8129C10.3007 39.3091 9.25112 40.917 8.31318 42.19C7.91121 42.3239 7.44223 42.4356 7.21891 42.8376C7.01793 43.1949 7.04026 43.3959 7.0626 43.8202C7.66556 44.7358 8.60349 45.2271 9.5191 45.763C8.75982 49.1128 7.93354 51.8596 5.83435 54.6511C5.29838 55.3881 4.49444 56.3483 3.71282 56.862Z" fill="white"/>
<path d="M12.5113 37.4975L12.623 37.4305C12.8686 37.2965 13.1143 37.1848 13.2929 37.0062C13.4269 36.8498 13.6279 36.5372 13.5832 36.3139C13.4939 35.9789 13.1813 35.5546 13.0249 35.2419C12.5336 34.17 12.288 32.9418 12.288 31.7582C12.2657 28.2521 13.8512 24.8576 16.3301 22.4011C18.7419 20.0116 22.315 18.2697 25.6648 17.8231C26.6027 17.6891 27.5406 17.7338 28.4786 17.7338C28.2106 18.8504 28.0319 19.967 27.9873 21.1059C27.9203 23.4954 28.7912 25.6616 30.0865 27.6268C30.4215 28.1181 30.7564 28.6764 31.1807 29.0784C31.4041 29.3017 31.7614 29.458 32.0963 29.4357C32.4537 29.4133 32.7886 29.257 32.9896 28.9667C33.1683 28.721 33.2799 28.2074 33.1906 27.8948C33.0343 27.2248 32.2527 26.5549 31.8284 26.0189C31.0691 25.0363 30.4438 23.8527 30.2428 22.6245L30.2205 22.4011C30.0195 21.2399 30.0641 20.101 30.3768 18.962C31.2031 15.8132 33.3916 13.1111 36.2054 11.5255C39.2202 9.82831 42.5923 9.40401 45.9197 10.3196L46.1654 27.7384C46.0761 28.2297 45.9197 28.721 46.2547 29.1677C46.4557 29.458 46.7684 29.726 47.1257 29.7706C47.684 29.8376 48.4209 29.659 48.9569 29.6143C50.6094 29.4357 52.396 30.061 53.7806 30.9542L54.0039 59.8963C53.3786 59.5613 52.7086 59.2263 52.195 58.735C51.1901 57.7971 50.7881 56.4572 50.0511 55.3406C48.2199 52.5044 45.1381 51.0082 41.9224 50.4053C40.8058 50.2043 39.4882 50.3159 38.3939 50.5616C35.4238 51.2539 33.0119 52.7278 31.3147 55.3183C30.5108 56.5465 30.0195 57.9311 29.7515 59.3603C29.6845 59.7623 29.5728 60.2313 29.6622 60.6109C29.7068 60.8789 29.9302 61.1469 30.1758 61.3032C30.4438 61.4818 30.7564 61.5489 31.0691 61.4372C31.4711 61.2809 31.8507 60.9459 32.0293 60.5439C32.2527 59.9856 32.1187 59.2933 32.275 58.6904C32.7886 56.5242 34.7092 54.5367 36.652 53.5764C38.3716 52.7054 40.6718 52.4598 42.5476 52.8841L42.771 52.9288C44.8925 53.4201 47.0363 54.7153 48.1976 56.5912C48.7112 57.4175 49.0239 58.3331 49.5375 59.1593C50.4754 60.7449 52.3513 61.9731 54.0932 62.4868L54.1825 71.5312C54.2049 73.0274 54.3389 74.68 54.1602 76.1539C53.3116 76.1539 52.5523 76.0869 51.7484 75.8412C49.5598 75.2159 46.9917 73.1167 46.5674 70.7719C46.3887 69.7446 46.88 67.8241 46.3217 66.9755C46.1431 66.6852 45.8081 66.5065 45.4731 66.4842C45.0041 66.4619 44.7362 66.6405 44.4235 66.9308C44.1109 67.4445 44.2002 68.0028 44.2225 68.5834C44.2225 69.4767 44.2449 70.3699 44.2002 71.2855L44.1779 71.4642C42.8603 70.5932 41.5427 69.0077 40.4931 67.8241C40.2028 67.4891 39.3095 66.2385 38.9522 66.0822C38.7066 65.9706 37.4113 66.1939 37.0763 66.2162C33.8382 66.4172 30.1535 66.5958 27.094 65.3899C25.7764 64.854 24.5928 64.0947 23.3869 63.3577C21.8014 65.8142 19.2109 67.8018 16.3301 68.4271L16.1067 68.4717C13.4269 69.0747 11.3501 68.4494 8.98289 67.2211C7.77697 65.4569 7.46432 63.3801 7.73231 61.3032C10.8588 62.2411 13.8289 61.9285 16.799 60.6779C17.067 60.9906 17.3127 61.4372 17.6253 61.6605C17.8933 61.8392 18.2059 61.8392 18.4962 61.7945C18.8982 61.7275 19.3002 61.4819 19.5235 61.1245C19.6352 60.9236 19.7245 60.7449 19.7022 60.5216C19.6575 60.0526 19.2779 59.4943 19.0545 59.07C18.7419 58.4671 18.4963 57.8641 18.3399 57.1941L18.2953 56.9932C18.0049 55.7872 17.9156 54.6036 18.0496 53.3754L18.1613 52.4821C18.9429 48.3507 22.3373 44.3533 26.558 43.5717C27.7193 43.3707 31.5827 43.6834 32.2303 43.1921C32.4313 43.0358 32.5876 42.8794 32.61 42.6338C32.6323 42.2541 32.61 41.9415 32.3643 41.6512C31.6944 40.8249 29.9971 41.1822 29.0592 41.2269C28.3669 41.2492 27.697 41.2045 27.0047 41.1375C24.8385 40.8919 23.0743 39.686 21.7567 38.0111C20.9304 36.9392 20.2605 35.5323 20.2605 34.17C20.2605 33.6117 20.3945 33.0981 20.4391 32.5398C20.4838 32.0708 20.4615 31.6912 20.0818 31.3339C19.8808 31.1329 19.5235 31.0436 19.2332 31.0659C18.9429 31.0882 18.6749 31.2222 18.4739 31.4232C17.7816 32.2271 17.8486 33.835 17.9826 34.84C18.4739 38.1674 20.5284 40.3559 23.0966 42.3211L21.3994 43.3707C18.7196 43.1697 16.1291 41.6958 14.3649 39.686C13.7842 39.016 13.3153 38.1897 12.6453 37.6091L12.5113 37.4975Z" fill="white"/>
</svg>
