<svg width="16" height="17" viewBox="0 0 16 17" fill="none" xmlns="http://www.w3.org/2000/svg">
<path fill-rule="evenodd" clip-rule="evenodd" d="M9.59058 8.74577C9.49868 8.48575 9.32841 8.26063 9.10323 8.10141C8.87805 7.9422 8.60903 7.85673 8.33325 7.85677V7.52344H7.66659V7.85677C7.31296 7.85677 6.97382 7.99725 6.72378 8.2473C6.47373 8.49734 6.33325 8.83648 6.33325 9.1901C6.33325 9.54373 6.47373 9.88286 6.72378 10.1329C6.97382 10.383 7.31296 10.5234 7.66659 10.5234V11.8568C7.37659 11.8568 7.12959 11.6718 7.03759 11.4124C7.02394 11.37 7.00192 11.3307 6.97283 11.297C6.94374 11.2632 6.90818 11.2356 6.86824 11.2158C6.8283 11.196 6.7848 11.1845 6.74031 11.1818C6.69582 11.1791 6.65125 11.1854 6.60922 11.2002C6.5672 11.2151 6.52858 11.2382 6.49565 11.2682C6.46272 11.2983 6.43614 11.3346 6.4175 11.3751C6.39886 11.4156 6.38852 11.4594 6.3871 11.5039C6.38569 11.5485 6.39322 11.5929 6.40925 11.6344C6.50116 11.8945 6.67143 12.1196 6.89661 12.2788C7.12179 12.438 7.3908 12.5235 7.66659 12.5234V12.8568H8.33325V12.5234C8.68687 12.5234 9.02601 12.383 9.27606 12.1329C9.52611 11.8829 9.66658 11.5437 9.66658 11.1901C9.66658 10.8365 9.52611 10.4973 9.27606 10.2473C9.02601 9.99725 8.68687 9.85677 8.33325 9.85677V8.52344C8.47112 8.5234 8.60561 8.56611 8.7182 8.64569C8.83079 8.72527 8.91594 8.83779 8.96192 8.96777C8.99136 9.05114 9.05271 9.11939 9.13247 9.15753C9.17197 9.17641 9.2148 9.18733 9.25851 9.18965C9.30223 9.19198 9.34597 9.18568 9.38725 9.1711C9.42853 9.15653 9.46653 9.13396 9.49909 9.1047C9.53165 9.07544 9.55813 9.04005 9.57701 9.00055C9.59589 8.96105 9.60681 8.91823 9.60914 8.87451C9.61147 8.8308 9.60516 8.78705 9.59058 8.74577ZM7.66659 8.52344C7.48977 8.52344 7.32021 8.59368 7.19518 8.7187C7.07016 8.84372 6.99992 9.01329 6.99992 9.1901C6.99992 9.36692 7.07016 9.53648 7.19518 9.66151C7.32021 9.78653 7.48977 9.85677 7.66659 9.85677V8.52344ZM8.33325 11.8568C8.51006 11.8568 8.67963 11.7865 8.80466 11.6615C8.92968 11.5365 8.99992 11.3669 8.99992 11.1901C8.99992 11.0133 8.92968 10.8437 8.80466 10.7187C8.67963 10.5937 8.51006 10.5234 8.33325 10.5234V11.8568Z" fill="#24292F"/>
<path fill-rule="evenodd" clip-rule="evenodd" d="M4.38425 3.3971C5.20225 2.99677 6.54425 2.52344 8.01291 2.52344C9.45091 2.52344 10.7576 2.9771 11.5712 3.3721L11.6172 3.39444C11.8626 3.51577 12.0606 3.63044 12.1999 3.72344L10.9686 5.52344C13.8072 8.42544 15.9999 14.5224 8.01291 14.5224C0.025912 14.5224 2.15958 8.53611 5.02291 5.52344L3.79958 3.72344C3.89391 3.66177 4.01358 3.5901 4.15625 3.5141C4.22691 3.4761 4.30291 3.43688 4.38425 3.3971ZM10.1772 5.49977L11.1629 4.05877C10.2462 4.12477 9.15558 4.3401 8.10558 4.6441C7.35558 4.86077 6.52225 4.82777 5.75058 4.68544C5.55611 4.64943 5.36299 4.60652 5.17158 4.55677L5.81158 5.4991C7.18324 5.98744 8.80524 5.98744 10.1772 5.49977ZM5.42658 6.06677C7.03158 6.68677 8.96058 6.68677 10.5656 6.0661C11.2354 6.77248 11.7958 7.57502 12.2282 8.4471C12.6789 9.36644 12.9242 10.2854 12.8842 11.0774C12.8456 11.8418 12.5449 12.4948 11.8582 12.9801C11.1426 13.4858 9.93891 13.8558 8.01258 13.8558C6.08425 13.8558 4.87491 13.4921 4.15258 12.9921C3.46091 12.5131 3.15725 11.8688 3.11425 11.1148C3.06925 10.3314 3.30925 9.4171 3.75825 8.49144C4.18658 7.60877 4.78425 6.7591 5.42658 6.06677ZM5.04325 3.82877C5.30991 3.9081 5.58858 3.9771 5.87125 4.02944C6.58791 4.16144 7.30658 4.18077 7.91991 4.0031C8.63463 3.79481 9.36158 3.63105 10.0966 3.51277C9.48325 3.3281 8.76591 3.1901 8.01258 3.1901C6.86425 3.1901 5.79325 3.51044 5.04325 3.82877Z" fill="#24292F"/>
</svg>
