<svg width="16" height="17" viewBox="0 0 16 17" fill="none" xmlns="http://www.w3.org/2000/svg">
<path d="M10.0001 1.85742H4.00008C3.64646 1.85742 3.30732 1.9979 3.05727 2.24795C2.80722 2.49799 2.66675 2.83713 2.66675 3.19076V13.8574C2.66675 14.211 2.80722 14.5502 3.05727 14.8002C3.30732 15.0503 3.64646 15.1908 4.00008 15.1908H12.0001C12.3537 15.1908 12.6928 15.0503 12.9429 14.8002C13.1929 14.5502 13.3334 14.211 13.3334 13.8574V5.19076L10.0001 1.85742Z" stroke="#343330" stroke-linecap="round" stroke-linejoin="round"/>
<path d="M9.3335 1.85742V4.52409C9.3335 4.87771 9.47397 5.21685 9.72402 5.4669C9.97407 5.71695 10.3132 5.85742 10.6668 5.85742H13.3335M5.3335 9.19076H6.66683M9.3335 9.19076H10.6668M5.3335 11.8574H6.66683M9.3335 11.8574H10.6668" stroke="#343330" stroke-linecap="round" stroke-linejoin="round"/>
</svg>
