<svg width="17" height="17" viewBox="0 0 17 17" fill="none" xmlns="http://www.w3.org/2000/svg">
<path d="M15.1869 11.7313C15.5395 11.0145 15.7153 10.2237 15.6994 9.42496C15.6836 8.62627 15.4766 7.843 15.0958 7.14076C14.715 6.43851 14.1714 5.83773 13.5107 5.38873C12.85 4.93973 12.0913 4.65558 11.2982 4.56008C11.0351 3.94691 10.652 3.39258 10.1714 2.92976C9.69085 2.46694 9.12249 2.10499 8.49985 1.86523C7.8772 1.62547 7.21287 1.51275 6.54599 1.53372C5.87911 1.55469 5.22317 1.70891 4.61682 1.98731C4.01047 2.26571 3.46597 2.66265 3.0154 3.15474C2.56483 3.64684 2.21731 4.22413 1.99331 4.85261C1.76931 5.4811 1.67336 6.14806 1.71112 6.8142C1.74888 7.48034 1.91958 8.13218 2.21316 8.73133L1.73441 10.4076C1.69169 10.5575 1.68982 10.7162 1.72899 10.8671C1.76816 11.0181 1.84695 11.1558 1.95721 11.266C2.06747 11.3763 2.20519 11.4551 2.35611 11.4943C2.50704 11.5334 2.6657 11.5316 2.81566 11.4888L4.49191 11.0101C4.99773 11.2584 5.54182 11.4196 6.10128 11.487C6.36797 12.1118 6.75918 12.6757 7.25104 13.1443C7.74291 13.6129 8.3251 13.9763 8.96209 14.2124C9.59908 14.4485 10.2775 14.5524 10.956 14.5176C11.6344 14.4828 12.2987 14.3101 12.9082 14.0101L14.5844 14.4888C14.7344 14.5316 14.893 14.5334 15.044 14.4943C15.1949 14.4551 15.3326 14.3763 15.4429 14.266C15.5531 14.1558 15.6319 14.0181 15.6711 13.8671C15.7103 13.7162 15.7084 13.5575 15.6657 13.4076L15.1869 11.7313ZM4.54566 9.97508C4.49919 9.97509 4.45293 9.98139 4.40816 9.99383L2.75753 10.4657L3.22941 8.81508C3.26477 8.68933 3.24952 8.55473 3.18691 8.44008C2.72717 7.59604 2.58697 6.6146 2.79201 5.67559C2.99704 4.73659 3.53358 3.90291 4.30331 3.32733C5.07303 2.75175 6.02439 2.47281 6.98305 2.54162C7.94171 2.61044 8.84347 3.0224 9.52309 3.70202C10.2027 4.38164 10.6147 5.28341 10.6835 6.24207C10.7523 7.20073 10.4734 8.15209 9.89779 8.92181C9.3222 9.69153 8.48853 10.2281 7.54952 10.4331C6.61052 10.6381 5.62908 10.4979 4.78503 10.0382C4.71186 9.99728 4.6295 9.97556 4.54566 9.97508ZM14.1707 11.8151L14.6425 13.4657L12.9919 12.9938C12.8662 12.9585 12.7316 12.9737 12.6169 13.0363C11.6952 13.5378 10.6135 13.6574 9.60455 13.3693C8.59559 13.0813 7.74001 12.4088 7.22191 11.4963C7.90657 11.425 8.5691 11.213 9.16794 10.8735C9.76679 10.5341 10.289 10.0745 10.7019 9.52373C11.1147 8.97291 11.4093 8.34272 11.5671 7.67269C11.7248 7.00266 11.7425 6.30724 11.6188 5.63008C12.2179 5.77128 12.7764 6.04885 13.2507 6.44118C13.725 6.83352 14.1024 7.33002 14.3534 7.89205C14.6045 8.45408 14.7224 9.06647 14.6981 9.68154C14.6738 10.2966 14.5078 10.8978 14.2132 11.4382C14.15 11.5534 14.1348 11.6888 14.1707 11.8151Z" fill="#343330"/>
</svg>
