<svg width="12" height="22" viewBox="0 0 12 22" fill="none" xmlns="http://www.w3.org/2000/svg">
<path d="M11.7076 20.2931C11.8005 20.386 11.8742 20.4963 11.9244 20.6177C11.9747 20.7391 12.0006 20.8692 12.0006 21.0006C12.0006 21.132 11.9747 21.2621 11.9244 21.3835C11.8742 21.5048 11.8005 21.6151 11.7076 21.7081C11.6146 21.801 11.5043 21.8747 11.383 21.9249C11.2616 21.9752 11.1314 22.0011 11.0001 22.0011C10.8687 22.0011 10.7386 21.9752 10.6172 21.9249C10.4958 21.8747 10.3855 21.801 10.2926 21.7081L0.292554 11.7081C0.199577 11.6152 0.125819 11.5049 0.0754948 11.3835C0.0251705 11.2621 -0.000732422 11.132 -0.000732422 11.0006C-0.000732422 10.8691 0.0251705 10.739 0.0754948 10.6176C0.125819 10.4962 0.199577 10.3859 0.292554 10.2931L10.2926 0.293056C10.4802 0.105415 10.7347 -5.23096e-09 11.0001 0C11.2654 5.23096e-09 11.5199 0.105415 11.7076 0.293056C11.8952 0.480697 12.0006 0.735192 12.0006 1.00056C12.0006 1.26592 11.8952 1.52042 11.7076 1.70806L2.4138 11.0006L11.7076 20.2931Z" fill="#636C76"/>
</svg>
