<svg width="28" height="25" viewBox="0 0 28 25" fill="none" xmlns="http://www.w3.org/2000/svg">
<path d="M26.875 8.345C26.6403 8.07924 26.3517 7.86645 26.0284 7.72077C25.7051 7.57508 25.3546 7.49982 25 7.5H17.5V5C17.5 3.80653 17.0259 2.66193 16.182 1.81802C15.3381 0.974106 14.1935 0.5 13 0.5C12.9071 0.499934 12.816 0.525745 12.737 0.574539C12.658 0.623333 12.5941 0.69318 12.5525 0.77625L7.69125 10.5H2C1.60218 10.5 1.22064 10.658 0.93934 10.9393C0.658035 11.2206 0.5 11.6022 0.5 12V23C0.5 23.3978 0.658035 23.7794 0.93934 24.0607C1.22064 24.342 1.60218 24.5 2 24.5H23.5C24.1094 24.5001 24.698 24.2776 25.1549 23.8743C25.6118 23.4711 25.9057 22.9147 25.9813 22.31L27.4813 10.31C27.5253 9.95821 27.494 9.60106 27.3895 9.26228C27.285 8.92349 27.1096 8.61082 26.875 8.345ZM7.5 23.5H2C1.86739 23.5 1.74021 23.4473 1.64645 23.3536C1.55268 23.2598 1.5 23.1326 1.5 23V12C1.5 11.8674 1.55268 11.7402 1.64645 11.6464C1.74021 11.5527 1.86739 11.5 2 11.5H7.5V23.5ZM26.4888 10.1862L24.9888 22.1863C24.9434 22.5491 24.767 22.8828 24.4929 23.1247C24.2187 23.3666 23.8656 23.5001 23.5 23.5H8.5V11.1175L13.3025 1.5125C14.1752 1.58821 14.9878 1.98843 15.5798 2.63412C16.1718 3.2798 16.5001 4.12401 16.5 5V8C16.5 8.13261 16.5527 8.25979 16.6464 8.35355C16.7402 8.44732 16.8674 8.5 17 8.5H25C25.2127 8.49995 25.4231 8.54515 25.617 8.6326C25.8109 8.72006 25.984 8.84776 26.1248 9.00724C26.2656 9.16671 26.3709 9.35432 26.4336 9.55759C26.4964 9.76086 26.5152 9.97516 26.4888 10.1862Z" fill="#343330"/>
</svg>
