<svg width="33" height="33" viewBox="0 0 33 33" fill="none" xmlns="http://www.w3.org/2000/svg">
<path d="M20.2968 25.4982C19.4669 26.5148 18.5743 27.3227 16.8797 27.355C16.31 26.0104 16.6562 24.8866 17.4861 23.8701L24.6097 15.1436M20.2968 25.4982L24.6097 15.1436M20.2968 25.4982L27.4203 16.7717M24.6097 15.1436L26.2481 13.1363C27.5385 12.9639 28.5447 13.6343 29.0588 14.7645L27.4203 16.7717M24.6097 15.1436C25.7786 15.3774 26.861 15.8953 27.4203 16.7717M9.88271 24.1678C9.56948 25.8735 9.61792 26.498 10.6299 28.4251C10.7288 27.4603 10.6797 27.0928 11.0446 26.5174C11.6859 27.2678 12.3039 27.8981 13.4096 27.8865C11.9294 27.2775 12.4809 26.425 12.5791 24.1672M16.5994 22.7844L7.24448 22.7864C5.70352 22.7864 4.552 23.852 4.552 25.1837M28.4478 19.0631C28.4478 21.1246 26.788 22.7831 24.7278 22.7831H24.226M11.3565 19.2885L13.1119 8.40625H16.2119C19.5405 8.40625 21.0208 15.2077 12.4315 12.6243C12.0072 15.2542 11.7022 17.1452 11.3565 19.2885Z" stroke="black" stroke-linecap="round" stroke-linejoin="round"/>
<path d="M28.4478 17.4365V25.8652C28.4478 26.5504 28.1757 27.2075 27.6912 27.6919C27.2067 28.1764 26.5496 28.4486 25.8645 28.4486H14.6729M9.02311 28.4486H7.13534C6.45019 28.4486 5.79311 28.1764 5.30864 27.6919C4.82417 27.2075 4.552 26.5504 4.552 25.8652V7.13607C4.552 6.45093 4.82417 5.79384 5.30864 5.30938C5.79311 4.82491 6.45019 4.55273 7.13534 4.55273H25.8645C26.5496 4.55273 27.2067 4.82491 27.6912 5.30938C28.1757 5.79384 28.4478 6.45093 28.4478 7.13607V12.1942" stroke="black" stroke-linecap="round" stroke-linejoin="round"/>
</svg>
