<svg width="16" height="17" viewBox="0 0 16 17" fill="none" xmlns="http://www.w3.org/2000/svg">
<path d="M14.2075 5.10891L11.4144 2.31641C11.3215 2.22353 11.2113 2.14985 11.0899 2.09958C10.9686 2.04931 10.8385 2.02344 10.7072 2.02344C10.5759 2.02344 10.4458 2.04931 10.3245 2.09958C10.2031 2.14985 10.0929 2.22353 10 2.31641L2.29313 10.0233C2.19987 10.1158 2.12593 10.2259 2.0756 10.3473C2.02528 10.4686 1.99959 10.5988 2.00001 10.7302V13.5233C2.00001 13.7885 2.10536 14.0429 2.2929 14.2304C2.48043 14.4179 2.73479 14.5233 3.00001 14.5233H13.5C13.6326 14.5233 13.7598 14.4706 13.8536 14.3768C13.9473 14.2831 14 14.1559 14 14.0233C14 13.8907 13.9473 13.7635 13.8536 13.6697C13.7598 13.576 13.6326 13.5233 13.5 13.5233H7.20751L14.2075 6.52329C14.3004 6.43042 14.3741 6.32018 14.4243 6.19883C14.4746 6.07749 14.5005 5.94744 14.5005 5.8161C14.5005 5.68476 14.4746 5.5547 14.4243 5.43336C14.3741 5.31202 14.3004 5.20177 14.2075 5.10891ZM5.79313 13.5233H3.00001V10.7302L8.50001 5.23016L11.2931 8.02329L5.79313 13.5233ZM12 7.31641L9.20751 4.52329L10.7075 3.02329L13.5 5.81641L12 7.31641Z" fill="#24292F"/>
</svg>
