<svg width="44" height="44" viewBox="0 0 44 44" fill="none" xmlns="http://www.w3.org/2000/svg">
<g clip-path="url(#clip0_483_9262)">
<rect y="0.525391" width="43.3542" height="43.3542" rx="21.6771" fill="white"/>
<path d="M31.0894 20.4893C31.0894 22.3509 30.5374 24.1707 29.5031 25.7186C28.4689 27.2664 26.9989 28.4728 25.279 29.1852C23.5591 29.8977 21.6665 30.0841 19.8407 29.7209C18.0149 29.3577 16.3378 28.4612 15.0214 27.1449C13.7051 25.8285 12.8086 24.1514 12.4454 22.3256C12.0822 20.4998 12.2686 18.6072 12.981 16.8873C13.6935 15.1674 14.8999 13.6974 16.4477 12.6632C17.9956 11.6289 19.8154 11.0769 21.677 11.0769C24.1724 11.0797 26.5649 12.0723 28.3294 13.8369C30.094 15.6014 31.0866 17.9939 31.0894 20.4893ZM43.9245 22.2007C43.9245 26.6008 42.6197 30.9021 40.1751 34.5607C37.7305 38.2193 34.256 41.0708 30.1907 42.7547C26.1255 44.4386 21.6523 44.8791 17.3367 44.0207C13.0211 43.1623 9.05698 41.0434 5.94561 37.932C2.83423 34.8207 0.71536 30.8565 -0.143066 26.5409C-1.00149 22.2253 -0.560917 17.7521 1.12295 13.6869C2.80681 9.62169 5.65833 6.1471 9.31692 3.70251C12.9755 1.25792 17.2768 -0.046875 21.677 -0.046875C27.5755 -0.0406461 33.2306 2.30528 37.4015 6.47616C41.5724 10.647 43.9183 16.3022 43.9245 22.2007ZM40.5018 22.2007C40.4991 19.6669 39.9854 17.1596 38.9914 14.8289C37.9975 12.4982 36.5437 10.3919 34.7171 8.63594C32.8904 6.87997 30.7284 5.51042 28.3603 4.60919C25.9922 3.70797 23.4666 3.29357 20.9347 3.3908C10.8591 3.78013 2.82434 12.1722 2.85215 22.2541C2.86181 26.8438 4.55456 31.2705 7.6097 34.6956C8.85386 32.891 10.4343 31.3432 12.2646 30.137C12.4206 30.034 12.6061 29.9849 12.7927 29.9972C12.9793 30.0096 13.1567 30.0827 13.2978 30.2055C15.6235 32.2171 18.5956 33.3241 21.6706 33.3241C24.7455 33.3241 27.7177 32.2171 30.0433 30.2055C30.1844 30.0827 30.3618 30.0096 30.5484 29.9972C30.735 29.9849 30.9205 30.034 31.0766 30.137C32.9091 31.3426 34.4918 32.8904 35.7379 34.6956C38.8081 31.258 40.5041 26.8097 40.5018 22.2007Z" fill="black"/>
</g>
<defs>
<clipPath id="clip0_483_9262">
<rect y="0.525391" width="43.3542" height="43.3542" rx="21.6771" fill="white"/>
</clipPath>
</defs>
</svg>
