<svg width="44" height="44" viewBox="0 0 44 44" fill="none" xmlns="http://www.w3.org/2000/svg">
<g clip-path="url(#clip0_483_9267)">
<rect y="0.517578" width="43.3542" height="43.3542" rx="21.6771" fill="white"/>
<path d="M31.0894 20.4835C31.0894 22.3451 30.5374 24.1648 29.5031 25.7127C28.4689 27.2606 26.9989 28.467 25.279 29.1794C23.5591 29.8918 21.6665 30.0782 19.8407 29.715C18.0149 29.3518 16.3378 28.4554 15.0214 27.139C13.7051 25.8227 12.8086 24.1456 12.4454 22.3197C12.0822 20.4939 12.2686 18.6014 12.981 16.8815C13.6935 15.1616 14.8999 13.6916 16.4477 12.6573C17.9956 11.6231 19.8154 11.071 21.677 11.071C24.1724 11.0739 26.5649 12.0664 28.3294 13.831C30.094 15.5955 31.0866 17.988 31.0894 20.4835ZM43.9245 22.1948C43.9245 26.5949 42.6197 30.8963 40.1751 34.5549C37.7305 38.2135 34.256 41.065 30.1907 42.7488C26.1255 44.4327 21.6523 44.8733 17.3367 44.0149C13.0211 43.1564 9.05698 41.0376 5.94561 37.9262C2.83423 34.8148 0.71536 30.8507 -0.143066 26.5351C-1.00149 22.2195 -0.560917 17.7462 1.12295 13.681C2.80681 9.61583 5.65833 6.14124 9.31692 3.69665C12.9755 1.25206 17.2768 -0.0527344 21.677 -0.0527344C27.5755 -0.0465055 33.2306 2.29942 37.4015 6.4703C41.5724 10.6412 43.9183 16.2963 43.9245 22.1948ZM40.5018 22.1948C40.4991 19.661 39.9854 17.1538 38.9914 14.8231C37.9975 12.4924 36.5437 10.386 34.7171 8.63008C32.8904 6.87411 30.7284 5.50456 28.3603 4.60333C25.9922 3.70211 23.4666 3.28771 20.9347 3.38494C10.8591 3.77427 2.82434 12.1663 2.85215 22.2483C2.86181 26.838 4.55456 31.2647 7.6097 34.6898C8.85386 32.8852 10.4343 31.3374 12.2646 30.1312C12.4206 30.0281 12.6061 29.979 12.7927 29.9914C12.9793 30.0037 13.1567 30.0769 13.2978 30.1996C15.6235 32.2112 18.5956 33.3183 21.6706 33.3183C24.7455 33.3183 27.7177 32.2112 30.0433 30.1996C30.1844 30.0769 30.3618 30.0037 30.5484 29.9914C30.735 29.979 30.9205 30.0281 31.0766 30.1312C32.9091 31.3367 34.4918 32.8845 35.7379 34.6898C38.8081 31.2522 40.5041 26.8039 40.5018 22.1948Z" fill="black"/>
</g>
<defs>
<clipPath id="clip0_483_9267">
<rect y="0.517578" width="43.3542" height="43.3542" rx="21.6771" fill="white"/>
</clipPath>
</defs>
</svg>
