<svg width="45" height="44" viewBox="0 0 45 44" fill="none" xmlns="http://www.w3.org/2000/svg">
<g clip-path="url(#clip0_483_9269)">
<rect x="0.779297" y="0.517578" width="43.3542" height="43.3542" rx="21.6771" fill="white"/>
<path d="M31.8687 20.4835C31.8687 22.3451 31.3167 24.1648 30.2824 25.7127C29.2482 27.2606 27.7782 28.467 26.0583 29.1794C24.3384 29.8918 22.4458 30.0782 20.62 29.715C18.7942 29.3518 17.117 28.4554 15.8007 27.139C14.4843 25.8227 13.5879 24.1456 13.2247 22.3197C12.8615 20.4939 13.0479 18.6014 13.7603 16.8815C14.4727 15.1616 15.6792 13.6916 17.227 12.6573C18.7749 11.6231 20.5947 11.071 22.4563 11.071C24.9517 11.0739 27.3442 12.0664 29.1087 13.831C30.8733 15.5955 31.8659 17.988 31.8687 20.4835ZM44.7038 22.1948C44.7038 26.5949 43.399 30.8963 40.9544 34.5549C38.5098 38.2135 35.0353 41.065 30.97 42.7488C26.9048 44.4327 22.4316 44.8733 18.116 44.0149C13.8004 43.1564 9.83628 41.0376 6.7249 37.9262C3.61353 34.8148 1.49466 30.8507 0.63623 26.5351C-0.222196 22.2195 0.21838 17.7462 1.90224 13.681C3.58611 9.61583 6.43763 6.14124 10.0962 3.69665C13.7548 1.25206 18.0561 -0.0527344 22.4563 -0.0527344C28.3548 -0.0465055 34.0099 2.29942 38.1808 6.4703C42.3517 10.6412 44.6976 16.2963 44.7038 22.1948ZM41.2811 22.1948C41.2784 19.661 40.7647 17.1538 39.7707 14.8231C38.7768 12.4924 37.323 10.386 35.4964 8.63008C33.6697 6.87411 31.5077 5.50456 29.1396 4.60333C26.7715 3.70211 24.2459 3.28771 21.714 3.38494C11.6384 3.77427 3.60364 12.1663 3.63145 22.2483C3.64111 26.838 5.33386 31.2647 8.389 34.6898C9.63315 32.8852 11.2136 31.3374 13.0439 30.1312C13.1999 30.0281 13.3854 29.979 13.572 29.9914C13.7586 30.0037 13.936 30.0769 14.0771 30.1996C16.4028 32.2112 19.3749 33.3183 22.4499 33.3183C25.5248 33.3183 28.497 32.2112 30.8226 30.1996C30.9637 30.0769 31.1411 30.0037 31.3277 29.9914C31.5143 29.979 31.6998 30.0281 31.8559 30.1312C33.6884 31.3367 35.2711 32.8845 36.5172 34.6898C39.5874 31.2522 41.2834 26.8039 41.2811 22.1948Z" fill="black"/>
</g>
<defs>
<clipPath id="clip0_483_9269">
<rect x="0.779297" y="0.517578" width="43.3542" height="43.3542" rx="21.6771" fill="white"/>
</clipPath>
</defs>
</svg>
