<svg width="45" height="44" viewBox="0 0 45 44" fill="none" xmlns="http://www.w3.org/2000/svg">
<g clip-path="url(#clip0_483_9264)">
<rect x="0.779297" y="0.525391" width="43.3542" height="43.3542" rx="21.6771" fill="white"/>
<path d="M31.8687 20.4893C31.8687 22.3509 31.3167 24.1707 30.2824 25.7186C29.2482 27.2664 27.7782 28.4728 26.0583 29.1852C24.3384 29.8977 22.4458 30.0841 20.62 29.7209C18.7942 29.3577 17.117 28.4612 15.8007 27.1449C14.4843 25.8285 13.5879 24.1514 13.2247 22.3256C12.8615 20.4998 13.0479 18.6072 13.7603 16.8873C14.4727 15.1674 15.6792 13.6974 17.227 12.6632C18.7749 11.6289 20.5947 11.0769 22.4563 11.0769C24.9517 11.0797 27.3442 12.0723 29.1087 13.8369C30.8733 15.6014 31.8659 17.9939 31.8687 20.4893ZM44.7038 22.2007C44.7038 26.6008 43.399 30.9021 40.9544 34.5607C38.5098 38.2193 35.0353 41.0708 30.97 42.7547C26.9048 44.4386 22.4316 44.8791 18.116 44.0207C13.8004 43.1623 9.83628 41.0434 6.7249 37.932C3.61353 34.8207 1.49466 30.8565 0.63623 26.5409C-0.222196 22.2253 0.21838 17.7521 1.90224 13.6869C3.58611 9.62169 6.43763 6.1471 10.0962 3.70251C13.7548 1.25792 18.0561 -0.046875 22.4563 -0.046875C28.3548 -0.0406461 34.0099 2.30528 38.1808 6.47616C42.3517 10.647 44.6976 16.3022 44.7038 22.2007ZM41.2811 22.2007C41.2784 19.6669 40.7647 17.1596 39.7707 14.8289C38.7768 12.4982 37.323 10.3919 35.4964 8.63594C33.6697 6.87997 31.5077 5.51042 29.1396 4.60919C26.7715 3.70797 24.2459 3.29357 21.714 3.3908C11.6384 3.78013 3.60364 12.1722 3.63145 22.2541C3.64111 26.8438 5.33386 31.2705 8.389 34.6956C9.63315 32.891 11.2136 31.3432 13.0439 30.137C13.1999 30.034 13.3854 29.9849 13.572 29.9972C13.7586 30.0096 13.936 30.0827 14.0771 30.2055C16.4028 32.2171 19.3749 33.3241 22.4499 33.3241C25.5248 33.3241 28.497 32.2171 30.8226 30.2055C30.9637 30.0827 31.1411 30.0096 31.3277 29.9972C31.5143 29.9849 31.6998 30.034 31.8559 30.137C33.6884 31.3426 35.2711 32.8904 36.5172 34.6956C39.5874 31.258 41.2834 26.8097 41.2811 22.2007Z" fill="black"/>
</g>
<defs>
<clipPath id="clip0_483_9264">
<rect x="0.779297" y="0.525391" width="43.3542" height="43.3542" rx="21.6771" fill="white"/>
</clipPath>
</defs>
</svg>
