<svg width="32" height="33" viewBox="0 0 32 33" fill="none" xmlns="http://www.w3.org/2000/svg">
<path d="M28 16.3633C28 16.6285 27.8946 16.8829 27.7071 17.0704C27.5196 17.2579 27.2652 17.3633 27 17.3633H17V27.3633C17 27.6285 16.8946 27.8829 16.7071 28.0704C16.5196 28.2579 16.2652 28.3633 16 28.3633C15.7348 28.3633 15.4804 28.2579 15.2929 28.0704C15.1054 27.8829 15 27.6285 15 27.3633V17.3633H5C4.73478 17.3633 4.48043 17.2579 4.29289 17.0704C4.10536 16.8829 4 16.6285 4 16.3633C4 16.0981 4.10536 15.8437 4.29289 15.6562C4.48043 15.4686 4.73478 15.3633 5 15.3633H15V5.36328C15 5.09806 15.1054 4.84371 15.2929 4.65617C15.4804 4.46864 15.7348 4.36328 16 4.36328C16.2652 4.36328 16.5196 4.46864 16.7071 4.65617C16.8946 4.84371 17 5.09806 17 5.36328V15.3633H27C27.2652 15.3633 27.5196 15.4686 27.7071 15.6562C27.8946 15.8437 28 16.0981 28 16.3633Z" fill="#636C76"/>
</svg>
