<svg width="32" height="33" viewBox="0 0 32 33" fill="none" xmlns="http://www.w3.org/2000/svg">
<path d="M28 16.0234C28 16.2887 27.8946 16.543 27.7071 16.7305C27.5196 16.9181 27.2652 17.0234 27 17.0234H17V27.0234C17 27.2887 16.8946 27.543 16.7071 27.7305C16.5196 27.9181 16.2652 28.0234 16 28.0234C15.7348 28.0234 15.4804 27.9181 15.2929 27.7305C15.1054 27.543 15 27.2887 15 27.0234V17.0234H5C4.73478 17.0234 4.48043 16.9181 4.29289 16.7305C4.10536 16.543 4 16.2887 4 16.0234C4 15.7582 4.10536 15.5039 4.29289 15.3163C4.48043 15.1288 4.73478 15.0234 5 15.0234H15V5.02344C15 4.75822 15.1054 4.50387 15.2929 4.31633C15.4804 4.12879 15.7348 4.02344 16 4.02344C16.2652 4.02344 16.5196 4.12879 16.7071 4.31633C16.8946 4.50387 17 4.75822 17 5.02344V15.0234H27C27.2652 15.0234 27.5196 15.1288 27.7071 15.3163C27.8946 15.5039 28 15.7582 28 16.0234Z" fill="#343330"/>
</svg>
