<svg width="12" height="12" viewBox="0 0 12 12" fill="none" xmlns="http://www.w3.org/2000/svg">
<path d="M6.375 1.5V3C6.375 3.09946 6.33549 3.19484 6.26517 3.26516C6.19484 3.33549 6.09946 3.375 6 3.375C5.90054 3.375 5.80516 3.33549 5.73484 3.26516C5.66451 3.19484 5.625 3.09946 5.625 3V1.5C5.625 1.40054 5.66451 1.30516 5.73484 1.23483C5.80516 1.16451 5.90054 1.125 6 1.125C6.09946 1.125 6.19484 1.16451 6.26517 1.23483C6.33549 1.30516 6.375 1.40054 6.375 1.5ZM10.5 5.625H9C8.90054 5.625 8.80516 5.66451 8.73483 5.73484C8.66451 5.80516 8.625 5.90054 8.625 6C8.625 6.09946 8.66451 6.19484 8.73483 6.26517C8.80516 6.33549 8.90054 6.375 9 6.375H10.5C10.5995 6.375 10.6948 6.33549 10.7652 6.26517C10.8355 6.19484 10.875 6.09946 10.875 6C10.875 5.90054 10.8355 5.80516 10.7652 5.73484C10.6948 5.66451 10.5995 5.625 10.5 5.625ZM8.38641 7.85625C8.31551 7.78889 8.2211 7.7519 8.12332 7.75315C8.02553 7.7544 7.9321 7.7938 7.86295 7.86295C7.7938 7.9321 7.7544 8.02553 7.75315 8.12332C7.7519 8.2211 7.78889 8.31551 7.85625 8.38641L8.91656 9.44719C8.98693 9.51755 9.08236 9.55708 9.18188 9.55708C9.28139 9.55708 9.37682 9.51755 9.44719 9.44719C9.51755 9.37682 9.55708 9.28139 9.55708 9.18188C9.55708 9.08236 9.51755 8.98693 9.44719 8.91656L8.38641 7.85625ZM6 8.625C5.90054 8.625 5.80516 8.66451 5.73484 8.73483C5.66451 8.80516 5.625 8.90054 5.625 9V10.5C5.625 10.5995 5.66451 10.6948 5.73484 10.7652C5.80516 10.8355 5.90054 10.875 6 10.875C6.09946 10.875 6.19484 10.8355 6.26517 10.7652C6.33549 10.6948 6.375 10.5995 6.375 10.5V9C6.375 8.90054 6.33549 8.80516 6.26517 8.73483C6.19484 8.66451 6.09946 8.625 6 8.625ZM3.61359 7.85625L2.55281 8.91656C2.48245 8.98693 2.44292 9.08236 2.44292 9.18188C2.44292 9.28139 2.48245 9.37682 2.55281 9.44719C2.62318 9.51755 2.71861 9.55708 2.81813 9.55708C2.91764 9.55708 3.01307 9.51755 3.08344 9.44719L4.14375 8.38641C4.21111 8.31551 4.2481 8.2211 4.24685 8.12332C4.2456 8.02553 4.2062 7.9321 4.13705 7.86295C4.0679 7.7938 3.97447 7.7544 3.87668 7.75315C3.7789 7.7519 3.68449 7.78889 3.61359 7.85625ZM3.375 6C3.375 5.90054 3.33549 5.80516 3.26516 5.73484C3.19484 5.66451 3.09946 5.625 3 5.625H1.5C1.40054 5.625 1.30516 5.66451 1.23483 5.73484C1.16451 5.80516 1.125 5.90054 1.125 6C1.125 6.09946 1.16451 6.19484 1.23483 6.26517C1.30516 6.33549 1.40054 6.375 1.5 6.375H3C3.09946 6.375 3.19484 6.33549 3.26516 6.26517C3.33549 6.19484 3.375 6.09946 3.375 6ZM3.08344 2.55281C3.01307 2.48245 2.91764 2.44292 2.81813 2.44292C2.71861 2.44292 2.62318 2.48245 2.55281 2.55281C2.48245 2.62318 2.44292 2.71861 2.44292 2.81813C2.44292 2.91764 2.48245 3.01307 2.55281 3.08344L3.61359 4.14375C3.68449 4.21111 3.7789 4.2481 3.87668 4.24685C3.97447 4.2456 4.0679 4.2062 4.13705 4.13705C4.2062 4.0679 4.2456 3.97447 4.24685 3.87668C4.2481 3.7789 4.21111 3.68449 4.14375 3.61359L3.08344 2.55281Z" fill="url(#paint0_linear_2280_8588)"/>
<defs>
<linearGradient id="paint0_linear_2280_8588" x1="6" y1="1.125" x2="6" y2="10.875" gradientUnits="userSpaceOnUse">
<stop stop-color="#FFCF27"/>
<stop offset="1" stop-color="#FFB800"/>
</linearGradient>
</defs>
</svg>
