<svg width="26" height="26" viewBox="0 0 26 26" fill="none" xmlns="http://www.w3.org/2000/svg">
<path d="M13.5 1V5C13.5 5.13261 13.4473 5.25979 13.3536 5.35355C13.2598 5.44732 13.1326 5.5 13 5.5C12.8674 5.5 12.7402 5.44732 12.6464 5.35355C12.5527 5.25979 12.5 5.13261 12.5 5V1C12.5 0.867392 12.5527 0.740215 12.6464 0.646447C12.7402 0.552679 12.8674 0.5 13 0.5C13.1326 0.5 13.2598 0.552679 13.3536 0.646447C13.4473 0.740215 13.5 0.867392 13.5 1ZM25 12.5H21C20.8674 12.5 20.7402 12.5527 20.6464 12.6464C20.5527 12.7402 20.5 12.8674 20.5 13C20.5 13.1326 20.5527 13.2598 20.6464 13.3536C20.7402 13.4473 20.8674 13.5 21 13.5H25C25.1326 13.5 25.2598 13.4473 25.3536 13.3536C25.4473 13.2598 25.5 13.1326 25.5 13C25.5 12.8674 25.4473 12.7402 25.3536 12.6464C25.2598 12.5527 25.1326 12.5 25 12.5ZM19.01 18.3037C18.9645 18.2536 18.9093 18.2131 18.8477 18.1849C18.7862 18.1567 18.7195 18.1413 18.6518 18.1396C18.5841 18.138 18.5167 18.1501 18.4538 18.1752C18.3909 18.2004 18.3338 18.238 18.2859 18.2859C18.238 18.3338 18.2004 18.3909 18.1752 18.4538C18.1501 18.5167 18.138 18.5841 18.1396 18.6518C18.1413 18.7195 18.1567 18.7862 18.1849 18.8477C18.2131 18.9093 18.2536 18.9645 18.3037 19.01L21.1313 21.8388C21.2251 21.9326 21.3523 21.9853 21.485 21.9853C21.6177 21.9853 21.7449 21.9326 21.8388 21.8388C21.9326 21.7449 21.9853 21.6177 21.9853 21.485C21.9853 21.3523 21.9326 21.2251 21.8388 21.1313L19.01 18.3037ZM13 20.5C12.8674 20.5 12.7402 20.5527 12.6464 20.6464C12.5527 20.7402 12.5 20.8674 12.5 21V25C12.5 25.1326 12.5527 25.2598 12.6464 25.3536C12.7402 25.4473 12.8674 25.5 13 25.5C13.1326 25.5 13.2598 25.4473 13.3536 25.3536C13.4473 25.2598 13.5 25.1326 13.5 25V21C13.5 20.8674 13.4473 20.7402 13.3536 20.6464C13.2598 20.5527 13.1326 20.5 13 20.5ZM6.99 18.3037L4.16125 21.1313C4.1148 21.1781 4.07803 21.2337 4.05304 21.2947C4.02806 21.3558 4.01535 21.4212 4.01564 21.4872C4.01593 21.5532 4.02921 21.6185 4.05473 21.6793C4.08025 21.7402 4.11751 21.7954 4.16437 21.8419C4.21124 21.8883 4.2668 21.9251 4.32787 21.9501C4.38895 21.9751 4.45435 21.9878 4.52033 21.9875C4.58632 21.9872 4.65161 21.9739 4.71246 21.9484C4.77331 21.9229 4.82854 21.8856 4.875 21.8388L7.7025 19.01C7.75269 18.9645 7.79312 18.9093 7.82134 18.8477C7.84955 18.7862 7.86496 18.7195 7.86662 18.6518C7.86829 18.5841 7.85618 18.5167 7.83103 18.4538C7.80589 18.3909 7.76822 18.3338 7.72033 18.2859C7.67243 18.238 7.61531 18.2004 7.55242 18.1752C7.48952 18.1501 7.42218 18.138 7.35447 18.1396C7.28676 18.1413 7.22009 18.1567 7.15851 18.1849C7.09693 18.2131 7.04173 18.2536 6.99625 18.3037H6.99ZM5.5 13C5.5 12.8674 5.44732 12.7402 5.35355 12.6464C5.25979 12.5527 5.13261 12.5 5 12.5H1C0.867392 12.5 0.740215 12.5527 0.646447 12.6464C0.552679 12.7402 0.5 12.8674 0.5 13C0.5 13.1326 0.552679 13.2598 0.646447 13.3536C0.740215 13.4473 0.867392 13.5 1 13.5H5C5.13261 13.5 5.25979 13.4473 5.35355 13.3536C5.44732 13.2598 5.5 13.1326 5.5 13ZM4.875 4.16125C4.78035 4.0666 4.65198 4.01343 4.51813 4.01343C4.38427 4.01343 4.2559 4.0666 4.16125 4.16125C4.0666 4.2559 4.01343 4.38427 4.01343 4.51813C4.01343 4.65198 4.0666 4.78035 4.16125 4.875L6.99 7.69625C7.03548 7.74644 7.09068 7.78687 7.15226 7.81509C7.21384 7.8433 7.2805 7.85871 7.34822 7.86037C7.41593 7.86204 7.48328 7.84993 7.54617 7.82478C7.60906 7.79964 7.66618 7.76197 7.71408 7.71408C7.76197 7.66618 7.79964 7.60906 7.82478 7.54617C7.84993 7.48328 7.86204 7.41593 7.86037 7.34822C7.85871 7.2805 7.8433 7.21384 7.81509 7.15226C7.78687 7.09068 7.74644 7.03548 7.69625 6.99L4.875 4.16125Z" fill="#343330"/>
</svg>
