<svg width="20" height="20" viewBox="0 0 20 20" fill="none" xmlns="http://www.w3.org/2000/svg">
<path d="M19.354 18.6463C19.4478 18.7401 19.5006 18.8674 19.5006 19C19.5006 19.1327 19.4478 19.26 19.354 19.3538C19.2602 19.4476 19.133 19.5003 19.0003 19.5003C18.8676 19.5003 18.7403 19.4476 18.6465 19.3538L10.0003 10.7075L1.35403 19.3538C1.26021 19.4476 1.13296 19.5003 1.00028 19.5003C0.867596 19.5003 0.740349 19.4476 0.646528 19.3538C0.552708 19.26 0.5 19.1327 0.5 19C0.5 18.8674 0.552707 18.7401 0.646528 18.6463L9.29278 10L0.646528 1.35378C0.552707 1.25996 0.5 1.13272 0.5 1.00003C0.5 0.867352 0.552707 0.740104 0.646528 0.646284C0.740348 0.552463 0.867596 0.499756 1.00028 0.499756C1.13296 0.499756 1.26021 0.552463 1.35403 0.646284L10.0003 9.29253L18.6465 0.646284C18.693 0.599829 18.7481 0.562978 18.8088 0.537837C18.8695 0.512696 18.9346 0.499756 19.0003 0.499756C19.066 0.499756 19.131 0.512696 19.1917 0.537837C19.2524 0.562978 19.3076 0.599829 19.354 0.646284C19.4005 0.692739 19.4373 0.747889 19.4625 0.808586C19.4876 0.869282 19.5006 0.934336 19.5006 1.00003C19.5006 1.06573 19.4876 1.13079 19.4625 1.19148C19.4373 1.25218 19.4005 1.30733 19.354 1.35378L10.7078 10L19.354 18.6463Z" fill="#343330"/>
</svg>
