<svg width="8" height="8" viewBox="0 0 8 8" fill="none" xmlns="http://www.w3.org/2000/svg">
<path d="M7.64052 7.10965C7.67536 7.14449 7.703 7.18586 7.72186 7.23138C7.74071 7.2769 7.75042 7.32569 7.75042 7.37496C7.75042 7.42424 7.74071 7.47303 7.72186 7.51855C7.703 7.56407 7.67536 7.60544 7.64052 7.64028C7.60568 7.67512 7.56432 7.70276 7.5188 7.72161C7.47327 7.74047 7.42448 7.75017 7.37521 7.75017C7.32594 7.75017 7.27714 7.74047 7.23162 7.72161C7.1861 7.70276 7.14474 7.67512 7.1099 7.64028L4.00021 4.53012L0.890521 7.64028C0.820156 7.71064 0.72472 7.75017 0.625208 7.75017C0.525697 7.75017 0.430261 7.71064 0.359896 7.64028C0.289531 7.56991 0.25 7.47448 0.25 7.37496C0.25 7.27545 0.289531 7.18002 0.359896 7.10965L3.47005 3.99996L0.359896 0.890277C0.289531 0.819912 0.25 0.724476 0.25 0.624964C0.25 0.525453 0.289531 0.430017 0.359896 0.359652C0.430261 0.289287 0.525697 0.249756 0.625208 0.249756C0.72472 0.249756 0.820156 0.289287 0.890521 0.359652L4.00021 3.46981L7.1099 0.359652C7.18026 0.289287 7.2757 0.249756 7.37521 0.249756C7.47472 0.249756 7.57016 0.289287 7.64052 0.359652C7.71089 0.430017 7.75042 0.525453 7.75042 0.624964C7.75042 0.724476 7.71089 0.819912 7.64052 0.890277L4.53036 3.99996L7.64052 7.10965Z" fill="#F22E76"/>
</svg>
