<svg width="12" height="22" viewBox="0 0 12 22" fill="none" xmlns="http://www.w3.org/2000/svg">
<path d="M11.7076 11.7081L1.70757 21.7081C1.61466 21.801 1.50436 21.8747 1.38296 21.9249C1.26157 21.9752 1.13146 22.0011 1.00007 22.0011C0.868673 22.0011 0.738564 21.9752 0.617171 21.9249C0.495778 21.8747 0.385477 21.801 0.292567 21.7081C0.199657 21.6151 0.125957 21.5048 0.0756741 21.3835C0.0253914 21.2621 -0.000488281 21.132 -0.000488281 21.0006C-0.000488281 20.8692 0.0253914 20.7391 0.0756741 20.6177C0.125957 20.4963 0.199657 20.386 0.292567 20.2931L9.58632 11.0006L0.292567 1.70806C0.104927 1.52042 -0.000488283 1.26592 -0.000488281 1.00056C-0.000488279 0.735192 0.104927 0.480697 0.292567 0.293056C0.480208 0.105415 0.734704 1.97712e-09 1.00007 0C1.26543 -1.97712e-09 1.51993 0.105415 1.70757 0.293056L11.7076 10.2931C11.8005 10.3859 11.8743 10.4962 11.9246 10.6176C11.975 10.739 12.0009 10.8691 12.0009 11.0006C12.0009 11.132 11.975 11.2621 11.9246 11.3835C11.8743 11.5049 11.8005 11.6152 11.7076 11.7081Z" fill="#636C76"/>
</svg>
