<svg width="47" height="48" viewBox="0 0 47 48" fill="none" xmlns="http://www.w3.org/2000/svg">
<rect width="47" height="47" transform="translate(0 0.0234375)" fill="white"/>
<path d="M35.4165 20.3479C34.9541 19.8647 34.4757 19.3667 34.2954 18.9289C34.1286 18.5278 34.1188 17.863 34.109 17.2191C34.0906 16.022 34.071 14.6654 33.1278 13.7222C32.1846 12.779 30.828 12.7594 29.6309 12.741C28.987 12.7312 28.3222 12.7214 27.9211 12.5546C27.4845 12.3743 26.9853 11.8959 26.502 11.4335C25.6557 10.6203 24.6941 9.69922 23.4136 9.69922C22.1331 9.69922 21.1728 10.6203 20.3252 11.4335C19.842 11.8959 19.344 12.3743 18.9061 12.5546C18.5075 12.7214 17.8403 12.7312 17.1964 12.741C15.9993 12.7594 14.6427 12.779 13.6995 13.7222C12.7563 14.6654 12.7428 16.022 12.7183 17.2191C12.7085 17.863 12.6987 18.5278 12.5319 18.9289C12.3516 19.3655 11.8732 19.8647 11.4108 20.3479C10.5976 21.1943 9.67651 22.1559 9.67651 23.4364C9.67651 24.7168 10.5976 25.6772 11.4108 26.5248C11.8732 27.008 12.3516 27.506 12.5319 27.9438C12.6987 28.3449 12.7085 29.0097 12.7183 29.6536C12.7367 30.8507 12.7563 32.2073 13.6995 33.1505C14.6427 34.0937 15.9993 34.1133 17.1964 34.1317C17.8403 34.1415 18.5051 34.1513 18.9061 34.3181C19.3428 34.4984 19.842 34.9768 20.3252 35.4392C21.1715 36.2524 22.1331 37.1735 23.4136 37.1735C24.6941 37.1735 25.6545 36.2524 26.502 35.4392C26.9853 34.9768 27.4833 34.4984 27.9211 34.3181C28.3222 34.1513 28.987 34.1415 29.6309 34.1317C30.828 34.1133 32.1846 34.0937 33.1278 33.1505C34.071 32.2073 34.0906 30.8507 34.109 29.6536C34.1188 29.0097 34.1286 28.3449 34.2954 27.9438C34.4757 27.5072 34.9541 27.008 35.4165 26.5248C36.2297 25.6784 37.1508 24.7168 37.1508 23.4364C37.1508 22.1559 36.2297 21.1955 35.4165 20.3479ZM33.9998 25.167C33.4123 25.7802 32.804 26.4144 32.4814 27.1932C32.1723 27.9414 32.1588 28.7963 32.1465 29.6242C32.1343 30.4828 32.1208 31.3818 31.7393 31.762C31.3579 32.1423 30.465 32.157 29.6015 32.1692C28.7736 32.1815 27.9187 32.195 27.1705 32.5041C26.3917 32.8267 25.7575 33.435 25.1443 34.0225C24.531 34.61 23.9043 35.211 23.4136 35.211C22.923 35.211 22.2914 34.6076 21.683 34.0225C21.0747 33.4375 20.4356 32.8267 19.6568 32.5041C18.9086 32.195 18.0537 32.1815 17.2258 32.1692C16.3672 32.157 15.4682 32.1435 15.088 31.762C14.7077 31.3806 14.693 30.4877 14.6808 29.6242C14.6685 28.7963 14.655 27.9414 14.3459 27.1932C14.0233 26.4144 13.415 25.7802 12.8275 25.167C12.24 24.5537 11.639 23.927 11.639 23.4364C11.639 22.9457 12.2424 22.3141 12.8275 21.7057C13.4125 21.0974 14.0233 20.4583 14.3459 19.6795C14.655 18.9313 14.6685 18.0764 14.6808 17.2485C14.693 16.3899 14.7065 15.4909 15.088 15.1107C15.4694 14.7304 16.3623 14.7157 17.2258 14.7035C18.0537 14.6912 18.9086 14.6777 19.6568 14.3686C20.4356 14.046 21.0697 13.4377 21.683 12.8502C22.2963 12.2627 22.923 11.6617 23.4136 11.6617C23.9043 11.6617 24.5359 12.2651 25.1443 12.8502C25.7526 13.4352 26.3917 14.046 27.1705 14.3686C27.9187 14.6777 28.7736 14.6912 29.6015 14.7035C30.4601 14.7157 31.3591 14.7292 31.7393 15.1107C32.1196 15.4921 32.1343 16.385 32.1465 17.2485C32.1588 18.0764 32.1723 18.9313 32.4814 19.6795C32.804 20.4583 33.4123 21.0925 33.9998 21.7057C34.5873 22.319 35.1883 22.9457 35.1883 23.4364C35.1883 23.927 34.5849 24.5586 33.9998 25.167ZM29.014 19.7985C29.1052 19.8896 29.1776 19.9978 29.227 20.1169C29.2763 20.236 29.3018 20.3637 29.3018 20.4927C29.3018 20.6216 29.2763 20.7493 29.227 20.8684C29.1776 20.9875 29.1052 21.0958 29.014 21.1869L22.1454 28.0555C22.0543 28.1467 21.9461 28.2191 21.8269 28.2684C21.7078 28.3178 21.5801 28.3432 21.4512 28.3432C21.3223 28.3432 21.1946 28.3178 21.0754 28.2684C20.9563 28.2191 20.8481 28.1467 20.757 28.0555L17.8133 25.1118C17.6292 24.9277 17.5258 24.678 17.5258 24.4176C17.5258 24.1572 17.6292 23.9075 17.8133 23.7234C17.9974 23.5392 18.2471 23.4358 18.5075 23.4358C18.7679 23.4358 19.0176 23.5392 19.2017 23.7234L21.4512 25.974L27.6255 19.7985C27.7167 19.7072 27.8249 19.6349 27.944 19.5855C28.0631 19.5361 28.1908 19.5107 28.3198 19.5107C28.4487 19.5107 28.5764 19.5361 28.6955 19.5855C28.8146 19.6349 28.9229 19.7072 29.014 19.7985Z" fill="#343330"/>
</svg>
