<svg width="12" height="12" viewBox="0 0 12 12" fill="none" xmlns="http://www.w3.org/2000/svg">
<path d="M4.64995 3.09999C5.04101 3.3883 5.5141 3.54384 5.99995 3.54384C6.4858 3.54384 6.95889 3.3883 7.34995 3.09999M3.94995 5.34999C4.39995 5.74999 5.14995 5.99999 5.99995 5.99999C6.84995 5.99999 7.59995 5.74999 8.04995 5.34999" fill="#FF7A00"/>
<path d="M4.64995 3.09999C5.04101 3.3883 5.5141 3.54384 5.99995 3.54384C6.4858 3.54384 6.95889 3.3883 7.34995 3.09999M3.94995 5.34999C4.39995 5.74999 5.14995 5.99999 5.99995 5.99999C6.84995 5.99999 7.59995 5.74999 8.04995 5.34999" stroke="#FF7A00" stroke-width="0.5" stroke-linecap="round" stroke-linejoin="round"/>
<path d="M6.95 1.74999C6.91648 1.52562 6.80499 1.32023 6.63509 1.16989C6.46519 1.01955 6.24776 0.933869 6.02098 0.927901C5.79419 0.921933 5.57255 0.996056 5.39499 1.13725C5.21742 1.27845 5.09527 1.47769 5.05 1.69999L3.55 6.69999C3.5 6.79999 3.5 6.89999 3.5 6.99999C3.5 7.84999 4.6 8.49999 6 8.49999C7.4 8.49999 8.5 7.84999 8.5 6.99999C8.5 6.89999 8.5 6.79999 8.45 6.74999L6.95 1.74999Z" stroke="#FF7A00" stroke-width="0.5" stroke-linecap="round" stroke-linejoin="round"/>
<path d="M3.75 6.09999L1.4 7.44999C1.15 7.59999 1 7.79999 1 7.99999C1 8.19999 1.15 8.39999 1.4 8.54999L5.2 10.8C5.65 11.05 6.25 11.05 6.7 10.8L10.5 8.54999C10.85 8.39999 11 8.19999 11 7.99999C11 7.79999 10.85 7.59999 10.6 7.44999L8.25 6.04999" stroke="#FF7A00" stroke-width="0.5" stroke-linecap="round" stroke-linejoin="round"/>
</svg>
