<svg width="17" height="17" viewBox="0 0 17 17" fill="none" xmlns="http://www.w3.org/2000/svg">
<path d="M14.2888 9.9721C14.2996 9.84204 14.2591 9.71291 14.176 9.61231C14.0928 9.5117 13.9737 9.44759 13.8439 9.43366C13.7141 9.41974 13.5841 9.4571 13.4815 9.53778C13.3789 9.61845 13.3119 9.73605 13.2948 9.86544L14.2888 9.9721ZM9.39216 14.0234H7.9415V15.0234H9.39216V14.0234ZM4.03883 9.86544L3.91683 8.72877L2.92283 8.83544L3.04483 9.9721L4.03883 9.86544ZM6.9435 8.0561L8.13683 5.91744L7.2635 5.4301L6.07016 7.56944L6.9435 8.0561ZM9.19683 5.91744L10.3902 8.0561L11.2635 7.56944L10.0702 5.4301L9.19683 5.91744ZM10.3902 8.0561C10.4982 8.24944 10.5968 8.42944 10.6935 8.5661C10.7928 8.70677 10.9268 8.86277 11.1342 8.9541L11.5375 8.03877C11.5748 8.05477 11.5682 8.0721 11.5115 7.99144C11.4224 7.85464 11.3397 7.71383 11.2635 7.56944L10.3902 8.0561ZM11.9608 7.6661C11.7888 7.8381 11.6862 7.93944 11.6055 8.0041C11.5288 8.0661 11.5275 8.0481 11.5675 8.04277L11.7042 9.03344C11.9282 9.0021 12.1008 8.88944 12.2348 8.78144C12.3648 8.6761 12.5095 8.53077 12.6668 8.37477L11.9608 7.6661ZM11.1342 8.9541C11.3135 9.03277 11.5108 9.0601 11.7042 9.03344L11.5675 8.04277C11.5573 8.04376 11.5471 8.04239 11.5375 8.03877L11.1342 8.9541ZM4.6675 8.3741C4.82416 8.53077 4.96883 8.6761 5.09883 8.78077C5.23283 8.8901 5.4055 9.0021 5.6295 9.03344L5.76616 8.04277C5.80616 8.0481 5.80483 8.0661 5.72816 8.0041C5.6046 7.89695 5.48603 7.78416 5.37283 7.6661L4.6675 8.3741ZM6.07016 7.56944C5.99378 7.71384 5.9108 7.85465 5.8215 7.99144C5.7655 8.07144 5.75883 8.05477 5.79616 8.0381L6.19883 8.9541C6.4055 8.86277 6.5415 8.70744 6.64016 8.5661C6.73616 8.42877 6.8355 8.24944 6.9435 8.0561L6.07016 7.56944ZM5.6295 9.03344C5.82283 9.0601 6.02016 9.03344 6.19883 8.9541L5.79616 8.0381C5.7866 8.04172 5.77634 8.04376 5.76616 8.04277L5.6295 9.03344ZM7.9415 14.0234C6.98283 14.0234 6.3115 14.0228 5.7995 13.9568C5.30083 13.8934 5.0195 13.7748 4.80816 13.5861L4.1415 14.3314C4.5615 14.7074 5.06816 14.8714 5.67216 14.9488C6.26283 15.0241 7.0095 15.0234 7.9415 15.0234V14.0234ZM3.04483 9.9721C3.1435 10.8908 3.22216 11.7901 3.3555 12.5194C3.42283 12.8874 3.50816 13.2341 3.6255 13.5348C3.74216 13.8334 3.9035 14.1181 4.1415 14.3314L4.80816 13.5861C4.73083 13.5168 4.64283 13.3901 4.55683 13.1708C4.47239 12.9539 4.39994 12.6768 4.3395 12.3394C4.21416 11.6581 4.14083 10.8194 4.03883 9.86544L3.04483 9.9721ZM13.2948 9.86544C13.1922 10.8194 13.1188 11.6581 12.9948 12.3388C12.9335 12.6765 12.8608 12.9539 12.7768 13.1708C12.6908 13.3901 12.6028 13.5174 12.5255 13.5861L13.1922 14.3314C13.4302 14.1181 13.5915 13.8334 13.7082 13.5348C13.8255 13.2341 13.9108 12.8874 13.9782 12.5194C14.1115 11.7901 14.1902 10.8901 14.2888 9.9721L13.2948 9.86544ZM9.39216 15.0234C10.3242 15.0234 11.0708 15.0241 11.6615 14.9488C12.2662 14.8714 12.7722 14.7074 13.1922 14.3314L12.5255 13.5861C12.3142 13.7748 12.0328 13.8928 11.5342 13.9568C11.0222 14.0228 10.3508 14.0234 9.39216 14.0234V15.0234ZM7.8335 3.85677C7.8335 3.39677 8.20683 3.02344 8.66683 3.02344V2.02344C8.1806 2.02344 7.71428 2.21659 7.37047 2.56041C7.02665 2.90423 6.8335 3.37054 6.8335 3.85677H7.8335ZM8.66683 3.02344C9.12683 3.02344 9.50016 3.39677 9.50016 3.85677H10.5002C10.5002 3.37054 10.307 2.90423 9.96319 2.56041C9.61938 2.21659 9.15306 2.02344 8.66683 2.02344V3.02344ZM14.5002 6.52344C14.5002 6.65605 14.4475 6.78322 14.3537 6.87699C14.2599 6.97076 14.1328 7.02344 14.0002 7.02344V8.02344C14.398 8.02344 14.7795 7.8654 15.0608 7.5841C15.3421 7.30279 15.5002 6.92126 15.5002 6.52344H14.5002ZM13.5002 6.52344C13.5002 6.39083 13.5528 6.26365 13.6466 6.16988C13.7404 6.07612 13.8676 6.02344 14.0002 6.02344V5.02344C13.6023 5.02344 13.2208 5.18147 12.9395 5.46278C12.6582 5.74408 12.5002 6.12561 12.5002 6.52344H13.5002ZM14.0002 6.02344C14.1328 6.02344 14.2599 6.07612 14.3537 6.16988C14.4475 6.26365 14.5002 6.39083 14.5002 6.52344H15.5002C15.5002 6.12561 15.3421 5.74408 15.0608 5.46278C14.7795 5.18147 14.398 5.02344 14.0002 5.02344V6.02344ZM3.3335 7.02344C3.20089 7.02344 3.07371 6.97076 2.97994 6.87699C2.88617 6.78322 2.8335 6.65605 2.8335 6.52344H1.8335C1.8335 6.92126 1.99153 7.30279 2.27284 7.5841C2.55414 7.8654 2.93567 8.02344 3.3335 8.02344V7.02344ZM2.8335 6.52344C2.8335 6.39083 2.88617 6.26365 2.97994 6.16988C3.07371 6.07612 3.20089 6.02344 3.3335 6.02344V5.02344C2.93567 5.02344 2.55414 5.18147 2.27284 5.46278C1.99153 5.74408 1.8335 6.12561 1.8335 6.52344H2.8335ZM3.3335 6.02344C3.4661 6.02344 3.59328 6.07612 3.68705 6.16988C3.78082 6.26365 3.8335 6.39083 3.8335 6.52344H4.8335C4.8335 6.12561 4.67546 5.74408 4.39416 5.46278C4.11285 5.18147 3.73132 5.02344 3.3335 5.02344V6.02344ZM14.0002 7.02344H13.9942L13.9828 8.02344H14.0002V7.02344ZM13.9942 7.02344C13.9233 7.0226 13.8534 7.00672 13.7892 6.97683C13.7249 6.94695 13.6678 6.90375 13.6215 6.8501L12.8648 7.50344C13.1355 7.81677 13.5355 8.0181 13.9828 8.02344L13.9942 7.02344ZM13.6215 6.8501C13.5427 6.7596 13.4995 6.64346 13.5002 6.52344H12.5002C12.5002 6.89744 12.6382 7.24077 12.8648 7.50344L13.6215 6.8501ZM12.6668 8.37477C13.1182 7.92477 13.3508 7.6981 13.5055 7.6021L12.9808 6.75144C12.7008 6.92477 12.3648 7.26344 11.9608 7.6661L12.6668 8.37477ZM3.8335 6.52344C3.83414 6.64346 3.791 6.7596 3.71216 6.8501L4.46883 7.50344C4.6955 7.24077 4.8335 6.89744 4.8335 6.52344H3.8335ZM5.37283 7.6661C4.96883 7.26344 4.63283 6.9241 4.35283 6.75144L3.82816 7.6021C3.98283 7.6981 4.21483 7.92477 4.66683 8.37477L5.37283 7.6661ZM3.71216 6.8501C3.66587 6.90375 3.60871 6.94695 3.54446 6.97683C3.48021 7.00672 3.41035 7.0226 3.3395 7.02344L3.35083 8.02344C3.56339 8.02093 3.77299 7.97327 3.96573 7.88362C4.15847 7.79398 4.32996 7.66438 4.46883 7.50344L3.71216 6.8501ZM3.3395 7.02344H3.3335V8.02344H3.35083L3.3395 7.02344ZM3.91683 8.72877C3.8884 8.4812 3.86417 8.23316 3.84416 7.98477C3.83004 7.85365 3.82893 7.72145 3.84083 7.5901L2.8495 7.45677C2.82908 7.65576 2.82819 7.85627 2.84683 8.05544C2.86216 8.2741 2.89016 8.53544 2.92283 8.83544L3.91683 8.72877ZM9.50016 3.85677C9.50016 4.1801 9.31616 4.46144 9.04483 4.6001L9.49883 5.49077C9.80022 5.33728 10.0533 5.10341 10.23 4.81502C10.4067 4.52664 10.5002 4.19499 10.5002 3.85677H9.50016ZM9.04483 4.6001C8.9315 4.65744 8.80416 4.6901 8.66683 4.6901V5.6901C8.95631 5.69036 9.24171 5.62181 9.4995 5.4901L9.04483 4.6001ZM10.0702 5.4301C9.93283 5.18344 9.8095 4.96144 9.69616 4.7801L8.84816 5.3101C8.9455 5.4661 9.05483 5.6641 9.19683 5.91744L10.0702 5.4301ZM8.66683 4.6901C8.5295 4.6901 8.4015 4.65677 8.28883 4.6001L7.83483 5.49077C8.08483 5.6181 8.36816 5.6901 8.66683 5.6901V4.6901ZM8.28883 4.6001C8.15171 4.53031 8.03659 4.42392 7.95622 4.29272C7.87585 4.16152 7.83337 4.01063 7.8335 3.85677H6.8335C6.83356 4.19488 6.92712 4.52639 7.10384 4.81464C7.28055 5.10289 7.53354 5.33666 7.83483 5.4901L8.28883 4.6001ZM8.13683 5.91744C8.27816 5.66277 8.38816 5.4661 8.4855 5.31077L7.6375 4.7801C7.52416 4.96144 7.40083 5.18344 7.2635 5.4301L8.13683 5.91744Z" fill="black"/>
<path d="M4.00024 12.1895H13.3336" stroke="black" stroke-width="1.5" stroke-linecap="round"/>
</svg>
