<svg width="15" height="15" viewBox="0 0 15 15" fill="none" xmlns="http://www.w3.org/2000/svg">
<path d="M8.05549 2.41225V4.11596C8.05549 4.22892 8.01062 4.33726 7.93074 4.41713C7.85086 4.49701 7.74253 4.54188 7.62957 4.54188C7.5166 4.54188 7.40827 4.49701 7.32839 4.41713C7.24851 4.33726 7.20364 4.22892 7.20364 4.11596V2.41225C7.20364 2.29929 7.24851 2.19096 7.32839 2.11108C7.40827 2.0312 7.5166 1.98633 7.62957 1.98633C7.74253 1.98633 7.85086 2.0312 7.93074 2.11108C8.01062 2.19096 8.05549 2.29929 8.05549 2.41225ZM10.0387 5.54015C10.0947 5.54012 10.1501 5.52906 10.2018 5.50759C10.2535 5.48612 10.3005 5.45467 10.3401 5.41503L11.5449 4.21073C11.6248 4.13081 11.6697 4.02241 11.6697 3.90938C11.6697 3.79636 11.6248 3.68796 11.5449 3.60804C11.465 3.52812 11.3566 3.48322 11.2435 3.48322C11.1305 3.48322 11.0221 3.52812 10.9422 3.60804L9.7379 4.81288C9.6783 4.87241 9.63769 4.94829 9.62121 5.03091C9.60473 5.11352 9.61312 5.19917 9.64532 5.27702C9.67752 5.35486 9.73208 5.42141 9.8021 5.46825C9.87213 5.51509 9.95447 5.54011 10.0387 5.54015ZM12.7407 7.09744H11.037C10.924 7.09744 10.8157 7.14231 10.7358 7.22219C10.6559 7.30207 10.611 7.4104 10.611 7.52337C10.611 7.63633 10.6559 7.74466 10.7358 7.82454C10.8157 7.90442 10.924 7.94929 11.037 7.94929H12.7407C12.8536 7.94929 12.962 7.90442 13.0419 7.82454C13.1217 7.74466 13.1666 7.63633 13.1666 7.52337C13.1666 7.4104 13.1217 7.30207 13.0419 7.22219C12.962 7.14231 12.8536 7.09744 12.7407 7.09744ZM10.3401 9.6317C10.2595 9.55519 10.1523 9.51317 10.0412 9.51459C9.93017 9.51602 9.82405 9.56077 9.74551 9.63931C9.66697 9.71785 9.62222 9.82397 9.6208 9.93503C9.61937 10.0461 9.6614 10.1533 9.7379 10.2339L10.9422 11.4387C11.0221 11.5186 11.1305 11.5635 11.2435 11.5635C11.3566 11.5635 11.465 11.5186 11.5449 11.4387C11.6248 11.3588 11.6697 11.2504 11.6697 11.1373C11.6697 11.0243 11.6248 10.9159 11.5449 10.836L10.3401 9.6317ZM7.62957 10.5048C7.5166 10.5048 7.40827 10.5497 7.32839 10.6296C7.24851 10.7095 7.20364 10.8178 7.20364 10.9308V12.6345C7.20364 12.7474 7.24851 12.8558 7.32839 12.9357C7.40827 13.0155 7.5166 13.0604 7.62957 13.0604C7.74253 13.0604 7.85086 13.0155 7.93074 12.9357C8.01062 12.8558 8.05549 12.7474 8.05549 12.6345V10.9308C8.05549 10.8178 8.01062 10.7095 7.93074 10.6296C7.85086 10.5497 7.74253 10.5048 7.62957 10.5048ZM4.91908 9.6317L3.71424 10.836C3.63432 10.9159 3.58942 11.0243 3.58942 11.1373C3.58942 11.2504 3.63432 11.3588 3.71424 11.4387C3.79416 11.5186 3.90256 11.5635 4.01558 11.5635C4.12861 11.5635 4.23701 11.5186 4.31693 11.4387L5.52123 10.2339C5.59774 10.1533 5.63976 10.0461 5.63834 9.93503C5.63691 9.82397 5.59216 9.71785 5.51362 9.63931C5.43508 9.56077 5.32896 9.51602 5.2179 9.51459C5.10683 9.51317 4.99961 9.55519 4.91908 9.6317ZM4.64808 7.52337C4.64808 7.4104 4.60321 7.30207 4.52333 7.22219C4.44346 7.14231 4.33512 7.09744 4.22216 7.09744H2.51846C2.40549 7.09744 2.29716 7.14231 2.21728 7.22219C2.1374 7.30207 2.09253 7.4104 2.09253 7.52337C2.09253 7.63633 2.1374 7.74466 2.21728 7.82454C2.29716 7.90442 2.40549 7.94929 2.51846 7.94929H4.22216C4.33512 7.94929 4.44346 7.90442 4.52333 7.82454C4.60321 7.74466 4.64808 7.63633 4.64808 7.52337ZM4.31693 3.60804C4.23701 3.52812 4.12861 3.48322 4.01558 3.48322C3.90256 3.48322 3.79416 3.52812 3.71424 3.60804C3.63432 3.68796 3.58942 3.79636 3.58942 3.90938C3.58942 4.02241 3.63432 4.13081 3.71424 4.21073L4.91908 5.41503C4.99961 5.49154 5.10683 5.53356 5.2179 5.53214C5.32896 5.53071 5.43508 5.48596 5.51362 5.40742C5.59216 5.32888 5.63691 5.22276 5.63834 5.1117C5.63976 5.00063 5.59774 4.89341 5.52123 4.81288L4.31693 3.60804Z" fill="#343330"/>
</svg>
