<svg width="12" height="12" viewBox="0 0 12 12" fill="none" xmlns="http://www.w3.org/2000/svg">
<path d="M6 1.875C5.10999 1.875 4.23996 2.13892 3.49994 2.63339C2.75991 3.12785 2.18314 3.83066 1.84254 4.65293C1.50195 5.47519 1.41283 6.37999 1.58647 7.25291C1.7601 8.12582 2.18869 8.92764 2.81802 9.55698C3.44736 10.1863 4.24918 10.6149 5.1221 10.7885C5.99501 10.9622 6.89981 10.8731 7.72208 10.5325C8.54434 10.1919 9.24715 9.61509 9.74162 8.87507C10.2361 8.13505 10.5 7.26502 10.5 6.375C10.4986 5.18194 10.0241 4.03815 9.18048 3.19453C8.33686 2.35091 7.19306 1.87636 6 1.875ZM6 10.125C5.25832 10.125 4.5333 9.90507 3.91661 9.49301C3.29993 9.08096 2.81928 8.49529 2.53545 7.81006C2.25163 7.12484 2.17736 6.37084 2.32206 5.64341C2.46675 4.91598 2.8239 4.2478 3.34835 3.72335C3.8728 3.1989 4.54098 2.84175 5.26841 2.69706C5.99584 2.55236 6.74984 2.62662 7.43506 2.91045C8.12029 3.19428 8.70596 3.67493 9.11801 4.29161C9.53007 4.9083 9.75 5.63332 9.75 6.375C9.74889 7.36922 9.35344 8.3224 8.65042 9.02542C7.9474 9.72844 6.99422 10.1239 6 10.125ZM8.14032 4.23469C8.17518 4.26952 8.20284 4.31087 8.22171 4.3564C8.24058 4.40192 8.2503 4.45072 8.2503 4.5C8.2503 4.54928 8.24058 4.59808 8.22171 4.6436C8.20284 4.68913 8.17518 4.73049 8.14032 4.76531L6.26532 6.64031C6.23047 6.67515 6.18911 6.70279 6.14359 6.72165C6.09807 6.7405 6.04928 6.75021 6 6.75021C5.95073 6.75021 5.90194 6.7405 5.85642 6.72165C5.81089 6.70279 5.76953 6.67515 5.73469 6.64031C5.69985 6.60547 5.67221 6.56411 5.65335 6.51859C5.6345 6.47306 5.62479 6.42427 5.62479 6.375C5.62479 6.32573 5.6345 6.27694 5.65335 6.23141C5.67221 6.18589 5.69985 6.14453 5.73469 6.10969L7.60969 4.23469C7.64452 4.19982 7.68588 4.17216 7.7314 4.15329C7.77692 4.13442 7.82572 4.12471 7.875 4.12471C7.92428 4.12471 7.97308 4.13442 8.0186 4.15329C8.06413 4.17216 8.10549 4.19982 8.14032 4.23469ZM4.5 0.75C4.5 0.650544 4.53951 0.555161 4.60984 0.484835C4.68016 0.414509 4.77555 0.375 4.875 0.375H7.125C7.22446 0.375 7.31984 0.414509 7.39017 0.484835C7.46049 0.555161 7.5 0.650544 7.5 0.75C7.5 0.849456 7.46049 0.944839 7.39017 1.01517C7.31984 1.08549 7.22446 1.125 7.125 1.125H4.875C4.77555 1.125 4.68016 1.08549 4.60984 1.01517C4.53951 0.944839 4.5 0.849456 4.5 0.75Z" fill="#6D39E4"/>
</svg>
