<svg width="43" height="23" viewBox="0 0 43 23" fill="none" xmlns="http://www.w3.org/2000/svg">
<path d="M39.2566 19.6463C38.9401 20.3459 38.6463 21.1808 38.1038 21.745C37.5387 22.3317 36.8607 22.5122 36.047 22.5348L16.4503 22.6476L10.0763 22.7153C9.0592 22.7379 7.90646 22.8507 6.88933 22.6928C5.44275 22.4671 3.90576 21.6998 2.86603 20.6618C1.62288 19.4206 0.741362 17.7959 0.334511 16.1034C-0.117545 14.1853 0.108483 12.1092 0.108483 10.1459L0.0180664 0.577828L42.76 0.0136719L42.7826 2.38313L3.72493 3.10525L3.83795 9.33355C3.83795 11.2517 3.65712 13.418 4.13178 15.3136C4.40302 16.3742 5.01329 17.4123 5.82699 18.1569C6.45987 18.7437 7.36399 19.353 8.20029 19.5335C9.01399 19.714 9.8955 19.6689 10.7318 19.6689L14.3483 19.6463L24.5873 19.5786L34.3744 19.3981C35.8209 19.3755 37.9456 19.1047 39.2566 19.6463Z" fill="white"/>
</svg>
