<svg width="27" height="3" viewBox="0 0 27 3" fill="none" xmlns="http://www.w3.org/2000/svg">
<path d="M0.976299 0.460733L1.1103 0.438406C2.0259 0.282083 3.14248 0.39374 4.05809 0.39374L10.9586 0.349073L20.7177 0.215088C22.3702 0.192756 24.0674 0.0810994 25.72 0.148095C26.0103 0.170427 26.2113 0.192753 26.4569 0.39374C26.7919 0.661722 26.8589 0.840382 26.8812 1.26469C26.7026 1.622 26.5909 1.73365 26.2336 1.95697C25.452 2.13562 24.4247 2.00163 23.6208 2.00163L18.3951 2.0463L7.96616 2.18029L2.04822 2.26962C1.62392 2.26962 1.28895 2.24729 0.909306 2.0463C0.708319 1.80065 0.552002 1.555 0.552002 1.19769C0.574334 0.795721 0.730648 0.706383 0.976299 0.460733Z" fill="black"/>
</svg>
