<svg width="40" height="18" viewBox="0 0 40 18" fill="none" xmlns="http://www.w3.org/2000/svg">
<path d="M35.8074 17.6681L35.9383 17.7223L36.0168 17.6044C36.8794 16.3106 38.0192 15.6824 39.5519 15.332L39.6871 15.3011L39.6859 15.1624L39.5519 0.445696L39.5503 0.271735L39.3764 0.274856L0.786946 0.967137L0.614506 0.970231L0.61763 1.14267L0.729261 7.3047C0.72924 7.70632 0.721156 8.1206 0.712932 8.54202C0.682299 10.1119 0.649733 11.7808 1.02485 13.2634L1.02495 13.2637C1.30093 14.3447 1.92086 15.4015 2.75007 16.1617C3.36512 16.7311 4.30596 17.3543 5.171 17.5647L5.17098 17.5647L5.17531 17.5657C5.88487 17.7191 6.61208 17.7124 7.30628 17.7061C7.44324 17.7048 7.57891 17.7036 7.71291 17.7036L7.71399 17.7036L11.2871 17.6812H11.2871L21.4035 17.6142L21.4055 17.6142L31.0748 17.4356C31.0748 17.4356 31.0749 17.4356 31.075 17.4356C31.3833 17.4306 31.7243 17.4141 32.0792 17.3968C32.1331 17.3942 32.1874 17.3916 32.2419 17.389C32.6566 17.3691 33.088 17.3504 33.5151 17.349C34.3744 17.3463 35.1935 17.4141 35.8074 17.6681Z" fill="white" stroke="white" stroke-width="0.344875"/>
</svg>
