<svg width="27" height="3" viewBox="0 0 27 3" fill="none" xmlns="http://www.w3.org/2000/svg">
<path d="M1.1103 0.636459C1.78025 0.5248 2.51721 0.569467 3.2095 0.569467L7.09523 0.5248C9.17209 0.502468 25.7423 0.10049 26.2783 0.435467C26.6356 0.658786 26.7919 1.08309 26.8366 1.48507C26.7026 1.79771 26.5909 1.86471 26.3006 2.04336C24.9607 2.26668 23.4421 2.15502 22.0799 2.17735L13.6161 2.26668L5.35335 2.35601C4.0581 2.37835 2.65119 2.51233 1.35594 2.37834C1.19962 2.35601 1.06564 2.31135 0.931646 2.24435C0.641332 1.93171 0.596666 1.79771 0.552002 1.37341C0.708325 0.949102 0.708325 0.904442 1.1103 0.636459Z" fill="black"/>
</svg>
