<svg width="26" height="25" viewBox="0 0 26 25" fill="none" xmlns="http://www.w3.org/2000/svg">
<path d="M12.496 4.43398C12.496 4.24751 12.5074 4.0853 12.4899 3.92536C12.4831 3.86396 12.4225 3.79195 12.3664 3.75481C11.6918 3.30531 11.428 2.35401 11.7873 1.63845C12.1867 0.841022 13.1509 0.51811 13.9074 0.928193C14.7192 1.3686 15.03 2.39797 14.554 3.15977C14.4198 3.37353 14.1939 3.52892 14.015 3.71615C13.9726 3.76087 13.9256 3.82227 13.9218 3.87836C13.9097 4.06104 13.9173 4.24448 13.9173 4.42489C14.1492 4.42489 14.3819 4.42186 14.6139 4.42489C15.5288 4.43853 16.4483 4.36197 17.3533 4.5636C18.3107 4.7766 19.1907 5.17228 19.9745 5.75216C20.828 6.38282 21.4799 7.19768 21.934 8.1596C22.1204 8.55452 22.2667 8.96915 22.4418 9.40273C22.7033 9.47095 23.0247 9.54979 23.3431 9.64075C24.8008 10.0569 25.7574 11.3266 25.7877 12.8418C25.8218 14.5284 24.8925 15.701 23.428 16.2187C23.0748 16.3438 22.7049 16.4196 22.3456 16.5273C22.291 16.5439 22.225 16.6015 22.2084 16.6546C21.9105 17.6249 21.3533 18.4321 20.6256 19.1189C20.0261 19.6851 19.3332 20.1293 18.5525 20.3954C18.2334 20.5045 18.1257 20.6758 18.0234 20.973C17.6952 21.922 17.2548 22.8134 16.3982 23.4153C15.4447 24.0854 14.3812 24.4962 13.2161 24.4909C11.0164 24.4818 9.24262 23.1697 8.53692 21.2375C8.37319 20.7903 8.16322 20.5364 7.69628 20.3476C6.07642 19.6927 4.92879 18.5163 4.23825 16.9063C4.17154 16.7501 4.0965 16.6592 3.91458 16.6235C3.05196 16.4537 2.31291 16.0414 1.63146 15.4873C0.503539 14.5701 0.14121 12.7357 0.900735 11.3698C1.32067 10.6148 1.8816 10.0296 2.72375 9.76582C3.10199 9.64757 3.48934 9.55964 3.87061 9.44897C3.92367 9.43381 3.99038 9.3709 4.00023 9.31935C4.18595 8.39534 4.64606 7.60398 5.22897 6.88842C6.44405 5.3959 8.06998 4.65684 9.94909 4.45521C10.582 4.38699 11.2278 4.43777 11.8684 4.43398C12.0601 4.43323 12.2519 4.43398 12.4968 4.43398H12.496ZM13.113 6.00913C13.113 6.00913 13.113 6.00382 13.113 6.00079C12.3308 6.00079 11.5477 5.99093 10.7655 6.00458C10.2553 6.01367 9.73078 5.98942 9.23732 6.09554C6.90796 6.59658 5.46925 8.42869 5.22214 10.7876C5.11299 11.8299 5.17287 12.8911 5.1797 13.9432C5.18424 14.5905 5.27672 15.2273 5.46016 15.8541C6.04762 17.8598 8.11698 19.4418 10.2114 19.4501C11.9965 19.457 13.7823 19.4547 15.5675 19.4464C16.2269 19.4433 16.8856 19.4388 17.5246 19.2083C18.3387 18.915 19.0876 18.5246 19.6842 17.8871C20.656 16.8502 21.0683 15.5843 21.1153 14.1949C21.1494 13.186 21.1168 12.1748 21.1168 11.1651C21.1168 10.0577 20.8038 9.05102 20.1549 8.1505C19.1513 6.76031 17.8074 6.01671 16.0783 6.00989C15.0899 6.0061 14.1007 6.00989 13.1123 6.00989L13.113 6.00913ZM10.1795 21.0313C10.4782 22.11 11.7812 22.9885 13.3184 23.0226C14.8329 23.056 16.0185 22.0099 16.3376 21.0313H10.1795ZM3.66595 10.9438C2.64037 11.2932 1.90206 12.0467 2.05139 13.1981C2.16964 14.1085 2.96328 15.0181 3.66595 15.0059V10.9438ZM22.67 14.993C23.9813 14.4958 24.3702 13.8159 24.252 12.6197C24.1762 11.8526 23.4022 11.1977 22.67 10.9847V14.993ZM13.7073 2.38736C13.7179 2.07809 13.5034 1.84917 13.1911 1.83705C12.9326 1.82719 12.6597 2.05763 12.6453 2.29867C12.6294 2.55943 12.9084 2.85733 13.1737 2.86415C13.4844 2.87249 13.6967 2.68298 13.7073 2.38812V2.38736Z" fill="black"/>
</svg>
