<svg width="30" height="20" viewBox="0 0 30 20" fill="none" xmlns="http://www.w3.org/2000/svg">
<path d="M15.2183 12.458C23.1346 12.458 29.5505 9.70117 29.5505 6.30418C29.5505 2.9072 23.1346 0.150391 15.2183 0.150391C7.30192 0.150391 0.885986 2.9072 0.885986 6.30418C0.885986 9.70117 7.30192 12.458 15.2183 12.458ZM15.2183 14.9149C9.74848 14.9149 4.91134 13.5595 1.86013 11.466C1.23869 12.1581 0.885986 12.9021 0.885986 13.6864C0.885986 17.0834 7.30192 19.8402 15.2183 19.8402C23.1346 19.8402 29.5505 17.0834 29.5505 13.6864C29.5505 12.9021 29.1978 12.1581 28.5764 11.4718C25.5252 13.5595 20.688 14.9149 15.2183 14.9149Z" fill="black"/>
</svg>
