<svg width="19" height="20" viewBox="0 0 19 20" fill="none" xmlns="http://www.w3.org/2000/svg">
<path d="M9.06458 0.117188C10.6948 0.161851 12.4144 0.519158 13.7543 1.52409C14.4689 2.08239 15.1165 2.57369 15.6971 3.28831L15.8311 3.44464C16.1438 3.80195 16.3894 4.18158 16.6351 4.58356C17.9973 6.81674 18.7566 9.92087 18.109 12.489C17.5507 14.7222 16.6128 16.3524 14.8262 17.8487C12.861 19.4789 10.7172 19.9032 8.23832 19.6575C7.21105 19.4566 6.29544 19.1439 5.3575 18.6079C3.19132 17.3797 1.62809 15.3475 0.980469 12.958C1.24845 12.6677 1.4941 12.757 1.87374 12.7347C2.16406 12.489 2.16405 12.1094 2.25337 11.7521L3.14665 9.11692C3.34763 8.58095 3.61562 8.08966 3.83894 7.57603L1.15912 5.90114C1.51643 4.98553 1.98539 4.11459 2.63302 3.37764C4.35257 1.41244 6.47409 0.27351 9.06458 0.117188Z" fill="#F3E253"/>
</svg>
