<svg width="27" height="3" viewBox="0 0 27 3" fill="none" xmlns="http://www.w3.org/2000/svg">
<path d="M1.19963 1.07714C3.27649 1.21114 5.42035 1.09948 7.49721 1.07714L18.9981 0.920819L24.1121 0.831499C24.7597 0.809168 25.787 0.675171 26.3676 0.965485C26.5463 1.21114 26.6803 1.41213 26.6133 1.72477C26.5239 2.12675 26.3229 2.28306 26.0103 2.52871L25.8316 2.55104C24.4471 2.6627 22.9955 2.59571 21.6333 2.61805L13.4151 2.72971L5.84465 2.84136C4.50474 2.8637 3.09784 2.97535 1.75793 2.90836C1.33362 2.88603 1.1103 2.84136 0.77532 2.57338C0.552002 2.2384 0.552002 2.03741 0.552002 1.65777C0.752989 1.27813 0.842321 1.2558 1.19963 1.07714Z" fill="black"/>
</svg>
