<svg width="27" height="3" viewBox="0 0 27 3" fill="none" xmlns="http://www.w3.org/2000/svg">
<path d="M0.933535 0.830812C1.42484 0.652157 2.22878 0.763824 2.76475 0.741493L6.78448 0.696826L21.6352 0.518174L24.8733 0.473508C25.2529 0.473508 25.8559 0.384172 26.2132 0.562827C26.5705 0.71915 26.6151 0.964811 26.7491 1.29979C26.6598 1.72409 26.5928 1.79109 26.3248 2.0814C26.2132 2.1484 26.0792 2.19305 25.9452 2.23771C25.4316 2.34937 24.7616 2.28239 24.2256 2.30472L20.7865 2.34937L6.36017 2.52804L2.78707 2.57269C2.29577 2.57269 1.64815 2.66202 1.17918 2.57269C1.02286 2.55036 0.978193 2.50571 0.844202 2.41638C0.687879 2.1484 0.553891 1.92507 0.553891 1.61243C0.531559 1.25512 0.710216 1.07646 0.933535 0.830812Z" fill="black"/>
</svg>
