<svg width="7" height="26" viewBox="0 0 7 26" fill="none" xmlns="http://www.w3.org/2000/svg">
<path d="M2.91087 25.3503L2.77688 7.19455L2.66522 7.14988C1.74962 6.85957 0.945672 6.3236 0.499035 5.45266C0.0523985 4.60405 -0.0145977 3.59912 0.32038 2.70584C0.633026 1.81257 1.28065 1.12028 2.15159 0.740642C2.91088 0.405664 4.02747 0.450328 4.76442 0.740642C5.70236 1.12028 6.43931 1.92423 6.77428 2.86217C7.0646 3.64378 7.04227 4.55939 6.66262 5.29634C6.41697 5.76531 6.03733 6.21194 5.61303 6.52459C5.43437 6.65858 4.65975 7.01589 4.59275 7.19455V25.328C4.59275 25.328 3.53617 25.3503 2.91087 25.3503Z" fill="black"/>
</svg>
