<svg width="29" height="17" viewBox="0 0 29 17" fill="none" xmlns="http://www.w3.org/2000/svg">
<path d="M14.3342 11.4438C8.86445 11.4438 4.02731 10.1281 0.9761 8.09582C0.354661 8.76765 0.00195312 9.48986 0.00195312 10.2513C0.00195312 13.5488 6.41788 16.2249 14.3342 16.2249C22.2506 16.2249 28.6665 13.5488 28.6665 10.2513C28.6665 9.48986 28.3138 8.76765 27.6924 8.10142C24.6411 10.1281 19.804 11.4438 14.3342 11.4438ZM14.3342 4.27762C8.86445 4.27762 4.02731 2.96196 0.9761 0.929688C0.354661 1.60151 0.00195312 2.32373 0.00195312 3.08513C0.00195312 6.38267 6.41788 9.05877 14.3342 9.05877C22.2506 9.05877 28.6665 6.38267 28.6665 3.08513C28.6665 2.32373 28.3138 1.60151 27.6924 0.935287C24.6411 2.96196 19.804 4.27762 14.3342 4.27762Z" fill="black"/>
</svg>
