<svg width="119" height="103" viewBox="0 0 119 103" fill="none" xmlns="http://www.w3.org/2000/svg">
<path d="M47.4063 0.609988L48.5006 0.542988C52.096 0.453661 55.2448 1.52559 58.1033 3.75877C58.9742 4.45106 59.7782 5.27734 60.5598 6.03662C61.989 4.22774 63.2396 2.7985 65.3611 1.74891C70.0061 -0.528941 75.3658 0.319669 79.3632 3.53545C79.7652 3.8481 80.8148 5.21034 81.2167 5.23267C81.7304 5.27734 82.5566 5.03169 83.1149 4.9647C85.1025 4.76371 87.1123 4.96469 89.0105 5.61232C92.271 6.72891 95.0401 8.62711 96.983 11.4856C97.5636 12.3565 98.0103 13.3168 98.4792 14.2771C99.5958 14.4111 100.712 14.5227 101.762 14.88C104.911 15.9296 107.457 18.0288 108.908 21.0213C110.36 23.9691 110.382 26.9169 109.333 29.9987C111.03 31.2046 112.571 32.0085 113.888 33.6834C115.876 36.2069 116.791 39.2664 116.389 42.4599L116.367 42.7055C116.054 45.1843 115.094 47.2835 113.308 49.0254C116.077 52.2412 117.886 55.8366 118.02 60.1467C118.198 65.685 115.697 71.3572 111.231 74.6847C110.471 75.243 109.712 75.779 108.908 76.2479C108.573 76.4489 107.613 76.7839 107.39 77.0295C107.39 77.0519 107.546 91.2996 107.568 92.9521L107.591 95.6766C107.591 95.7213 107.613 96.1456 107.591 96.1679L107.323 96.2796C106.407 96.6815 105.335 96.8155 104.509 97.4185C103.169 98.3564 103.102 99.8527 102.052 100.947C101.494 101.505 100.779 101.885 99.9978 102.041C99.0152 102.22 97.9209 102.153 96.9383 102.175L91.1991 102.242L70.9887 102.443C69.5372 102.51 67.9739 102.198 66.6787 101.505C63.9095 100.031 62.4803 97.6641 61.6094 94.7387C59.3985 97.2622 56.0711 99.5623 52.699 100.165C49.4608 100.768 46.1334 100.299 43.1633 98.8701C39.9921 97.3515 37.2453 94.5377 36.0841 91.1879L36.0171 91.0093C33.9402 91.8802 31.774 92.5278 29.4962 92.2598C24.8512 91.7239 21.0324 88.8654 19.7372 84.265C19.6702 84.0641 19.3799 82.5455 19.3575 82.5232C19.1789 82.3892 17.9953 82.3222 17.705 82.2552C14.6008 81.6522 11.7647 79.9773 9.82184 77.4985C7.9013 75.0643 6.91869 71.8485 7.32067 68.7444L7.343 68.5881C6.67304 68.2085 5.98076 67.9181 5.35547 67.4492C3.01062 65.7073 1.20175 62.6255 0.799774 59.7447C0.241478 55.7026 1.62605 52.6208 4.01556 49.4944C3.50192 48.4448 2.89897 47.3952 2.56399 46.2786C2.02802 44.5367 1.9387 42.8172 2.22901 41.0306C2.8543 37.1225 5.33313 34.2417 8.45959 31.9862C8.14695 31.0706 7.87896 30.1103 7.78964 29.1501C7.47699 25.912 8.74991 22.7185 10.8044 20.262C13.06 17.5822 16.1417 16.0413 19.6255 15.7286C20.2061 14.2771 20.7198 12.8702 21.68 11.5972C24.5162 7.80083 29.3175 5.92496 33.9849 6.30461C34.7442 6.3716 35.4588 6.55025 36.1957 6.70658C36.3297 6.72891 36.754 6.88523 36.8657 6.8629C36.888 6.8629 37.3793 6.21527 37.4463 6.12595C38.1833 5.18801 38.9872 4.27241 39.9251 3.51313C42.0913 1.77124 44.6818 1.01196 47.4063 0.609988Z" fill="black"/>
</svg>
