<svg width="11" height="11" viewBox="0 0 11 11" fill="none" xmlns="http://www.w3.org/2000/svg">
<path d="M0.964281 0.343246C2.19253 0.052932 3.97908 0.231583 5.16266 0.611224C7.01621 1.19185 8.6911 2.57643 9.56204 4.31831C10.232 5.68055 10.3436 7.13212 10.366 8.60603C10.366 9.05266 10.433 9.63328 10.2543 10.0576C10.0757 10.4372 9.83002 10.5266 9.49505 10.7052C9.1824 10.7945 8.82509 10.7499 8.55711 10.5712C8.37845 10.4596 8.17746 10.2363 8.11047 10.0129C8.04347 9.76729 8.11047 9.29832 8.08814 9.008C8.0658 8.04773 8.08814 6.9088 7.77549 6.01553L7.7085 5.88154C7.55218 5.5019 7.39585 5.14459 7.17253 4.80961C6.45791 3.78235 5.31899 2.93374 4.09074 2.68809L3.93441 2.66576C3.04114 2.4871 1.1206 2.91141 0.495311 2.24145C0.249661 1.97347 0.138006 1.59383 0.227333 1.23652C0.31666 0.745219 0.606972 0.588896 0.964281 0.343246Z" fill="black"/>
</svg>
