<svg width="73" height="89" viewBox="0 0 73 89" fill="none" xmlns="http://www.w3.org/2000/svg">
<path d="M26.8433 55.7364L26.8433 55.7364L26.7763 49.5504L26.767 48.6871L25.9037 48.6976L18.6011 48.787L18.6008 48.787C18.2462 48.7915 17.8972 48.7991 17.5529 48.8067C16.1255 48.8379 14.7791 48.8674 13.4501 48.6629L13.4474 48.6625C9.94833 48.1356 6.58473 46.2364 4.47478 43.4394C3.05656 41.5119 2.09295 39.2804 1.77945 36.9395L1.77878 36.9347C1.24731 33.1294 2.06079 29.2152 4.35801 26.1866C6.97665 22.7514 10.4498 21.1597 14.752 20.5789L15.4441 20.4854L15.4964 19.789C15.779 16.0281 16.597 12.9249 18.6784 9.84525L18.6786 9.84502C21.4197 5.78642 26.0342 2.93594 30.8731 2.03668L30.8736 2.03659C35.9306 1.09375 41.2309 2.12561 45.4289 5.06629L45.4305 5.06747C49.6366 7.99898 52.0316 12.2491 52.9357 17.2863L53.09 18.1457L53.9474 17.9806C57.2868 17.3376 61.1327 18.3127 64.0491 20.1221L64.0503 20.1228C67.5378 22.2788 70.0996 25.8563 71.0093 29.8721C71.875 33.7796 71.1569 37.8316 69.0041 41.1879C66.4768 45.117 62.6093 47.6668 58.0071 48.2579C56.7667 48.4148 55.4771 48.4099 54.1565 48.4048C53.668 48.403 53.1752 48.4011 52.6792 48.4073L52.677 48.4074C52.2481 48.4139 51.8132 48.4016 51.3476 48.3884C51.0155 48.379 50.6677 48.3692 50.2953 48.3654C49.455 48.357 48.5515 48.3829 47.7464 48.5618L47.0604 48.7142L47.0713 49.4168L47.317 65.2278L47.3178 65.2823L47.3255 65.3363L47.3467 65.4847C47.52 66.8703 48.4921 68.171 49.4616 68.9121C50.3451 69.6002 51.3327 69.8947 52.2713 70.0663C52.3058 70.6078 52.3615 71.2019 52.5029 71.7497L52.5124 71.7867L52.5252 71.8226L52.5917 72.01C52.5124 72.0777 52.423 72.1488 52.3224 72.2258C52.2697 72.2662 52.2118 72.3096 52.1504 72.3556C51.9365 72.5159 51.6814 72.7072 51.4625 72.9062L51.4577 72.9106C50.2158 74.057 49.2489 75.3834 48.4361 76.7998L48.4141 76.8383L48.3961 76.8788L47.4135 79.0896L47.3933 79.1351L47.3784 79.1826C46.6745 81.4354 46.4338 83.6889 46.7904 86.0662L46.7935 86.0869L46.7976 86.1074C46.8115 86.1769 46.8257 86.2486 46.8402 86.3219C46.89 86.5744 46.9439 86.8473 47.0061 87.1251L37.6716 87.2647C37.2339 87.2706 36.7645 87.2938 36.2957 87.3182L36.1697 87.3247C35.7373 87.3473 35.304 87.3699 34.8724 87.3823C33.9146 87.4098 33.0416 87.3835 32.3403 87.2201L32.3347 87.2189C31.1416 86.9494 30.0266 86.2661 29.0817 85.3632C28.1451 84.4459 27.4521 83.3426 27.2052 82.1463L27.2047 82.144C27.0649 81.4758 27.0738 80.77 27.0837 79.9886C27.0863 79.7814 27.089 79.569 27.0891 79.3504L27.089 79.3425L27.0443 74.4742L27.0443 74.4729L26.8433 55.7364Z" stroke="black" stroke-width="1.72438"/>
</svg>
