<svg width="8" height="26" viewBox="0 0 8 26" fill="none" xmlns="http://www.w3.org/2000/svg">
<path d="M3.05003 25.3503L2.91604 7.19455L2.80438 7.14988C1.88878 6.85957 1.08483 6.3236 0.638195 5.45266C0.191559 4.60405 0.124562 3.59912 0.45954 2.70584C0.772186 1.81257 1.41981 1.12028 2.29075 0.740642C3.05004 0.405664 4.16663 0.450328 4.90358 0.740642C5.84152 1.12028 6.57847 1.92423 6.91344 2.86217C7.20376 3.64378 7.18143 4.55939 6.80178 5.29634C6.55613 5.76531 6.17649 6.21194 5.75219 6.52459C5.57353 6.65858 4.79891 7.01589 4.73191 7.19455V25.328C4.73191 25.328 3.67533 25.3503 3.05003 25.3503Z" fill="black"/>
</svg>
