<svg width="4" height="8" viewBox="0 0 4 8" fill="none" xmlns="http://www.w3.org/2000/svg">
<path d="M2.39964 1.54187C2.64068 1.62677 2.87415 1.67907 3.07502 1.78974C3.24937 1.88601 3.41006 2.03003 3.53665 2.18618C3.7633 2.46437 3.74359 2.67813 3.51619 2.95177C3.33502 3.17007 3.0015 3.24891 2.74605 3.12384C2.65206 3.0776 2.55806 3.01771 2.48453 2.94419C2.24197 2.70162 1.9562 2.68722 1.65452 2.77743C1.49154 2.82594 1.35434 2.92675 1.35586 3.1208C1.35738 3.30652 1.46425 3.42476 1.6439 3.46873C1.92588 3.53847 2.20862 3.6029 2.49136 3.67036C3.06062 3.80529 3.53665 4.05998 3.69129 4.67927C3.86563 5.38043 3.63595 5.95879 3.08412 6.39692C2.91054 6.53488 2.66873 6.58718 2.42238 6.69406C2.42541 6.71907 2.43375 6.7926 2.44284 6.86688C2.47923 7.17994 2.30034 7.41113 2.00775 7.42781C1.66589 7.44752 1.43393 7.24892 1.42939 6.93131C1.42484 6.6319 1.42484 6.62963 1.07994 6.57581C0.76916 6.52654 0.492487 6.40526 0.272664 6.18013C-0.0980021 5.80037 -0.0191692 5.32206 0.443216 5.05903C0.633477 4.95064 0.79569 4.9946 0.95184 5.12119C1.27475 5.38194 1.63481 5.51611 2.05777 5.46911C2.27836 5.44486 2.43526 5.34253 2.44967 5.17804C2.46483 5.01279 2.34051 4.86422 2.12296 4.82102C1.84478 4.76644 1.5628 4.73536 1.28461 4.6823C0.412896 4.51478 -0.0434248 3.8303 0.0861948 2.87597C0.17943 2.19073 0.638025 1.83219 1.25353 1.6389C1.38391 1.59796 1.45061 1.57674 1.40665 1.41604C1.34979 1.20683 1.37936 1.00823 1.5825 0.86876C1.7667 0.742172 1.94407 0.745962 2.14191 0.840713C2.36325 0.946076 2.42693 1.12118 2.41404 1.34479C2.41025 1.41453 2.40343 1.48426 2.39888 1.54187H2.39964Z" fill="black"/>
</svg>
