<svg width="29" height="28" viewBox="0 0 29 28" fill="none" xmlns="http://www.w3.org/2000/svg">
<path d="M14.3342 12.7568C22.2506 12.7568 28.6665 10 28.6665 6.60301C28.6665 3.20602 22.2506 0.449219 14.3342 0.449219C6.41788 0.449219 0.00195312 3.20602 0.00195312 6.60301C0.00195312 10 6.41788 12.7568 14.3342 12.7568ZM14.3342 22.5959C8.86445 22.5959 4.02731 21.2406 0.9761 19.1471C0.354661 19.8391 0.00195312 20.5831 0.00195312 21.3675C0.00195312 24.7645 6.41788 27.5213 14.3342 27.5213C22.2506 27.5213 28.6665 24.7645 28.6665 21.3675C28.6665 20.5831 28.3138 19.8391 27.6924 19.1528C24.6411 21.2406 19.804 22.5959 14.3342 22.5959ZM14.3342 15.2137C8.86445 15.2137 4.02731 13.8584 0.9761 11.7648C0.354661 12.4569 0.00195312 13.2009 0.00195312 13.9853C0.00195312 17.3822 6.41788 20.139 14.3342 20.139C22.2506 20.139 28.6665 17.3822 28.6665 13.9853C28.6665 13.2009 28.3138 12.4569 27.6924 11.7706C24.6411 13.8584 19.804 15.2137 14.3342 15.2137Z" fill="black"/>
</svg>
