<svg width="5" height="8" viewBox="0 0 5 8" fill="none" xmlns="http://www.w3.org/2000/svg">
<path d="M3.11964 6.62554C3.11055 7.17661 2.98017 7.4025 2.64058 7.41539C2.53067 7.41993 2.39802 7.37218 2.31085 7.3032C2.21837 7.22967 2.14484 7.11143 2.10467 6.99772C2.06601 6.88857 2.08193 6.76047 2.07587 6.66875C1.81132 6.57475 1.56573 6.49213 1.32392 6.39814C1.23978 6.36554 1.15867 6.31248 1.0897 6.25336C0.490869 5.7417 0.690984 5.3771 1.18824 4.95262C1.23144 4.91623 1.34211 4.92154 1.402 4.94958C1.54981 5.0178 1.69231 5.10119 1.82496 5.19442C2.12589 5.40515 2.46018 5.46124 2.8172 5.44077C2.97714 5.43168 3.09311 5.37104 3.11964 5.20048C3.14542 5.03145 3.08023 4.8897 2.91877 4.84346C2.68151 4.77524 2.4344 4.74416 2.19184 4.69186C1.79843 4.60696 1.39442 4.55542 1.11319 4.20598C0.426438 3.35246 0.667485 2.173 1.6438 1.67574C1.76129 1.61586 1.89622 1.58933 2.05388 1.53779C2.02508 1.16712 2.02356 0.741876 2.57009 0.74415C2.93166 0.745666 3.09236 1.04887 3.07189 1.56356C3.44862 1.6295 3.81625 1.74624 4.0808 2.04186C4.20208 2.17755 4.30441 2.35568 4.3461 2.53078C4.39462 2.73392 4.29531 2.92191 4.10278 3.03334C3.8913 3.15613 3.6692 3.21905 3.43801 3.08564C3.34022 3.02879 3.25078 2.95678 3.1583 2.89007C2.8786 2.68844 2.56478 2.68314 2.26461 2.79608C2.15167 2.83853 2.03872 2.99468 2.0084 3.11899C1.96823 3.28651 2.10846 3.38126 2.27143 3.42068C2.60192 3.50027 2.93166 3.58668 3.26291 3.664C4.48482 3.94825 4.71525 5.17471 4.13234 6.0161C3.88599 6.37085 3.57218 6.61644 3.12116 6.62402L3.11964 6.62554Z" fill="black"/>
</svg>
