<svg width="17" height="17" viewBox="0 0 17 17" fill="none" xmlns="http://www.w3.org/2000/svg">
<path d="M10.0515 1.06904L10.0515 1.06909L10.0555 1.06965L10.2093 1.09163C10.8413 1.20079 11.41 1.37537 12.0054 1.59584C13.8557 2.33653 15.1192 3.66275 15.9292 5.47908C16.1274 5.94164 16.2791 6.35457 16.3875 6.83062L16.4317 7.05169L16.4317 7.0517L16.4322 7.05436C16.8926 9.18096 16.5847 11.3666 15.4061 13.1999L15.4058 13.2003C14.2565 15.0003 12.4092 15.9427 10.3603 16.4064C8.2337 16.7337 5.80586 16.2706 4.06345 14.9857C2.36544 13.7229 1.40241 11.8256 1.11712 9.76451L1.09493 9.58698L1.09496 9.58698L1.09453 9.58398C0.855204 7.90869 1.26803 6.11852 2.14162 4.65343L2.22856 4.52303L2.22865 4.52309L2.23194 4.51775L2.40843 4.23095C3.62693 2.4489 5.49974 1.44287 7.58344 1.06928C8.37421 0.959746 9.27021 0.938819 10.0515 1.06904Z" fill="white" stroke="black" stroke-width="0.344875"/>
</svg>
