<svg width="8" height="26" viewBox="0 0 8 26" fill="none" xmlns="http://www.w3.org/2000/svg">
<path d="M3.1892 25.3503L3.0552 7.19455L2.94354 7.14988C2.02794 6.85957 1.22399 6.3236 0.777356 5.45266C0.330719 4.60405 0.263723 3.59912 0.5987 2.70584C0.911346 1.81257 1.55897 1.12028 2.42991 0.740642C3.1892 0.405664 4.30579 0.450328 5.04274 0.740642C5.98068 1.12028 6.71763 1.92423 7.0526 2.86217C7.34292 3.64378 7.32059 4.55939 6.94095 5.29634C6.69529 5.76531 6.31565 6.21194 5.89135 6.52459C5.71269 6.65858 4.93807 7.01589 4.87108 7.19455V25.328C4.87108 25.328 3.81449 25.3503 3.1892 25.3503Z" fill="black"/>
</svg>
