<svg width="73" height="89" viewBox="0 0 73 89" fill="none" xmlns="http://www.w3.org/2000/svg">
<path d="M46.0978 55.7364L46.0978 55.7364L46.1648 49.5504L46.1742 48.6871L47.0375 48.6976L54.34 48.787L54.3404 48.787C54.695 48.7915 55.044 48.7991 55.3883 48.8067C56.8157 48.8379 58.1621 48.8674 59.491 48.6629L59.4937 48.6625C62.9928 48.1356 66.3564 46.2364 68.4664 43.4394C69.8846 41.5119 70.8482 39.2804 71.1617 36.9395L71.1624 36.9347C71.6939 33.1294 70.8804 29.2152 68.5832 26.1866C65.9645 22.7514 62.4914 21.1597 58.1892 20.5789L57.4971 20.4854L57.4448 19.789C57.1622 16.0281 56.3442 12.9249 54.2628 9.84525L54.2626 9.84502C51.5214 5.78642 46.9069 2.93594 42.0681 2.03668L42.0676 2.03659C37.0105 1.09375 31.7102 2.12561 27.5123 5.06629L27.5106 5.06747C23.3045 7.99898 20.9096 12.2491 20.0055 17.2863L19.8512 18.1457L18.9938 17.9806C15.6544 17.3376 11.8084 18.3127 8.89209 20.1221L8.8909 20.1228C5.40331 22.2788 2.84151 25.8563 1.93189 29.8721C1.0662 33.7796 1.78429 37.8316 3.93702 41.1879C6.46439 45.117 10.3318 47.6668 14.934 48.2579C16.1745 48.4148 17.4641 48.4099 18.7847 48.4048C19.2732 48.403 19.7659 48.4011 20.262 48.4073L20.2641 48.4074C20.6931 48.4139 21.128 48.4016 21.5935 48.3884C21.9257 48.379 22.2735 48.3692 22.6458 48.3654C23.4861 48.357 24.3897 48.3829 25.1948 48.5618L25.8808 48.7142L25.8698 49.4168L25.6242 65.2278L25.6234 65.2823L25.6156 65.3363L25.5944 65.4847C25.4212 66.8703 24.449 68.171 23.4796 68.9121C22.596 69.6002 21.6085 69.8947 20.6699 70.0663C20.6353 70.6078 20.5797 71.2019 20.4383 71.7497L20.4288 71.7867L20.416 71.8226L20.3495 72.01C20.4288 72.0777 20.5181 72.1488 20.6188 72.2258C20.6715 72.2662 20.7294 72.3096 20.7908 72.3556C21.0046 72.5159 21.2598 72.7072 21.4787 72.9062L21.4835 72.9106C22.7254 74.057 23.6923 75.3834 24.505 76.7998L24.5271 76.8383L24.5451 76.8788L25.5277 79.0896L25.5479 79.1351L25.5627 79.1826C26.2667 81.4354 26.5073 83.6889 26.1507 86.0662L26.1476 86.0869L26.1435 86.1074C26.1296 86.1769 26.1155 86.2486 26.101 86.3219C26.0512 86.5744 25.9973 86.8473 25.935 87.1251L35.2696 87.2647C35.7073 87.2706 36.1767 87.2938 36.6455 87.3182L36.7714 87.3247C37.2039 87.3473 37.6372 87.3699 38.0687 87.3823C39.0266 87.4098 39.8995 87.3835 40.6008 87.2201L40.6065 87.2189C41.7995 86.9494 42.9145 86.2661 43.8594 85.3632C44.796 84.4459 45.4891 83.3426 45.7359 82.1463L45.7364 82.144C45.8763 81.4758 45.8673 80.77 45.8574 79.9886C45.8548 79.7814 45.8521 79.569 45.8521 79.3504L45.8522 79.3425L45.8968 74.4742L45.8968 74.4729L46.0978 55.7364Z" stroke="black" stroke-width="1.72438"/>
</svg>
