<svg width="7" height="4" viewBox="0 0 7 4" fill="none" xmlns="http://www.w3.org/2000/svg">
<path d="M3.25093 3.32092C2.18063 3.32092 1.30512 2.89796 0.61761 2.08992C0.501634 1.95348 0.406125 1.78293 0.352306 1.61162C0.253765 1.30007 0.405368 0.996113 0.694169 0.842237C0.983729 0.688361 1.199 0.736872 1.44763 1.01355C1.48553 1.05599 1.52267 1.0992 1.55602 1.14468C2.16243 1.9838 3.2767 2.19907 4.18707 1.7382C4.49103 1.58433 4.76543 1.31448 4.96858 1.03553C5.21114 0.702004 5.55907 0.724745 5.80846 0.861187C6.07906 1.00824 6.19352 1.34934 6.05329 1.65785C5.78268 2.25213 5.31196 2.65615 4.74345 2.94874C4.27652 3.18979 3.77699 3.31865 3.25169 3.32092H3.25093Z" fill="black"/>
</svg>
