<svg width="111" height="104" viewBox="0 0 111 104" fill="none" xmlns="http://www.w3.org/2000/svg">
<path d="M110.235 83.4962C109.224 71.3473 105.923 59.4996 100.505 48.5785C95.3158 38.7096 87.8385 30.2267 78.699 23.8394L86.9799 5.58703C87.2468 5.04153 87.3651 4.43523 87.3227 3.82939C87.2803 3.22356 87.0787 2.63965 86.7384 2.13666C86.4243 1.69542 86.0108 1.33431 85.5312 1.08256C85.0517 0.830801 84.5196 0.695469 83.9781 0.687511H27.6337C27.0536 0.686074 26.4826 0.830888 25.9733 1.10857C25.4641 1.38625 25.033 1.78783 24.7201 2.27619C24.4071 2.76455 24.2223 3.32393 24.1828 3.90262C24.1432 4.48131 24.2502 5.06063 24.4938 5.58703L32.9472 23.9084C23.8718 30.2988 16.4449 38.7545 11.2789 48.5785C3.86066 62.38 1.54892 79.2523 0.927854 90.949C0.82616 92.6613 1.08024 94.3762 1.67407 95.9855C2.2679 97.5948 3.18863 99.0636 4.37822 100.299C5.62962 101.512 7.11023 102.463 8.7335 103.097C10.3568 103.731 12.0901 104.035 13.8322 103.991H35.2245V97.2977H13.5562C12.7753 97.2952 12.003 97.135 11.2856 96.8267C10.5681 96.5184 9.92041 96.0683 9.38124 95.5035C8.84128 94.9431 8.42426 94.2762 8.1569 93.5454C7.88953 92.8146 7.77771 92.036 7.82858 91.2595C8.31163 82.2541 10.2093 65.1058 17.3516 51.7529C22.3865 42.1854 29.8317 34.0979 38.9508 28.2904H42.4012C40.0642 31.5258 37.9101 34.8894 35.949 38.3655C33.9558 42.0665 32.2598 45.92 30.877 49.8897L35.604 53.064C37.0005 48.9443 38.7195 44.9409 40.745 41.0913C43.2311 36.6143 46.0572 32.3348 49.1984 28.2904H52.6488C54.9618 33.8232 56.5954 39.6161 57.5138 45.5422C58.264 49.9417 58.6334 54.3977 58.6179 58.8606L64.0695 55.0307C63.9189 51.5606 63.5501 48.1034 62.9654 44.6796C62.0356 39.0846 60.5563 33.595 58.5489 28.2904H61.2402L64.38 21.3897H39.3994L33.0162 7.58823H78.5955L69.9696 26.4617C71.4478 27.2545 72.8662 28.1539 74.2135 29.153C82.6702 34.9824 89.6041 42.7565 94.4327 51.8219C99.2717 61.7599 102.276 72.4903 103.3 83.4962H110.235Z" fill="black"/>
</svg>
