<svg width="30" height="20" viewBox="0 0 30 20" fill="none" xmlns="http://www.w3.org/2000/svg">
<path d="M29.4572 9.7975C29.4147 9.7025 28.3922 7.43625 26.1034 5.1475C23.9834 3.0275 20.3372 0.5 14.9997 0.5C9.6622 0.5 6.01595 3.0275 3.89595 5.1475C1.6072 7.43625 0.584696 9.7025 0.542196 9.7975C0.514363 9.8616 0.5 9.93074 0.5 10.0006C0.5 10.0705 0.514363 10.1396 0.542196 10.2038C0.584696 10.3 1.6072 12.565 3.89595 14.8538C6.02095 16.9788 9.66345 19.5 14.9997 19.5C20.3359 19.5 23.9834 16.9738 26.1034 14.8538C28.3922 12.565 29.4147 10.3 29.4572 10.2038C29.485 10.1396 29.4994 10.0705 29.4994 10.0006C29.4994 9.93074 29.485 9.8616 29.4572 9.7975ZM25.3697 14.1725C22.4859 17.0475 18.9947 18.5 14.9947 18.5C10.9947 18.5 7.50845 17.0438 4.6197 14.1725C3.39056 12.9467 2.35686 11.5395 1.5547 10C2.35835 8.46018 3.39376 7.05294 4.6247 5.8275C7.51345 2.95625 10.9997 1.5 14.9997 1.5C18.9997 1.5 22.4859 2.95625 25.3747 5.8275C26.6055 7.05307 27.6409 8.46028 28.4447 10C27.641 11.5398 26.6056 12.947 25.3747 14.1725H25.3697ZM14.9997 4.5C13.9119 4.5 12.8485 4.82257 11.9441 5.42692C11.0396 6.03126 10.3346 6.89025 9.91836 7.89524C9.50208 8.90023 9.39316 10.0061 9.60538 11.073C9.8176 12.1399 10.3414 13.1199 11.1106 13.8891C11.8798 14.6583 12.8598 15.1821 13.9267 15.3943C14.9936 15.6065 16.0995 15.4976 17.1045 15.0813C18.1094 14.6651 18.9684 13.9601 19.5728 13.0556C20.1771 12.1512 20.4997 11.0878 20.4997 10C20.498 8.54182 19.918 7.14383 18.887 6.11274C17.8559 5.08165 16.4579 4.50165 14.9997 4.5ZM14.9997 14.5C14.1097 14.5 13.2397 14.2361 12.4996 13.7416C11.7596 13.2471 11.1828 12.5443 10.8422 11.7221C10.5016 10.8998 10.4125 9.99501 10.5862 9.12209C10.7598 8.24918 11.1884 7.44736 11.8177 6.81802C12.4471 6.18868 13.2489 5.7601 14.1218 5.58647C14.9947 5.41283 15.8995 5.50195 16.7218 5.84254C17.544 6.18314 18.2468 6.75991 18.7413 7.49993C19.2358 8.23996 19.4997 9.10998 19.4997 10C19.4997 11.1935 19.0256 12.3381 18.1817 13.182C17.3378 14.0259 16.1932 14.5 14.9997 14.5Z" fill="#343330"/>
</svg>
