<svg width="17" height="17" viewBox="0 0 17 17" fill="none" xmlns="http://www.w3.org/2000/svg">
<path d="M12.8911 12.67C12.9376 12.7164 12.9744 12.7716 12.9996 12.8323C13.0247 12.893 13.0377 12.958 13.0377 13.0237C13.0377 13.0894 13.0247 13.1545 12.9996 13.2152C12.9744 13.2759 12.9376 13.331 12.8911 13.3775C12.8447 13.4239 12.7895 13.4608 12.7288 13.4859C12.6681 13.5111 12.6031 13.524 12.5374 13.524C12.4717 13.524 12.4066 13.5111 12.3459 13.4859C12.2852 13.4608 12.2301 13.4239 12.1836 13.3775L8.03739 9.23059L3.89114 13.3775C3.79732 13.4713 3.67007 13.524 3.53739 13.524C3.40471 13.524 3.27746 13.4713 3.18364 13.3775C3.08982 13.2836 3.03711 13.1564 3.03711 13.0237C3.03711 12.891 3.08982 12.7638 3.18364 12.67L7.33051 8.52372L3.18364 4.37747C3.08982 4.28365 3.03711 4.1564 3.03711 4.02372C3.03711 3.89103 3.08982 3.76379 3.18364 3.66997C3.27746 3.57615 3.40471 3.52344 3.53739 3.52344C3.67007 3.52344 3.79732 3.57615 3.89114 3.66997L8.03739 7.81684L12.1836 3.66997C12.2775 3.57615 12.4047 3.52344 12.5374 3.52344C12.6701 3.52344 12.7973 3.57615 12.8911 3.66997C12.985 3.76379 13.0377 3.89103 13.0377 4.02372C13.0377 4.1564 12.985 4.28365 12.8911 4.37747L8.74426 8.52372L12.8911 12.67Z" fill="white"/>
</svg>
