<?xml version="1.0" standalone="no"?>
<!DOCTYPE svg PUBLIC "-//W3C//DTD SVG 20010904//EN"
 "http://www.w3.org/TR/2001/REC-SVG-20010904/DTD/svg10.dtd">
<svg version="1.0" xmlns="http://www.w3.org/2000/svg"
 width="1176.000000pt" height="1176.000000pt" viewBox="0 0 1176.000000 1176.000000"
 preserveAspectRatio="xMidYMid meet">
<metadata>
Created by potrace 1.14, written by Peter Selinger 2001-2017
</metadata>
<g transform="translate(0.000000,1176.000000) scale(0.100000,-0.100000)"
fill="#000000" stroke="none">
<path d="M0 5880 l0 -5880 5880 0 5880 0 0 5880 0 5880 -5880 0 -5880 0 0
-5880z m7265 1311 c47 -22 89 -64 104 -104 6 -16 11 -55 11 -87 0 -70 -12
-105 -48 -143 -39 -42 -75 -57 -145 -63 -87 -6 -151 18 -194 73 -81 108 -41
280 77 325 60 23 145 22 195 -1z m-2390 -726 c340 -55 560 -243 619 -528 14
-64 16 -165 16 -641 0 -615 7 -723 55 -874 14 -42 25 -80 25 -84 0 -5 -86 -8
-191 -8 l-190 0 -16 38 c-8 20 -20 69 -26 107 -6 39 -11 71 -13 73 -1 2 -31
-20 -66 -48 -132 -107 -283 -175 -448 -201 -107 -17 -265 -6 -375 26 -132 39
-218 87 -305 175 -125 124 -174 244 -173 425 2 350 229 580 651 661 65 13 165
18 401 21 l313 5 -4 131 c-6 169 -26 227 -107 308 -94 93 -222 139 -391 139
-242 0 -423 -117 -455 -292 l-7 -38 -179 0 -179 0 0 34 c0 47 34 151 69 212
102 177 319 315 564 359 98 18 303 18 412 0z m2485 -925 l0 -900 345 0 345 0
0 -155 0 -155 -885 0 -885 0 0 155 0 155 360 0 360 0 0 745 0 745 -360 0 -360
0 0 155 0 155 540 0 540 0 0 -900z"/>
<path d="M4595 5343 c-149 -20 -288 -76 -355 -143 -62 -62 -83 -112 -88 -212
-9 -176 61 -288 219 -350 75 -29 266 -37 364 -14 151 36 317 145 387 255 l28
45 0 213 0 213 -262 -1 c-145 -1 -276 -4 -293 -6z"/>
</g>
</svg>
