<svg width="24" height="24" viewBox="0 0 24 24" fill="none" xmlns="http://www.w3.org/2000/svg">
<path d="M18.8479 16.6844C19.2666 15.8332 19.4753 14.894 19.4565 13.9456C19.4376 12.9971 19.1918 12.067 18.7396 11.2331C18.2874 10.3992 17.642 9.68573 16.8574 9.15254C16.0727 8.61935 15.1718 8.28192 14.23 8.16852C13.9176 7.44037 13.4627 6.78211 12.892 6.23251C12.3213 5.68291 11.6464 5.2531 10.907 4.96838C10.1676 4.68366 9.37868 4.54981 8.58677 4.57471C7.79485 4.59961 7.01592 4.78275 6.29587 5.11335C5.57583 5.44394 4.92924 5.91531 4.39419 6.49967C3.85914 7.08403 3.44646 7.76957 3.18046 8.5159C2.91446 9.26222 2.80052 10.0542 2.84536 10.8453C2.89019 11.6363 3.0929 12.4104 3.44153 13.1219L2.87301 15.1124C2.82228 15.2905 2.82006 15.4789 2.86657 15.6581C2.91309 15.8374 3.00665 16.0009 3.13759 16.1318C3.26852 16.2628 3.43206 16.3563 3.61129 16.4028C3.79051 16.4494 3.97892 16.4471 4.157 16.3964L6.14754 15.8279C6.7482 16.1228 7.39431 16.3143 8.05867 16.3942C8.37536 17.1361 8.83993 17.8058 9.42401 18.3622C10.0081 18.9187 10.6995 19.3503 11.4559 19.6307C12.2123 19.9111 13.0179 20.0344 13.8236 19.993C14.6293 19.9517 15.4181 19.7467 16.1418 19.3904L18.1324 19.9589C18.3105 20.0096 18.4989 20.0119 18.6781 19.9653C18.8573 19.9188 19.0209 19.8253 19.1518 19.6943C19.2827 19.5634 19.3763 19.3999 19.4228 19.2206C19.4693 19.0414 19.4671 18.853 19.4164 18.6749L18.8479 16.6844ZM6.21137 14.5988C6.15619 14.5988 6.10126 14.6063 6.04809 14.6211L4.08797 15.1814L4.64832 13.2213C4.69032 13.072 4.6722 12.9122 4.59785 12.776C4.05191 11.7737 3.88543 10.6083 4.12891 9.49318C4.37239 8.37812 5.00953 7.38813 5.92358 6.70462C6.83762 6.02112 7.96736 5.68988 9.10577 5.7716C10.2442 5.85331 11.315 6.34252 12.1221 7.14957C12.9291 7.95662 13.4183 9.02746 13.5 10.1659C13.5818 11.3043 13.2505 12.434 12.567 13.3481C11.8835 14.2621 10.8935 14.8993 9.77846 15.1427C8.66339 15.3862 7.49793 15.2197 6.49563 14.6738C6.40873 14.6252 6.31093 14.5994 6.21137 14.5988ZM17.6411 16.7838L18.2014 18.7439L16.2413 18.1836C16.092 18.1416 15.9321 18.1597 15.796 18.2341C14.7015 18.8295 13.417 18.9715 12.2188 18.6295C11.0207 18.2875 10.0047 17.4888 9.38942 16.4053C10.2024 16.3206 10.9892 16.0689 11.7003 15.6658C12.4115 15.2627 13.0316 14.7169 13.5219 14.0628C14.0121 13.4088 14.3619 12.6604 14.5493 11.8647C14.7366 11.0691 14.7576 10.2433 14.6107 9.43914C15.3222 9.60681 15.9854 9.93643 16.5486 10.4023C17.1119 10.8682 17.56 11.4578 17.8581 12.1252C18.1562 12.7926 18.2963 13.5199 18.2674 14.2502C18.2385 14.9806 18.0414 15.6945 17.6915 16.3363C17.6166 16.4731 17.5985 16.6338 17.6411 16.7838Z" fill="#343330"/>
</svg>
