<svg width="25" height="25" viewBox="0 0 25 25" fill="none" xmlns="http://www.w3.org/2000/svg">
<rect width="25" height="25" rx="12.5" fill="#E5FBEB"/>
<path d="M19.1315 10.86C18.8861 10.6035 18.6322 10.3392 18.5365 10.1068C18.4479 9.8939 18.4427 9.54104 18.4375 9.19924C18.4277 8.56382 18.4173 7.84377 17.9167 7.34312C17.416 6.84247 16.696 6.83205 16.0605 6.82229C15.7188 6.81708 15.3659 6.81187 15.153 6.72333C14.9212 6.62762 14.6562 6.37372 14.3997 6.12828C13.9505 5.69663 13.4401 5.2077 12.7604 5.2077C12.0807 5.2077 11.571 5.69663 11.1211 6.12828C10.8646 6.37372 10.6003 6.62762 10.3678 6.72333C10.1563 6.81187 9.80208 6.81708 9.46029 6.82229C8.82487 6.83205 8.10482 6.84247 7.60417 7.34312C7.10352 7.84377 7.09635 8.56382 7.08333 9.19924C7.07813 9.54104 7.07292 9.8939 6.98438 10.1068C6.88867 10.3386 6.63477 10.6035 6.38932 10.86C5.95768 11.3093 5.46875 11.8197 5.46875 12.4994C5.46875 13.1791 5.95768 13.6888 6.38932 14.1387C6.63477 14.3952 6.88867 14.6595 6.98438 14.8919C7.07292 15.1048 7.07813 15.4577 7.08333 15.7995C7.0931 16.4349 7.10352 17.155 7.60417 17.6556C8.10482 18.1563 8.82487 18.1667 9.46029 18.1765C9.80208 18.1817 10.1549 18.1869 10.3678 18.2754C10.5996 18.3711 10.8646 18.625 11.1211 18.8705C11.5703 19.3021 12.0807 19.791 12.7604 19.791C13.4401 19.791 13.9499 19.3021 14.3997 18.8705C14.6562 18.625 14.9206 18.3711 15.153 18.2754C15.3659 18.1869 15.7188 18.1817 16.0605 18.1765C16.696 18.1667 17.416 18.1563 17.9167 17.6556C18.4173 17.155 18.4277 16.4349 18.4375 15.7995C18.4427 15.4577 18.4479 15.1048 18.5365 14.8919C18.6322 14.6602 18.8861 14.3952 19.1315 14.1387C19.5632 13.6895 20.0521 13.1791 20.0521 12.4994C20.0521 11.8197 19.5632 11.3099 19.1315 10.86ZM15.7331 10.5684C15.7815 10.6168 15.8199 10.6742 15.8461 10.7374C15.8723 10.8006 15.8858 10.8684 15.8858 10.9369C15.8858 11.0053 15.8723 11.0731 15.8461 11.1363C15.8199 11.1995 15.7815 11.257 15.7331 11.3054L12.0872 14.9512C12.0389 14.9996 11.9814 15.038 11.9182 15.0642C11.855 15.0905 11.7872 15.1039 11.7188 15.1039C11.6503 15.1039 11.5825 15.0905 11.5193 15.0642C11.4561 15.038 11.3986 14.9996 11.3503 14.9512L9.78776 13.3887C9.69003 13.291 9.63513 13.1584 9.63513 13.0202C9.63513 12.882 9.69003 12.7494 9.78776 12.6517C9.88549 12.554 10.018 12.4991 10.1563 12.4991C10.2945 12.4991 10.427 12.554 10.5247 12.6517L11.7188 13.8464L14.9961 10.5684C15.0445 10.52 15.1019 10.4815 15.1651 10.4553C15.2284 10.4291 15.2961 10.4156 15.3646 10.4156C15.433 10.4156 15.5008 10.4291 15.564 10.4553C15.6273 10.4815 15.6847 10.52 15.7331 10.5684Z" fill="#3CB179"/>
</svg>
