<svg width="19" height="19" viewBox="0 0 19 19" fill="none" xmlns="http://www.w3.org/2000/svg">
<path d="M17.4883 7.4015C17.1742 7.07317 16.8492 6.73484 16.7267 6.43734C16.6133 6.16484 16.6067 5.71317 16.6 5.27567C16.5875 4.46234 16.5742 3.54067 15.9333 2.89984C15.2925 2.259 14.3708 2.24567 13.5575 2.23317C13.12 2.2265 12.6683 2.21984 12.3958 2.1065C12.0992 1.984 11.76 1.659 11.4317 1.34484C10.8567 0.792337 10.2033 0.166504 9.33333 0.166504C8.46333 0.166504 7.81083 0.792337 7.235 1.34484C6.90667 1.659 6.56833 1.984 6.27083 2.1065C6 2.21984 5.54667 2.2265 5.10917 2.23317C4.29583 2.24567 3.37417 2.259 2.73333 2.89984C2.0925 3.54067 2.08333 4.46234 2.06667 5.27567C2.06 5.71317 2.05333 6.16484 1.94 6.43734C1.8175 6.734 1.4925 7.07317 1.17833 7.4015C0.625833 7.9765 0 8.62984 0 9.49984C0 10.3698 0.625833 11.0223 1.17833 11.5982C1.4925 11.9265 1.8175 12.2648 1.94 12.5623C2.05333 12.8348 2.06 13.2865 2.06667 13.724C2.07917 14.5373 2.0925 15.459 2.73333 16.0998C3.37417 16.7407 4.29583 16.754 5.10917 16.7665C5.54667 16.7732 5.99833 16.7798 6.27083 16.8932C6.5675 17.0157 6.90667 17.3407 7.235 17.6548C7.81 18.2073 8.46333 18.8332 9.33333 18.8332C10.2033 18.8332 10.8558 18.2073 11.4317 17.6548C11.76 17.3407 12.0983 17.0157 12.3958 16.8932C12.6683 16.7798 13.12 16.7732 13.5575 16.7665C14.3708 16.754 15.2925 16.7407 15.9333 16.0998C16.5742 15.459 16.5875 14.5373 16.6 13.724C16.6067 13.2865 16.6133 12.8348 16.7267 12.5623C16.8492 12.2657 17.1742 11.9265 17.4883 11.5982C18.0408 11.0232 18.6667 10.3698 18.6667 9.49984C18.6667 8.62984 18.0408 7.97734 17.4883 7.4015ZM13.1383 7.02817C13.2003 7.09009 13.2495 7.16361 13.283 7.24454C13.3166 7.32548 13.3339 7.41223 13.3339 7.49984C13.3339 7.58745 13.3166 7.6742 13.283 7.75513C13.2495 7.83606 13.2003 7.90959 13.1383 7.9715L8.47167 12.6382C8.40975 12.7002 8.33623 12.7493 8.25529 12.7829C8.17436 12.8164 8.08761 12.8337 8 12.8337C7.91239 12.8337 7.82564 12.8164 7.74471 12.7829C7.66377 12.7493 7.59025 12.7002 7.52833 12.6382L5.52833 10.6382C5.40324 10.5131 5.33296 10.3434 5.33296 10.1665C5.33296 9.98959 5.40324 9.81993 5.52833 9.69484C5.65343 9.56974 5.82309 9.49947 6 9.49947C6.17691 9.49947 6.34657 9.56974 6.47167 9.69484L8 11.224L12.195 7.02817C12.2569 6.96619 12.3304 6.91701 12.4114 6.88346C12.4923 6.84991 12.5791 6.83265 12.6667 6.83265C12.7543 6.83265 12.841 6.84991 12.922 6.88346C13.0029 6.91701 13.0764 6.96619 13.1383 7.02817Z" fill="#3CB179"/>
</svg>
